<svg width="56.000000" height="56.000000" viewBox="0 0 56 56" fill="none" xmlns="http://www.w3.org/2000/svg" xmlns:xlink="http://www.w3.org/1999/xlink">
	<desc>
			Created with Pixso.
	</desc>
	<defs>
		<clipPath id="clip413_68198">
			<rect id="style=添加-默认" width="40.000000" height="40.000000" transform="translate(8.000000 8.000000)" fill="white"/>
		</clipPath>
	</defs>
	<rect id="画板 384" rx="8.000000" width="55.000000" height="55.000000" transform="translate(0.500000 0.500000)" fill="#1A1D2C"/>
	<g clip-path="url(#clip413_68198)">
		<path id="vector (Stroke)" d="M34.6665 10.0833C40.8796 10.0833 45.9165 15.1201 45.9165 21.3333L45.9165 34.6666C45.9165 40.8799 40.8796 45.9166 34.6665 45.9166L21.3333 45.9166C15.1199 45.9166 10.0833 40.8799 10.0833 34.6666L10.0833 21.3333C10.0833 15.1201 15.1199 10.0833 21.3333 10.0833L34.6665 10.0833ZM43.4165 21.3333C43.4165 16.5008 39.499 12.5833 34.6665 12.5833L21.3333 12.5833C16.5007 12.5833 12.5833 16.5008 12.5833 21.3333L12.5833 34.6666C12.5833 39.4991 16.5007 43.4166 21.3333 43.4166L34.6665 43.4166C39.499 43.4166 43.4165 39.4991 43.4165 34.6666L43.4165 21.3333Z" fill-rule="evenodd" fill="#2AE304"/>
		<path id="vector (Stroke)" d="M36.321 28C36.321 28.6904 35.7615 29.25 35.071 29.25L20.929 29.2499C20.2388 29.2499 19.679 28.6903 19.679 27.9999C19.679 27.3096 20.2388 26.7499 20.929 26.7499L35.071 26.75C35.7615 26.75 36.321 27.3096 36.321 28Z" fill-rule="evenodd" fill="#2AE304"/>
		<path id="vector (Stroke)" d="M28 36.3333C27.3096 36.3333 26.75 35.7737 26.75 35.0833L26.75 20.9412C26.75 20.2509 27.3098 19.6912 28 19.6912C28.6904 19.6912 29.25 20.2509 29.25 20.9412L29.25 35.0833C29.25 35.7737 28.6904 36.3333 28 36.3333Z" fill-rule="evenodd" fill="#2AE304"/>
	</g>
	<rect id="画板 384" rx="8.000000" width="55.000000" height="55.000000" transform="translate(0.500000 0.500000)" stroke="#2AE304"/>
</svg>
