<svg width="28.666992" height="28.666664" viewBox="0 0 28.667 28.6667" fill="none" xmlns="http://www.w3.org/2000/svg" xmlns:xlink="http://www.w3.org/1999/xlink">
	<desc>
			Created with Pixso.
	</desc>
	<defs/>
	<path id="vector (Stroke)" d="M19.667 0C24.6377 0 28.667 4.02944 28.667 9L28.667 19.6667C28.667 24.6372 24.6377 28.6667 19.667 28.6667L9.00049 28.6667C4.02979 28.6667 0.000488281 24.6372 0.000488281 19.6667L0.000488281 9C0.000488281 4.02944 4.02979 0 9.00049 0L19.667 0ZM26.667 9C26.667 5.13401 23.5332 2 19.667 2L9.00049 2C5.13428 2 2.00049 5.13401 2.00049 9L2.00049 19.6667C2.00049 23.5327 5.13428 26.6667 9.00049 26.6667L19.667 26.6667C23.5332 26.6667 26.667 23.5327 26.667 19.6667L26.667 9Z" fill-rule="evenodd" fill="#FFFFFF"/>
	<path id="vector (Stroke)" d="M20.9907 14.3333C20.9907 14.8856 20.543 15.3333 19.9907 15.3333L8.67676 15.3333C8.12451 15.3333 7.67676 14.8855 7.67676 14.3333C7.67676 13.781 8.12451 13.3333 8.67676 13.3333L19.9907 13.3333C20.543 13.3333 20.9907 13.781 20.9907 14.3333Z" fill-rule="evenodd" fill="#FFFFFF"/>
	<path id="vector (Stroke)" d="M14.3335 21C13.7812 21 13.3335 20.5522 13.3335 20L13.3335 8.68631C13.3335 8.13403 13.7812 7.68631 14.3335 7.68632C14.8857 7.68632 15.3335 8.13403 15.3335 8.68632L15.3335 20C15.3335 20.5523 14.8857 21 14.3335 21Z" fill-rule="evenodd" fill="#FFFFFF"/>
</svg>
