<svg width="56.000000" height="56.000000" viewBox="0 0 56 56" fill="none" xmlns="http://www.w3.org/2000/svg" xmlns:xlink="http://www.w3.org/1999/xlink">
	<desc>
			Created with Pixso.
	</desc>
	<defs/>
	<rect id="画板 263" rx="8.000000" width="55.000000" height="55.000000" transform="translate(0.500000 0.500000)" fill="#1A1D2C"/>
	<path id="vector" d="M21.2334 31.2207C21.7705 31.3992 22.2715 31.6541 22.7246 31.9744C23.0156 32.1802 23.2861 32.4131 23.5322 32.67C24.0947 33.2573 24.5303 33.9703 24.793 34.774L26.833 40.8074C28.5752 46.0264 35.917 45.9154 37.5479 40.6964L44.4082 18.6729C45.0732 16.496 44.4023 14.3927 43.0264 12.9999C41.6406 11.5982 39.5391 10.9161 37.3633 11.6031L15.2637 18.4507C10.0732 20.0793 9.99902 27.4452 15.1904 29.1849L21.2334 31.2207Z" stroke="#538FFF" stroke-width="2.000000" stroke-linejoin="round"/>
	<rect id="画板 263" rx="8.000000" width="55.000000" height="55.000000" transform="translate(0.500000 0.500000)" stroke="#538FFF"/>
</svg>
