<svg width="56.000000" height="56.000000" viewBox="0 0 56 56" fill="none" xmlns="http://www.w3.org/2000/svg" xmlns:xlink="http://www.w3.org/1999/xlink">
	<desc>
			Created with Pixso.
	</desc>
	<defs/>
	<rect id="画板 263" rx="4.000000" width="55.000000" height="55.000000" transform="translate(0.500000 0.500000)" fill="#1A1D2C" fill-opacity="1.000000"/>
	<rect id="style=查看-默认" width="40.000000" height="40.000000" transform="translate(8.000000 8.000000)" fill="#FFFFFF" fill-opacity="0"/>
	<path id="vector (Stroke)" d="M28 24.25C25.925 24.25 24.25 25.925 24.25 28C24.25 30.075 25.925 31.75 28 31.75C30.075 31.75 31.75 30.075 31.75 28C31.75 25.925 30.075 24.25 28 24.25ZM21.75 28C21.75 24.5443 24.5442 21.75 28 21.75C31.4558 21.75 34.25 24.5443 34.25 28C34.25 31.4557 31.4558 34.25 28 34.25C24.5442 34.25 21.75 31.4557 21.75 28Z" fill="#538FFF" fill-opacity="1.000000" fill-rule="evenodd"/>
	<path id="vector (Stroke)" d="M11.8044 23.4557C15.8215 17.9044 21.6602 14.6166 28 14.6166C34.3401 14.6166 40.179 17.9048 44.196 23.4565C45.1321 24.7466 45.5583 26.4036 45.5583 27.9916C45.5583 29.58 45.1318 31.2374 44.1953 32.5276C40.1785 38.0788 34.3398 41.3666 28 41.3666C21.6599 41.3666 15.8208 38.0785 11.804 32.5267C10.8679 31.2367 10.4417 29.5797 10.4417 27.9916C10.4417 26.4033 10.8682 24.7458 11.8044 23.4557ZM28 17.1166C22.5735 17.1166 17.4458 19.924 13.8293 24.922L13.8281 24.9237C13.2649 25.6994 12.9417 26.811 12.9417 27.9916C12.9417 29.1722 13.2649 30.2838 13.8281 31.0596L13.8293 31.0612C17.4458 36.0593 22.5735 38.8666 28 38.8666C33.4265 38.8666 38.5542 36.0593 42.1707 31.0612L42.1719 31.0596C42.7351 30.2838 43.0583 29.1722 43.0583 27.9916C43.0583 26.811 42.7351 25.6994 42.1719 24.9237L42.1707 24.922C38.5542 19.924 33.4265 17.1166 28 17.1166Z" fill="#538FFF" fill-opacity="1.000000" fill-rule="evenodd"/>
	<rect id="画板 263" rx="4.000000" width="55.000000" height="55.000000" transform="translate(0.500000 0.500000)" stroke="#538FFF" stroke-opacity="1.000000" stroke-width="1.000000"/>
</svg>
