<svg width="28.000000" height="28.000000" viewBox="0 0 28 28" fill="none" xmlns="http://www.w3.org/2000/svg" xmlns:xlink="http://www.w3.org/1999/xlink">
	<desc>
			Created with Pixso.
	</desc>
	<defs/>
	<rect id="画板 1" rx="3.000000" width="27.000000" height="27.000000" transform="translate(0.500000 0.500000)" fill="#538FFF" fill-opacity="0.1"/>
	<path id="vector (Stroke)" d="M14 12.5C13.1699 12.5 12.5 13.1699 12.5 14C12.5 14.8301 13.1699 15.5 14 15.5C14.8301 15.5 15.5 14.8301 15.5 14C15.5 13.1699 14.8301 12.5 14 12.5ZM11.5 14C11.5 12.6177 12.6177 11.5 14 11.5C15.3823 11.5 16.5 12.6177 16.5 14C16.5 15.3823 15.3823 16.5 14 16.5C12.6177 16.5 11.5 15.3823 11.5 14Z" fill-rule="evenodd" fill="#538FFF"/>
	<path id="vector (Stroke)" d="M7.52173 12.1821C9.12842 9.96143 11.4639 8.64648 14 8.64648C16.5359 8.64648 18.8716 9.96191 20.4783 12.1826C20.8528 12.6982 21.0232 13.3613 21.0232 13.9966C21.0232 14.6318 20.8525 15.2949 20.478 15.811C18.8713 18.0312 16.5359 19.3467 14 19.3467C11.4639 19.3467 9.12817 18.0312 7.52148 15.8105C7.14722 15.2944 6.97656 14.6318 6.97656 13.9966C6.97656 13.3613 7.14722 12.6982 7.52173 12.1821ZM14 9.64648C11.8293 9.64648 9.77808 10.7695 8.33154 12.7686L8.33105 12.7695C8.10596 13.0796 7.97656 13.5244 7.97656 13.9966C7.97656 14.4688 8.10596 14.9136 8.33105 15.2236L8.33154 15.2241C9.77808 17.2236 11.8293 18.3467 14 18.3467C16.1704 18.3467 18.2217 17.2236 19.6682 15.2241L19.6687 15.2236C19.8938 14.9136 20.0232 14.4688 20.0232 13.9966C20.0232 13.5244 19.8938 13.0796 19.6687 12.7695L19.6682 12.7686C18.2217 10.7695 16.1704 9.64648 14 9.64648Z" fill-rule="evenodd" fill="#538FFF"/>
	<rect id="画板 1" rx="3.000000" width="27.000000" height="27.000000" transform="translate(0.500000 0.500000)" stroke="#538FFF"/>
</svg>
