<svg width="44.000000" height="44.000000" viewBox="0 0 44 44" fill="none" xmlns="http://www.w3.org/2000/svg" xmlns:xlink="http://www.w3.org/1999/xlink">
	<desc>
			Created with Pixso.
	</desc>
	<defs>
		<clipPath id="clip398_17463">
			<rect id="属性 1=stroke" width="24.000000" height="24.000000" transform="translate(10.000000 10.000000)" fill="white" fill-opacity="0"/>
		</clipPath>
	</defs>
	<rect id="画板 1" rx="5.500000" width="43.000000" height="43.000000" transform="translate(0.500000 0.500000)" fill="#EB6A02" fill-opacity="0.100000"/>
	<g clip-path="url(#clip398_17463)">
		<path id="path" d="M30.99 13.75L30.99 16.25C30.99 16.66 30.66 17 30.24 17C29.83 17 29.49 16.66 29.49 16.25L29.49 15.56L24.28 20.78C24.13 20.92 23.94 21 23.74 21C23.55 21 23.36 20.92 23.22 20.78L19.24 16.81L14.28 21.78C14.13 21.92 13.94 22 13.74 22C13.55 22 13.36 21.92 13.22 21.78C13.18 21.74 13.15 21.7 13.12 21.66C13.09 21.62 13.07 21.58 13.05 21.53C13.03 21.49 13.02 21.44 13.01 21.39C13 21.34 13 21.29 13 21.25C13 21.2 13 21.15 13.01 21.1C13.02 21.05 13.03 21 13.05 20.96C13.07 20.91 13.09 20.87 13.12 20.83C13.15 20.79 13.18 20.75 13.22 20.72L18.71 15.22C18.75 15.18 18.79 15.15 18.83 15.12C18.87 15.09 18.91 15.07 18.96 15.05C19 15.03 19.05 15.02 19.1 15.01C19.15 15 19.2 15 19.24 15C19.29 15 19.34 15 19.39 15.01C19.44 15.02 19.49 15.03 19.53 15.05C19.58 15.07 19.62 15.09 19.66 15.12C19.7 15.15 19.74 15.18 19.78 15.22L23.74 19.18L28.43 14.5L27.74 14.5C27.33 14.5 26.99 14.16 26.99 13.75C26.99 13.33 27.33 13 27.74 13L30.24 13C30.29 13 30.34 13 30.39 13.01C30.41 13.01 30.42 13.02 30.44 13.02C30.49 13.04 30.55 13.06 30.6 13.08C30.61 13.09 30.64 13.11 30.66 13.12C30.68 13.13 30.7 13.15 30.72 13.17C30.76 13.2 30.79 13.23 30.83 13.27C30.84 13.29 30.86 13.31 30.87 13.33C30.89 13.35 30.9 13.38 30.91 13.4C30.93 13.44 30.96 13.5 30.97 13.55C30.98 13.57 30.98 13.59 30.98 13.6C30.99 13.65 30.99 13.7 30.99 13.75ZM15.24 31C15.2 31 15.15 30.99 15.1 30.98C15.05 30.97 15 30.96 14.96 30.94C14.91 30.92 14.87 30.9 14.83 30.87C14.79 30.84 14.75 30.81 14.71 30.78C14.68 30.74 14.65 30.7 14.62 30.66C14.59 30.62 14.57 30.58 14.55 30.53C14.53 30.49 14.52 30.44 14.51 30.39C14.5 30.34 14.49 30.29 14.49 30.25L14.49 24.75C14.49 24.7 14.5 24.65 14.51 24.6C14.52 24.55 14.53 24.5 14.55 24.46C14.57 24.41 14.59 24.37 14.62 24.33C14.65 24.29 14.68 24.25 14.71 24.21C14.75 24.18 14.79 24.15 14.83 24.12C14.87 24.09 14.91 24.07 14.96 24.05C15 24.03 15.05 24.02 15.1 24.01C15.15 24 15.2 24 15.24 24C15.29 24 15.34 24 15.39 24.01C15.44 24.02 15.49 24.03 15.53 24.05C15.58 24.07 15.62 24.09 15.66 24.12C15.7 24.15 15.74 24.18 15.78 24.21C15.81 24.25 15.84 24.29 15.87 24.33C15.9 24.37 15.92 24.41 15.94 24.46C15.96 24.5 15.97 24.55 15.98 24.6C15.99 24.65 15.99 24.7 15.99 24.75L15.99 30.25C15.99 30.29 15.99 30.34 15.98 30.39C15.97 30.44 15.96 30.49 15.94 30.53C15.92 30.58 15.9 30.62 15.87 30.66C15.84 30.7 15.81 30.74 15.78 30.78C15.74 30.81 15.7 30.84 15.66 30.87C15.62 30.9 15.58 30.92 15.53 30.94C15.49 30.96 15.44 30.97 15.39 30.98C15.34 30.99 15.29 31 15.24 31ZM19.74 31C19.7 31 19.65 30.99 19.6 30.98C19.55 30.97 19.5 30.96 19.46 30.94C19.41 30.92 19.37 30.9 19.33 30.87C19.29 30.84 19.25 30.81 19.21 30.78C19.18 30.74 19.15 30.7 19.12 30.66C19.09 30.62 19.07 30.58 19.05 30.53C19.03 30.49 19.02 30.44 19.01 30.39C19 30.34 18.99 30.29 18.99 30.25L18.99 21.25C18.99 21.2 19 21.15 19.01 21.1C19.02 21.05 19.03 21 19.05 20.96C19.07 20.91 19.09 20.87 19.12 20.83C19.15 20.79 19.18 20.75 19.21 20.71C19.25 20.68 19.29 20.65 19.33 20.62C19.37 20.59 19.41 20.57 19.46 20.55C19.5 20.53 19.55 20.52 19.6 20.51C19.65 20.5 19.7 20.5 19.74 20.5C19.79 20.5 19.84 20.5 19.89 20.51C19.94 20.52 19.99 20.53 20.03 20.55C20.08 20.57 20.12 20.59 20.16 20.62C20.2 20.65 20.24 20.68 20.28 20.71C20.31 20.75 20.34 20.79 20.37 20.83C20.4 20.87 20.42 20.91 20.44 20.96C20.46 21 20.47 21.05 20.48 21.1C20.49 21.15 20.49 21.2 20.49 21.25L20.49 30.25C20.49 30.29 20.49 30.34 20.48 30.39C20.47 30.44 20.46 30.49 20.44 30.53C20.42 30.58 20.4 30.62 20.37 30.66C20.34 30.7 20.31 30.74 20.28 30.78C20.24 30.81 20.2 30.84 20.16 30.87C20.12 30.9 20.08 30.92 20.03 30.94C19.99 30.96 19.94 30.97 19.89 30.98C19.84 30.99 19.79 31 19.74 31ZM24.24 31C24.2 31 24.15 30.99 24.1 30.98C24.05 30.97 24 30.96 23.96 30.94C23.91 30.92 23.87 30.9 23.83 30.87C23.79 30.84 23.75 30.81 23.71 30.78C23.68 30.74 23.65 30.7 23.62 30.66C23.59 30.62 23.57 30.58 23.55 30.53C23.53 30.49 23.52 30.44 23.51 30.39C23.5 30.34 23.49 30.29 23.49 30.25L23.49 23.75C23.49 23.7 23.5 23.65 23.51 23.6C23.52 23.55 23.53 23.5 23.55 23.46C23.57 23.41 23.59 23.37 23.62 23.33C23.65 23.29 23.68 23.25 23.71 23.21C23.75 23.18 23.79 23.15 23.83 23.12C23.87 23.09 23.91 23.07 23.96 23.05C24 23.03 24.05 23.02 24.1 23.01C24.15 23 24.2 23 24.24 23C24.29 23 24.34 23 24.39 23.01C24.44 23.02 24.49 23.03 24.53 23.05C24.58 23.07 24.62 23.09 24.66 23.12C24.7 23.15 24.74 23.18 24.78 23.21C24.81 23.25 24.84 23.29 24.87 23.33C24.9 23.37 24.92 23.41 24.94 23.46C24.96 23.5 24.97 23.55 24.98 23.6C24.99 23.65 24.99 23.7 24.99 23.75L24.99 30.25C24.99 30.29 24.99 30.34 24.98 30.39C24.97 30.44 24.96 30.49 24.94 30.53C24.92 30.58 24.9 30.62 24.87 30.66C24.84 30.7 24.81 30.74 24.78 30.78C24.74 30.81 24.7 30.84 24.66 30.87C24.62 30.9 24.58 30.92 24.53 30.94C24.49 30.96 24.44 30.97 24.39 30.98C24.34 30.99 24.29 31 24.24 31ZM28.74 31C28.7 31 28.65 30.99 28.6 30.98C28.55 30.97 28.5 30.96 28.46 30.94C28.41 30.92 28.37 30.9 28.33 30.87C28.29 30.84 28.25 30.81 28.21 30.78C28.18 30.74 28.15 30.7 28.12 30.66C28.09 30.62 28.07 30.58 28.05 30.53C28.03 30.49 28.02 30.44 28.01 30.39C28 30.34 27.99 30.29 27.99 30.25L27.99 19.75C27.99 19.7 28 19.65 28.01 19.6C28.02 19.55 28.03 19.5 28.05 19.46C28.07 19.41 28.09 19.37 28.12 19.33C28.15 19.29 28.18 19.25 28.21 19.21C28.25 19.18 28.29 19.15 28.33 19.12C28.37 19.09 28.41 19.07 28.46 19.05C28.5 19.03 28.55 19.02 28.6 19.01C28.65 19 28.7 19 28.74 19C28.79 19 28.84 19 28.89 19.01C28.94 19.02 28.99 19.03 29.03 19.05C29.08 19.07 29.12 19.09 29.16 19.12C29.2 19.15 29.24 19.18 29.28 19.21C29.31 19.25 29.34 19.29 29.37 19.33C29.4 19.37 29.42 19.41 29.44 19.46C29.46 19.5 29.47 19.55 29.48 19.6C29.49 19.65 29.49 19.7 29.49 19.75L29.49 30.25C29.49 30.29 29.49 30.34 29.48 30.39C29.47 30.44 29.46 30.49 29.44 30.53C29.42 30.58 29.4 30.62 29.37 30.66C29.34 30.7 29.31 30.74 29.28 30.78C29.24 30.81 29.2 30.84 29.16 30.87C29.12 30.9 29.08 30.92 29.03 30.94C28.99 30.96 28.94 30.97 28.89 30.98C28.84 30.99 28.79 31 28.74 31Z" fill="#EB6A02" fill-opacity="1.000000" fill-rule="nonzero"/>
	</g>
	<rect id="画板 1" rx="5.500000" width="43.000000" height="43.000000" transform="translate(0.500000 0.500000)" stroke="#EB6A02" stroke-opacity="1.000000" stroke-width="1.000000"/>
</svg>
