<svg width="24.000000" height="24.000000" viewBox="0 0 24 24" fill="none" xmlns="http://www.w3.org/2000/svg" xmlns:xlink="http://www.w3.org/1999/xlink">
	<desc>
			Created with Pixso.
	</desc>
	<defs>
		<clipPath id="clip296_5452">
			<rect id="style=关闭1-默认" width="24.000000" height="24.000000" transform="translate(0.000000 24.000000) rotate(-90.000000)" fill="white"/>
		</clipPath>
	</defs>
	<g clip-path="url(#clip296_5452)">
		<path id="vector (Stroke)" d="M1.25 8C1.25 4.27209 4.27148 1.25 8 1.25L16 1.25C19.7285 1.25 22.75 4.27209 22.75 8L22.75 16C22.75 19.7279 19.7285 22.75 16 22.75L8 22.75C4.27148 22.75 1.25 19.7279 1.25 16L1.25 8ZM8 2.75C5.09961 2.75 2.75 5.10046 2.75 8L2.75 16C2.75 18.8995 5.09961 21.25 8 21.25L16 21.25C18.9004 21.25 21.25 18.8995 21.25 16L21.25 8C21.25 5.10046 18.9004 2.75 16 2.75L8 2.75Z" fill-rule="evenodd" fill="#FFFFFF"/>
		<path id="vector (Stroke)" d="M8.46875 8.46973C8.76172 8.17676 9.23828 8.17676 9.53125 8.46973L15.5312 14.4697C15.8223 14.7626 15.8223 15.2374 15.5312 15.5303C15.2383 15.8232 14.7617 15.8232 14.4688 15.5303L8.46875 9.53027C8.17773 9.23743 8.17773 8.76257 8.46875 8.46973Z" fill-rule="evenodd" fill="#FFFFFF"/>
		<path id="vector (Stroke)" d="M15.5312 8.46973C15.8223 8.76257 15.8223 9.23743 15.5312 9.53027L9.53125 15.5303C9.23828 15.8231 8.76172 15.8231 8.46875 15.5303C8.17773 15.2374 8.17773 14.7625 8.46875 14.4696L14.4688 8.46973C14.7617 8.17676 15.2383 8.17676 15.5312 8.46973Z" fill-rule="evenodd" fill="#FFFFFF"/>
	</g>
</svg>
