<svg width="56.000000" height="56.000000" viewBox="0 0 56 56" fill="none" xmlns="http://www.w3.org/2000/svg" xmlns:xlink="http://www.w3.org/1999/xlink">
	<desc>
			Created with Pixso.
	</desc>
	<defs>
		<clipPath id="clip2_4204">
			<rect id="style=stroke" width="40.000000" height="40.000000" transform="translate(8.000000 8.000000)" fill="white"/>
		</clipPath>
	</defs>
	<rect id="画板 263" rx="8.000000" width="55.000000" height="55.000000" transform="translate(0.500000 0.500000)" fill="#1A1D2C"/>
	<g clip-path="url(#clip2_4204)">
		<path id="vector (Stroke)" d="M40.5469 20.0288C41.0352 20.5168 41.0352 21.3083 40.5469 21.7964L27.3486 34.9951C25.5586 36.7849 22.6572 36.7849 20.8672 34.9951L15.4463 29.5742C14.958 29.0862 14.958 28.2947 15.4463 27.8064C15.9346 27.3184 16.7256 27.3184 17.2139 27.8064L22.6348 33.2273C23.4482 34.0408 24.7676 34.0408 25.5811 33.2273L38.7793 20.0288C39.2676 19.5405 40.0596 19.5405 40.5469 20.0288Z" fill-rule="evenodd" fill="#2AE304"/>
	</g>
	<rect id="画板 263" rx="8.000000" width="55.000000" height="55.000000" transform="translate(0.500000 0.500000)" stroke="#2AE304"/>
</svg>
