<svg width="56.000000" height="56.000000" viewBox="0 0 56 56" fill="none" xmlns="http://www.w3.org/2000/svg" xmlns:xlink="http://www.w3.org/1999/xlink">
	<desc>
			Created with Pixso.
	</desc>
	<defs>
		<clipPath id="clip316_69767">
			<rect id="stylle=删除-默认" width="40.000000" height="40.000000" transform="translate(8.000000 8.000000)" fill="white"/>
		</clipPath>
	</defs>
	<rect id="画板 384" rx="8.000000" width="55.000000" height="55.000000" transform="translate(0.500000 0.500000)" fill="#1A1D2C"/>
	<g clip-path="url(#clip316_69767)">
		<path id="vector (Stroke)" d="M22.583 14.25C22.583 11.7187 24.6348 9.66669 27.166 9.66669L28.833 9.66669C31.3643 9.66669 33.416 11.7187 33.416 14.25L33.416 16.75C33.416 17.4404 32.8564 18 32.166 18C31.4756 18 30.916 17.4404 30.916 16.75L30.916 14.25C30.916 13.0994 29.9834 12.1667 28.833 12.1667L27.166 12.1667C26.0156 12.1667 25.083 13.0994 25.083 14.25L25.083 16.75C25.083 17.4404 24.5234 18 23.833 18C23.1426 18 22.583 17.4404 22.583 16.75L22.583 14.25Z" fill-rule="evenodd" fill="#FC0C03"/>
		<path id="vector (Stroke)" d="M14.2578 20.4924L41.7422 20.4924L39.7393 40.7C39.4219 43.8972 36.7324 46.3333 33.5195 46.3333L22.4805 46.3333C19.2676 46.3333 16.5781 43.8972 16.2617 40.7L14.2578 20.4924ZM17.0176 22.9924L18.749 40.4533C18.9395 42.3717 20.5527 43.8333 22.4805 43.8333L33.5195 43.8333C35.4473 43.8333 37.0605 42.3717 37.251 40.4533L38.9824 22.9924L17.0176 22.9924Z" fill-rule="evenodd" fill="#FC0C03"/>
		<path id="vector (Stroke)" d="M14.1943 21.856C12.3291 19.1732 14.248 15.5 17.5156 15.5L38.4834 15.5C41.751 15.5 43.6709 19.1731 41.8057 21.856C41.3105 22.5679 40.498 22.9924 39.6309 22.9924L16.3682 22.9924C15.501 22.9924 14.6895 22.5679 14.1943 21.856ZM17.5156 18C16.2676 18 15.5342 19.4036 16.2471 20.4288C16.2744 20.4686 16.3193 20.4924 16.3682 20.4924L39.6309 20.4924C39.6797 20.4924 39.7246 20.4686 39.7529 20.4288C40.4658 19.4036 39.7314 18 38.4834 18L17.5156 18Z" fill-rule="evenodd" fill="#FC0C03"/>
	</g>
	<rect id="画板 384" rx="8.000000" width="55.000000" height="55.000000" transform="translate(0.500000 0.500000)" stroke="#FC0C03"/>
</svg>
