<svg width="24.000000" height="24.000000" viewBox="0 0 24 24" fill="none" xmlns="http://www.w3.org/2000/svg" xmlns:xlink="http://www.w3.org/1999/xlink">
	<desc>
			Created with Pixso.
	</desc>
	<defs>
		<clipPath id="clip1758_140682">
			<rect id="删除" width="24.000000" height="24.000000" fill="white"/>
		</clipPath>
	</defs>
	<g clip-path="url(#clip1758_140682)">
		<path id="vector (Stroke)" d="M8.75 3.75C8.75 2.23145 9.98145 1 11.5 1L12.5 1C14.0186 1 15.25 2.23145 15.25 3.75L15.25 5.25C15.25 5.66406 14.9141 6 14.5 6C14.0859 6 13.75 5.66406 13.75 5.25L13.75 3.75C13.75 3.05957 13.1904 2.5 12.5 2.5L11.5 2.5C10.8096 2.5 10.25 3.05957 10.25 3.75L10.25 5.25C10.25 5.66406 9.91406 6 9.5 6C9.08594 6 8.75 5.66406 8.75 5.25L8.75 3.75Z" fill-rule="evenodd" fill="#FFFFFF"/>
		<path id="vector (Stroke)" d="M3.75488 7.49512L20.2451 7.49512L19.0439 19.6201C18.8535 21.5381 17.2393 23 15.3115 23L8.68848 23C6.76074 23 5.14746 21.5381 4.95703 19.6201L3.75488 7.49512ZM5.41113 8.99512L6.44922 19.4717C6.56348 20.623 7.53223 21.5 8.68848 21.5L15.3115 21.5C16.4688 21.5 17.4365 20.623 17.5508 19.4717L18.5898 8.99512L5.41113 8.99512Z" fill-rule="evenodd" fill="#FFFFFF"/>
		<path id="vector (Stroke)" d="M3.7168 8.31348C2.59766 6.7041 3.75 4.5 5.70996 4.5L18.29 4.5C20.251 4.5 21.4033 6.7041 20.2842 8.31348C19.9863 8.74121 19.499 8.99512 18.9795 8.99512L5.02148 8.99512C4.50098 8.99512 4.01367 8.74121 3.7168 8.31348ZM5.70996 6C4.96094 6 4.52051 6.8418 4.94824 7.45703C4.96484 7.48145 4.99219 7.49512 5.02148 7.49512L18.9795 7.49512C19.0088 7.49512 19.0352 7.48145 19.0518 7.45703C19.4795 6.8418 19.04 6 18.29 6L5.70996 6Z" fill-rule="evenodd" fill="#FFFFFF"/>
	</g>
</svg>
