<svg width="28.000000" height="28.000000" viewBox="0 0 28 28" fill="none" xmlns="http://www.w3.org/2000/svg" xmlns:xlink="http://www.w3.org/1999/xlink">
	<desc>
			Created with Pixso.
	</desc>
	<defs>
		<clipPath id="clip2637_69082">
			<rect id="stylle=删除-默认" width="16.000000" height="16.000000" transform="translate(6.000000 6.000000)" fill="white"/>
		</clipPath>
	</defs>
	<rect id="画板 1" rx="6.000000" width="27.000000" height="27.000000" transform="translate(0.500000 0.500000)" fill="#FC0C03" fill-opacity="0.1"/>
	<g clip-path="url(#clip2637_69082)">
		<path id="vector (Stroke)" d="M11.8334 8.49994C11.8334 7.48743 12.6542 6.66663 13.6667 6.66663L14.3334 6.66663C15.3459 6.66663 16.1667 7.48743 16.1667 8.49994L16.1667 9.49994C16.1667 9.77612 15.9428 9.99994 15.6667 9.99994C15.3906 9.99994 15.1667 9.77612 15.1667 9.49994L15.1667 8.49994C15.1667 8.03973 14.7936 7.66663 14.3334 7.66663L13.6667 7.66663C13.2065 7.66663 12.8334 8.03973 12.8334 8.49994L12.8334 9.49994C12.8334 9.77612 12.6095 9.99994 12.3334 9.99994C12.0572 9.99994 11.8334 9.77612 11.8334 9.49994L11.8334 8.49994Z" fill-rule="evenodd" fill="#FC0C03"/>
		<path id="vector (Stroke)" d="M8.50305 10.9968L19.4968 10.9968L18.6955 19.0798C18.5687 20.3588 17.4929 21.3332 16.2077 21.3332L11.7922 21.3332C10.507 21.3332 9.43123 20.3588 9.30443 19.0798L8.50305 10.9968ZM9.6071 11.9968L10.2996 18.9812C10.3756 19.7485 11.0211 20.3332 11.7922 20.3332L16.2077 20.3332C16.9788 20.3332 17.6243 19.7485 17.7003 18.9812L18.3928 11.9968L9.6071 11.9968Z" fill-rule="evenodd" fill="#FC0C03"/>
		<path id="vector (Stroke)" d="M8.47774 11.5425C7.7316 10.4693 8.49953 9.00006 9.80657 9.00006L18.1934 9.00006C19.5005 9.00006 20.2684 10.4693 19.5222 11.5425C19.3243 11.8272 18.9994 11.997 18.6526 11.997L9.34742 11.997C9.00059 11.997 8.67573 11.8272 8.47774 11.5425ZM9.80657 10.0001C9.30711 10.0001 9.01366 10.5615 9.29878 10.9716C9.30986 10.9875 9.32802 10.997 9.34742 10.997L18.6526 10.997C18.672 10.997 18.6901 10.9875 18.7012 10.9716C18.9863 10.5615 18.6929 10.0001 18.1934 10.0001L9.80657 10.0001Z" fill-rule="evenodd" fill="#FC0C03"/>
	</g>
	<rect id="画板 1" rx="6.000000" width="27.000000" height="27.000000" transform="translate(0.500000 0.500000)" stroke="#FC0C03"/>
</svg>
