<svg width="28.000000" height="28.000000" viewBox="0 0 28 28" fill="none" xmlns="http://www.w3.org/2000/svg" xmlns:xlink="http://www.w3.org/1999/xlink">
	<desc>
			Created with Pixso.
	</desc>
	<defs>
		<clipPath id="clip842_13912">
			<rect id="style=添加-默认" width="16.000000" height="16.000000" transform="translate(6.000000 6.000000)" fill="white"/>
		</clipPath>
	</defs>
	<rect id="画板 1" rx="3.000000" width="27.000000" height="27.000000" transform="translate(0.500000 0.500000)" fill="#41B4CF" fill-opacity="0.1"/>
	<g clip-path="url(#clip842_13912)">
		<path id="vector (Stroke)" d="M16.6665 6.83325C19.1519 6.83325 21.1665 8.8479 21.1665 11.3333L21.1665 16.6665C21.1665 19.1519 19.1519 21.1665 16.6665 21.1665L11.333 21.1665C8.84766 21.1665 6.83301 19.1519 6.83301 16.6665L6.83301 11.3333C6.83301 8.8479 8.84766 6.83325 11.333 6.83325L16.6665 6.83325ZM20.1665 11.3333C20.1665 9.40015 18.5996 7.83325 16.6665 7.83325L11.333 7.83325C9.40039 7.83325 7.83301 9.40015 7.83301 11.3333L7.83301 16.6665C7.83301 18.5996 9.40039 20.1665 11.333 20.1665L16.6665 20.1665C18.5996 20.1665 20.1665 18.5996 20.1665 16.6665L20.1665 11.3333Z" fill-rule="evenodd" fill="#41B4CF"/>
		<path id="vector (Stroke)" d="M17.3286 14C17.3286 14.2761 17.1045 14.5 16.8286 14.5L11.1719 14.5C10.8955 14.5 10.6719 14.2761 10.6719 14C10.6719 13.7239 10.8955 13.5 11.1719 13.5L16.8286 13.5C17.1045 13.5 17.3286 13.7239 17.3286 14Z" fill-rule="evenodd" fill="#41B4CF"/>
		<path id="vector (Stroke)" d="M14 17.3335C13.7236 17.3335 13.5 17.1096 13.5 16.8335L13.5 11.1765C13.5 10.9004 13.7241 10.6765 14 10.6765C14.2764 10.6765 14.5 10.9004 14.5 11.1765L14.5 16.8335C14.5 17.1096 14.2764 17.3335 14 17.3335Z" fill-rule="evenodd" fill="#41B4CF"/>
	</g>
	<rect id="画板 1" rx="3.000000" width="27.000000" height="27.000000" transform="translate(0.500000 0.500000)" stroke="#41B4CF"/>
</svg>
