<svg width="28.000000" height="28.000000" viewBox="0 0 28 28" fill="none" xmlns="http://www.w3.org/2000/svg" xmlns:xlink="http://www.w3.org/1999/xlink">
	<desc>
			Created with Pixso.
	</desc>
	<defs>
		<clipPath id="clip1545_14610">
			<rect id="style=stroke" width="16.000000" height="16.000000" transform="translate(6.000000 6.000000)" fill="white"/>
		</clipPath>
	</defs>
	<rect id="画板 1" rx="3.000000" width="27.000000" height="27.000000" transform="translate(0.500000 0.500000)" fill="#FC0C03" fill-opacity="0.1"/>
	<g clip-path="url(#clip1545_14610)">
		<path id="path" d="M11.1963 10.5732L13.9995 13.3774L16.8032 10.5742C16.8242 10.5552 16.8467 10.5386 16.8706 10.5244C16.8945 10.5098 16.9194 10.4976 16.9458 10.4883C16.9722 10.4785 16.999 10.4712 17.0264 10.4668C17.0542 10.4624 17.082 10.4604 17.1099 10.4609C17.1382 10.4619 17.1655 10.4653 17.1929 10.4712C17.2202 10.4771 17.2466 10.4858 17.2725 10.4966C17.2983 10.5078 17.3228 10.521 17.3457 10.5371C17.3691 10.5527 17.3906 10.5703 17.4102 10.5903C17.4302 10.6099 17.4478 10.6313 17.4634 10.6548C17.479 10.6777 17.4922 10.7021 17.5034 10.728C17.5146 10.7539 17.5229 10.7803 17.5288 10.8076C17.5347 10.835 17.5381 10.8628 17.5391 10.8906C17.5396 10.9185 17.5376 10.9463 17.5332 10.9741C17.5283 11.0015 17.5215 11.0283 17.5117 11.0547C17.502 11.0811 17.4897 11.106 17.4756 11.1299C17.4609 11.1538 17.4443 11.1763 17.4253 11.1973L14.6235 14L17.4272 16.8032C17.4458 16.8242 17.4624 16.8467 17.4771 16.8706C17.4917 16.8945 17.5034 16.9194 17.5132 16.9458C17.5229 16.9722 17.5303 16.999 17.5347 17.0269C17.5391 17.0542 17.541 17.082 17.54 17.1099C17.5396 17.1382 17.5361 17.1655 17.5303 17.1929C17.5239 17.2202 17.5156 17.2466 17.5044 17.2725C17.4937 17.2983 17.48 17.3228 17.4644 17.3457C17.4487 17.3691 17.4307 17.3906 17.4111 17.4102C17.3911 17.4302 17.3696 17.4478 17.3467 17.4634C17.3232 17.479 17.2988 17.4922 17.2734 17.5034C17.2476 17.5146 17.2212 17.5229 17.1938 17.5288C17.1665 17.5347 17.1387 17.5381 17.1108 17.5391C17.0825 17.5396 17.0552 17.5376 17.0273 17.5332C16.9995 17.5283 16.9727 17.5215 16.9468 17.5117C16.9204 17.502 16.895 17.4897 16.8711 17.4756C16.8472 17.4609 16.8252 17.4443 16.8042 17.4258L13.9995 14.6235L11.1963 17.4263C11.1753 17.4453 11.1528 17.4619 11.1289 17.4761C11.105 17.4907 11.0801 17.5029 11.0537 17.5122C11.0273 17.522 11.0005 17.5293 10.9731 17.5337C10.9453 17.5381 10.9175 17.54 10.8896 17.5396C10.8613 17.5386 10.834 17.5352 10.8066 17.5293C10.7793 17.5234 10.7529 17.5146 10.7271 17.5034C10.7012 17.4927 10.6768 17.479 10.6538 17.4634C10.6304 17.4478 10.6089 17.4302 10.5894 17.4102C10.5693 17.3906 10.5518 17.3691 10.5361 17.3457C10.5205 17.3228 10.5073 17.2983 10.4961 17.2725C10.4849 17.2466 10.4766 17.2202 10.4707 17.1929C10.4648 17.1655 10.4614 17.1377 10.4604 17.1099C10.46 17.082 10.4619 17.0542 10.4663 17.0264C10.4712 16.999 10.478 16.9722 10.4878 16.9458C10.4976 16.9194 10.5098 16.8945 10.5239 16.8706C10.5386 16.8467 10.5552 16.8242 10.5742 16.8032L13.376 14L10.5732 11.1963C10.5542 11.1753 10.5376 11.1528 10.5234 11.1289C10.5088 11.105 10.4966 11.0801 10.4873 11.0537C10.4775 11.0273 10.4702 11.0005 10.4658 10.9731C10.4614 10.9453 10.4595 10.9175 10.46 10.8896C10.4609 10.8618 10.4644 10.834 10.4702 10.8066C10.4761 10.7793 10.4849 10.7529 10.4961 10.7271C10.5068 10.7012 10.5205 10.6768 10.5361 10.6538C10.5518 10.6304 10.5693 10.6094 10.5894 10.5894C10.6089 10.5698 10.6304 10.5518 10.6538 10.5361C10.6768 10.5205 10.7012 10.5073 10.7271 10.4961C10.7529 10.4849 10.7793 10.4766 10.8066 10.4707C10.834 10.4648 10.8618 10.4614 10.8896 10.4604C10.9175 10.46 10.9453 10.4619 10.9731 10.4663C11.0005 10.4712 11.0278 10.478 11.0537 10.4878C11.0801 10.4976 11.105 10.5098 11.1289 10.5239C11.1528 10.5386 11.1753 10.5542 11.1963 10.5732Z" fill-rule="nonzero" fill="#FC0C03"/>
	</g>
	<rect id="画板 1" rx="3.000000" width="27.000000" height="27.000000" transform="translate(0.500000 0.500000)" stroke="#FC0C03"/>
</svg>
