<svg width="28.000000" height="28.000000" viewBox="0 0 28 28" fill="none" xmlns="http://www.w3.org/2000/svg" xmlns:xlink="http://www.w3.org/1999/xlink">
	<desc>
			Created with Pixso.
	</desc>
	<defs>
		<clipPath id="clip842_13925">
			<rect id="stylle=删除-默认" width="16.000000" height="16.000000" transform="translate(6.000000 6.000000)" fill="white"/>
		</clipPath>
	</defs>
	<rect id="画板 1" rx="3.000000" width="27.000000" height="27.000000" transform="translate(0.500000 0.500000)" fill="#FC0C03" fill-opacity="0.1"/>
	<g clip-path="url(#clip842_13925)">
		<path id="vector (Stroke)" d="M11.8335 8.5C11.8335 7.48755 12.6543 6.66675 13.667 6.66675L14.3335 6.66675C15.3462 6.66675 16.167 7.48755 16.167 8.5L16.167 9.5C16.167 9.77612 15.9429 10 15.667 10C15.3906 10 15.167 9.77612 15.167 9.5L15.167 8.5C15.167 8.03979 14.7939 7.66675 14.3335 7.66675L13.667 7.66675C13.2065 7.66675 12.8335 8.03979 12.8335 8.5L12.8335 9.5C12.8335 9.77612 12.6099 10 12.3335 10C12.0571 10 11.8335 9.77612 11.8335 9.5L11.8335 8.5Z" fill-rule="evenodd" fill="#FC0C03"/>
		<path id="vector (Stroke)" d="M8.50293 10.9971L19.4966 10.9971L18.6953 19.0801C18.5684 20.3591 17.4927 21.3335 16.2075 21.3335L11.792 21.3335C10.5068 21.3335 9.43115 20.3591 9.3042 19.0801L8.50293 10.9971ZM9.60693 11.9971L10.2993 18.9814C10.3755 19.7488 11.021 20.3335 11.792 20.3335L16.2075 20.3335C16.9785 20.3335 17.624 19.7488 17.7002 18.9814L18.3926 11.9971L9.60693 11.9971Z" fill-rule="evenodd" fill="#FC0C03"/>
		<path id="vector (Stroke)" d="M8.47803 11.5425C7.73193 10.4692 8.5 9 9.80664 9L18.1938 9C19.5005 9 20.2686 10.4692 19.5225 11.5425C19.3247 11.8271 18.9995 11.9971 18.6528 11.9971L9.34766 11.9971C9.00098 11.9971 8.67578 11.8271 8.47803 11.5425ZM9.80664 10C9.30713 10 9.01367 10.5615 9.29883 10.9714C9.31006 10.9875 9.32812 10.9971 9.34766 10.9971L18.6528 10.9971C18.6724 10.9971 18.6904 10.9875 18.7017 10.9714C18.9868 10.5615 18.6934 10 18.1938 10L9.80664 10Z" fill-rule="evenodd" fill="#FC0C03"/>
	</g>
	<rect id="画板 1" rx="3.000000" width="27.000000" height="27.000000" transform="translate(0.500000 0.500000)" stroke="#FC0C03"/>
</svg>
