<svg width="56.000000" height="56.000000" viewBox="0 0 56 56" fill="none" xmlns="http://www.w3.org/2000/svg" xmlns:xlink="http://www.w3.org/1999/xlink">
	<desc>
			Created with Pixso.
	</desc>
	<defs>
		<clipPath id="clip12_123014">
			<rect id="style=stroke" width="40.000000" height="40.000000" transform="translate(8.000000 8.000000)" fill="white"/>
		</clipPath>
	</defs>
	<rect id="画板 384" rx="4.000000" width="54.000000" height="54.000000" transform="translate(1.000000 1.000000)" fill="#1A1D2C"/>
	<g clip-path="url(#clip12_123014)">
		<path id="vector (Stroke)" d="M40.5464 20.0283C41.0347 20.5166 41.0347 21.3076 40.5464 21.7959L27.3477 34.9941C25.5581 36.7842 22.6558 36.7842 20.8662 34.9941L15.4453 29.5742C14.957 29.0859 14.957 28.2939 15.4453 27.8057C15.9336 27.3174 16.7246 27.3174 17.2129 27.8057L22.6338 33.2266C23.4473 34.04 24.7666 34.04 25.5801 33.2266L38.7783 20.0283C39.2666 19.54 40.0581 19.54 40.5464 20.0283Z" fill-rule="evenodd" fill="#2AE304"/>
	</g>
	<rect id="画板 384" rx="4.000000" width="54.000000" height="54.000000" transform="translate(1.000000 1.000000)" stroke="#2AE304" stroke-width="2.000000"/>
</svg>
