<svg width="28.000000" height="28.000000" viewBox="0 0 28 28" fill="none" xmlns="http://www.w3.org/2000/svg" xmlns:xlink="http://www.w3.org/1999/xlink">
	<desc>
			Created with Pixso.
	</desc>
	<defs/>
	<rect id="画板 1" rx="6.000000" width="27.000000" height="27.000000" transform="translate(0.500000 0.500000)" fill="#538FFF" fill-opacity="0.1"/>
	<path id="path" d="M8.51866 19.4987C7.96292 18.9397 7.68505 18.266 7.68505 17.4777C7.68505 16.6895 7.96292 16.0158 8.51866 15.4567L11.046 12.9314C11.2818 12.6956 11.5175 12.6956 11.7533 12.9314C11.9891 13.1672 11.9891 13.403 11.7533 13.6387L9.22599 16.1641C8.87213 16.5283 8.69703 16.9644 8.7007 17.4722C8.70437 17.98 8.88576 18.4135 9.24485 18.7725C9.60394 19.1317 10.0374 19.313 10.5452 19.3167C11.053 19.3204 11.4891 19.1453 11.8533 18.7914L14.3787 16.2661C14.6144 16.0301 14.8503 16.03 15.0863 16.2657C15.3223 16.5015 15.3224 16.7374 15.0867 16.9734L12.5607 19.4987C12.0016 20.0543 11.3281 20.332 10.54 20.332C9.7519 20.332 9.07767 20.0543 8.51866 19.4987ZM15.6347 19.826L15.6347 17.7727C15.6347 17.4394 15.8013 17.2727 16.1347 17.2727C16.468 17.2727 16.6347 17.4394 16.6347 17.7727L16.6347 19.826C16.6347 20.1594 16.468 20.326 16.1347 20.326C15.8013 20.326 15.6347 20.1594 15.6347 19.826ZM18.7567 19.4894L17.3067 18.0374C17.0921 17.8025 17.0972 17.5724 17.3218 17.3472C17.5464 17.1219 17.7765 17.1162 18.012 17.3301L19.466 18.782C19.6963 19.0182 19.6947 19.2529 19.4612 19.4859C19.2277 19.7189 18.9924 19.7201 18.7567 19.4894ZM17.7473 16.66C17.4308 16.6437 17.2725 16.4771 17.2725 16.16C17.2725 15.8431 17.4308 15.6764 17.7473 15.66L19.8007 15.66C20.1172 15.6764 20.2755 15.8431 20.2755 16.16C20.2755 16.4771 20.1172 16.6437 19.8007 16.66L17.7473 16.66ZM16.2807 15.0674C16.0436 14.8323 16.0436 14.5972 16.2807 14.3621L18.806 11.8347C19.1579 11.4705 19.3317 11.0352 19.3273 10.5287C19.3229 10.0222 19.1417 9.58997 18.7836 9.23181C18.4254 8.87372 17.9932 8.69244 17.4867 8.68811C16.9803 8.68372 16.5449 8.85748 16.1807 9.20941L13.6553 11.7347C13.4195 11.9705 13.1837 11.9705 12.9479 11.7349C12.712 11.4992 12.7118 11.2634 12.9473 11.0274L15.4733 8.50208C16.0324 7.94635 16.706 7.66846 17.4943 7.66846C18.2826 7.66846 18.9563 7.94635 19.5153 8.50208C20.0719 9.06042 20.3501 9.7337 20.3501 10.522C20.3501 11.3104 20.0719 11.9837 19.5153 12.5421L16.988 15.0674C16.7522 15.3046 16.5164 15.3046 16.2807 15.0674ZM8.14733 12.3401C7.83077 12.3237 7.67249 12.157 7.67249 11.8401C7.67249 11.5231 7.83077 11.3564 8.14733 11.3401L10.2007 11.3401C10.5172 11.3564 10.6755 11.5231 10.6755 11.8401C10.6755 12.157 10.5172 12.3237 10.2007 12.3401L8.14733 12.3401ZM9.93466 10.6687L8.48266 9.21674C8.24725 8.98096 8.24734 8.74524 8.48293 8.50964C8.71853 8.27405 8.95422 8.27399 9.18999 8.5094L10.642 9.96143C10.8778 10.1971 10.8778 10.4329 10.642 10.6687C10.4062 10.9045 10.1704 10.9045 9.93466 10.6687ZM11.3133 10.2261L11.3133 8.17273C11.3133 7.83942 11.48 7.67273 11.8133 7.67273C12.1467 7.67273 12.3133 7.83942 12.3133 8.17273L12.3133 10.2261C12.3133 10.5594 12.1467 10.7261 11.8133 10.7261C11.48 10.7261 11.3133 10.5594 11.3133 10.2261Z" fill-rule="nonzero" fill="#538FFF"/>
	<path id="path" d="M7.53505 17.4777C7.53505 16.6482 7.82746 15.9393 8.41228 15.351L10.94 12.8253C11.0871 12.6782 11.2404 12.6046 11.3997 12.6046C11.559 12.6046 11.7122 12.6782 11.8594 12.8253C12.0066 12.9725 12.0802 13.1257 12.0802 13.285C12.0802 13.4444 12.0066 13.5976 11.8594 13.7448L9.33202 16.2701C9.00776 16.6039 8.84732 17.0043 8.8507 17.4711C8.85407 17.9379 9.02081 18.3364 9.35092 18.6664C9.68102 18.9966 10.0795 19.1633 10.5463 19.1667C11.0131 19.17 11.414 19.0091 11.7488 18.6838L14.2726 16.16C14.4197 16.0128 14.573 15.9391 14.7323 15.939C14.8917 15.9389 15.045 16.0125 15.1923 16.1596C15.3396 16.3068 15.4133 16.46 15.4134 16.6194C15.4135 16.7787 15.3399 16.9321 15.1928 17.0794L12.6667 19.6048C12.0782 20.1896 11.3693 20.482 10.54 20.482C9.71021 20.482 9.00119 20.1897 8.41293 19.6051C7.82768 19.0164 7.53505 18.3073 7.53505 17.4777L7.53505 17.4777ZM7.83505 17.4777C7.83505 18.2247 8.09817 18.863 8.62439 19.3923C9.15416 19.9188 9.79269 20.182 10.54 20.182C11.2869 20.182 11.9251 19.9189 12.4546 19.3926L14.9805 16.8674C15.0692 16.7787 15.1134 16.696 15.1134 16.6196C15.1134 16.543 15.069 16.4604 14.9803 16.3718C14.8916 16.2832 14.809 16.239 14.7325 16.239C14.656 16.239 14.5734 16.2834 14.4847 16.3721L11.9578 18.899C11.5642 19.2814 11.093 19.4706 10.5441 19.4667C9.99532 19.4627 9.52687 19.2667 9.13878 18.8786C8.7507 18.4905 8.55468 18.0221 8.55071 17.4733C8.54674 16.9244 8.73649 16.4527 9.11997 16.058L11.6473 13.5327C11.7359 13.4441 11.7802 13.3615 11.7802 13.285C11.7802 13.2086 11.7359 13.126 11.6473 13.0375C11.5587 12.9489 11.4761 12.9045 11.3997 12.9045C11.3232 12.9045 11.2406 12.9489 11.152 13.0375L8.62504 15.5625C8.09838 16.0923 7.83505 16.7307 7.83505 17.4777L7.83505 17.4777ZM15.4847 17.7727C15.4847 17.5646 15.541 17.4043 15.6536 17.2917C15.7662 17.179 15.9266 17.1227 16.1347 17.1227C16.3427 17.1227 16.5031 17.179 16.6157 17.2917C16.7283 17.4043 16.7847 17.5646 16.7847 17.7727L16.7847 19.826C16.7847 20.0342 16.7283 20.1945 16.6157 20.3071C16.5031 20.4197 16.3427 20.4761 16.1347 20.4761C15.9266 20.4761 15.7662 20.4197 15.6536 20.3071C15.541 20.1945 15.4847 20.0342 15.4847 19.826L15.4847 17.7727ZM15.7847 17.7727L15.7847 19.826C15.7847 19.9513 15.8117 20.041 15.8657 20.095C15.9198 20.149 16.0094 20.1761 16.1347 20.1761C16.2599 20.1761 16.3496 20.149 16.4036 20.095C16.4576 20.041 16.4847 19.9513 16.4847 19.826L16.4847 17.7727C16.4847 17.6475 16.4576 17.5579 16.4036 17.5038C16.3496 17.4498 16.2599 17.4227 16.1347 17.4227C16.0094 17.4227 15.9198 17.4498 15.8657 17.5038C15.8117 17.5579 15.7847 17.6475 15.7847 17.7727ZM17.1959 18.1385C17.0616 17.9915 16.9962 17.8405 16.9996 17.6854C17.003 17.5303 17.075 17.3823 17.2156 17.2413C17.3562 17.1003 17.504 17.0278 17.6591 17.024C17.8142 17.0201 17.9654 17.0851 18.1128 17.219L18.1155 17.2214L19.572 18.6759C19.7167 18.8244 19.7886 18.9778 19.7875 19.1362C19.7864 19.2946 19.713 19.4465 19.5672 19.5921C19.4213 19.7376 19.2691 19.8108 19.1105 19.8116C18.9519 19.8123 18.799 19.7407 18.6517 19.5966L17.1982 18.1411L17.1959 18.1385ZM17.4174 17.9362L17.3067 18.0374L17.4128 17.9314L18.8616 19.3822C18.9501 19.4688 19.0326 19.512 19.109 19.5115C19.1855 19.5112 19.2676 19.4672 19.3552 19.3798C19.4429 19.2922 19.487 19.2104 19.4875 19.1342C19.488 19.0579 19.4455 18.976 19.36 18.8882L17.906 17.4362L18.012 17.3301L17.9112 17.4411C17.8231 17.3611 17.7415 17.322 17.6665 17.3239C17.5916 17.3257 17.5121 17.3688 17.428 17.4531C17.344 17.5374 17.3012 17.617 17.2995 17.692C17.2979 17.767 17.3372 17.8484 17.4174 17.9362ZM17.1225 16.16C17.1225 15.9617 17.1758 15.8063 17.2824 15.694C17.3891 15.5817 17.5414 15.5205 17.7396 15.5103L17.7435 15.5101L19.8045 15.5101L19.8084 15.5103C20.0065 15.5205 20.1589 15.5817 20.2656 15.694C20.3722 15.8063 20.4255 15.9617 20.4255 16.16C20.4255 16.3585 20.3722 16.5138 20.2656 16.6261C20.1589 16.7384 20.0065 16.7996 19.8084 16.8099L19.8045 16.8101L17.7434 16.8101L17.7396 16.8099C17.5414 16.7996 17.3891 16.7384 17.2824 16.6261C17.1758 16.5138 17.1225 16.3585 17.1225 16.16ZM17.4225 16.16C17.4225 16.2786 17.4483 16.3651 17.5 16.4195C17.5516 16.4739 17.6367 16.5042 17.7551 16.5103L17.7473 16.66L17.7473 16.5101L19.8007 16.5101L19.8007 16.66L19.7929 16.5103C19.9113 16.5042 19.9964 16.4739 20.048 16.4195C20.0997 16.3651 20.1255 16.2786 20.1255 16.16C20.1255 16.0415 20.0997 15.955 20.048 15.9006C19.9964 15.8463 19.9113 15.816 19.7929 15.8099L19.8007 15.66L19.8007 15.8101L17.7473 15.8101L17.7473 15.66L17.7551 15.8099C17.6367 15.816 17.5516 15.8463 17.5 15.9006C17.4483 15.955 17.4225 16.0415 17.4225 16.16ZM16.1746 14.256L18.6999 11.7287C19.0222 11.3951 19.1813 10.9955 19.1773 10.53C19.1733 10.0645 19.0067 9.66705 18.6775 9.33789C18.3483 9.00867 17.9509 8.8421 17.4854 8.83807C17.0199 8.83405 16.6197 8.99377 16.2849 9.31726L13.7614 11.8408C13.6142 11.9879 13.461 12.0615 13.3017 12.0615C13.1423 12.0616 12.9891 11.988 12.8419 11.8409C12.6946 11.6939 12.621 11.5407 12.6208 11.3813C12.6207 11.222 12.6942 11.0687 12.8411 10.9214L15.3673 8.396C15.9558 7.81097 16.6648 7.51843 17.4943 7.51843C18.3238 7.51843 19.0328 7.81085 19.6211 8.39569C20.2071 8.98358 20.5001 9.69238 20.5001 10.522C20.5001 11.3517 20.2073 12.0604 19.6216 12.6479L17.094 15.1735C16.947 15.3214 16.7938 15.3953 16.6343 15.3953C16.4748 15.3953 16.3215 15.3212 16.1743 15.1732C16.0267 15.0267 15.9528 14.874 15.9528 14.7147C15.9528 14.5555 16.0269 14.4025 16.175 14.2556L16.1746 14.256ZM16.3863 14.4686C16.2973 14.5568 16.2528 14.6389 16.2528 14.7147C16.2528 14.7906 16.2976 14.8729 16.387 14.9617C16.4756 15.0507 16.558 15.0953 16.6343 15.0953C16.7106 15.0953 16.7932 15.0506 16.882 14.9613L19.4091 12.4362C19.9364 11.9071 20.2001 11.269 20.2001 10.522C20.2001 9.77509 19.9366 9.13721 19.4096 8.60846C18.8798 8.08179 18.2414 7.81848 17.4943 7.81848C16.7473 7.81848 16.109 8.08167 15.5794 8.60815L13.0535 11.1334C12.965 11.222 12.9208 11.3046 12.9208 11.3812C12.9209 11.4576 12.9652 11.5402 13.0539 11.6287C13.1425 11.7173 13.2251 11.7615 13.3016 11.7615C13.3781 11.7615 13.4607 11.7172 13.5493 11.6287L16.0764 9.1015C16.4701 8.72119 16.9406 8.53339 17.488 8.53809C18.0354 8.54279 18.5026 8.73871 18.8896 9.12573C19.2767 9.51282 19.4726 9.98004 19.4773 10.5274C19.482 11.0748 19.2936 11.5459 18.9121 11.9407L16.3868 14.4681L16.3863 14.4686ZM7.52249 11.8401C7.52249 11.6417 7.5758 11.4863 7.68243 11.374C7.78906 11.2618 7.94144 11.2005 8.13959 11.1902L8.14346 11.1901L10.2045 11.1901L10.2084 11.1902C10.4065 11.2005 10.5589 11.2618 10.6656 11.374C10.7722 11.4863 10.8255 11.6417 10.8255 11.8401C10.8255 12.0385 10.7722 12.1938 10.6656 12.3061C10.5589 12.4184 10.4065 12.4796 10.2084 12.4899L10.2045 12.4901L8.14346 12.4901L8.13959 12.4899C7.94144 12.4796 7.78906 12.4184 7.68243 12.3061C7.5758 12.1938 7.52249 12.0385 7.52249 11.8401ZM7.82249 11.8401C7.82249 11.9586 7.84831 12.0451 7.89996 12.0995C7.95161 12.1539 8.03665 12.1841 8.15506 12.1902L8.14733 12.3401L8.14733 12.1901L10.2007 12.1901L10.2007 12.3401L10.1929 12.1902C10.3113 12.1841 10.3964 12.1539 10.448 12.0995C10.4997 12.0451 10.5255 11.9586 10.5255 11.8401C10.5255 11.7215 10.4997 11.635 10.448 11.5806C10.3964 11.5262 10.3113 11.496 10.1929 11.4899L10.2007 11.3401L10.2007 11.4901L8.14733 11.4901L8.14733 11.3401L8.15506 11.4899C8.03665 11.496 7.95161 11.5262 7.89996 11.5806C7.84831 11.635 7.82249 11.7215 7.82249 11.8401ZM8.37651 9.32269C8.22955 9.17554 8.15611 9.02234 8.15617 8.8631C8.15623 8.70386 8.2298 8.55066 8.37687 8.40363C8.52394 8.25653 8.6771 8.18298 8.83634 8.18292C8.99558 8.18286 9.14879 8.25629 9.29598 8.40326L10.7481 9.85535C10.8952 10.0025 10.9688 10.1558 10.9688 10.3151C10.9688 10.4744 10.8952 10.6276 10.7481 10.7748C10.6009 10.922 10.4476 10.9955 10.2883 10.9955C10.129 10.9955 9.97577 10.922 9.82859 10.7748L8.37659 9.32281L8.37651 9.32269ZM8.58873 9.11066L10.0407 10.5627C10.1293 10.6512 10.2119 10.6956 10.2883 10.6956C10.3648 10.6956 10.4473 10.6512 10.5359 10.5627C10.6245 10.4741 10.6688 10.3915 10.6688 10.3151C10.6688 10.2386 10.6245 10.1561 10.5359 10.0674L9.08401 8.61554C8.99542 8.5271 8.9129 8.48285 8.83645 8.48291C8.76001 8.48291 8.67752 8.52722 8.589 8.61572C8.50047 8.70428 8.4562 8.78674 8.45617 8.86316C8.45614 8.93964 8.50035 9.02216 8.58881 9.11072L8.58873 9.11066ZM11.1633 8.17273C11.1633 7.96466 11.2196 7.80426 11.3323 7.69165C11.4449 7.57904 11.6052 7.52271 11.8133 7.52271C12.0214 7.52271 12.1818 7.57904 12.2944 7.69165C12.407 7.80426 12.4633 7.96466 12.4633 8.17273L12.4633 10.2261C12.4633 10.4341 12.407 10.5945 12.2944 10.7072C12.1818 10.8198 12.0214 10.876 11.8133 10.876C11.6052 10.876 11.4449 10.8198 11.3323 10.7072C11.2196 10.5945 11.1633 10.4341 11.1633 10.2261L11.1633 8.17273ZM11.4633 8.17273L11.4633 10.2261C11.4633 10.3513 11.4903 10.441 11.5444 10.495C11.5984 10.549 11.6881 10.576 11.8133 10.576C11.9386 10.576 12.0282 10.549 12.0823 10.495C12.1363 10.441 12.1633 10.3513 12.1633 10.2261L12.1633 8.17273C12.1633 8.04749 12.1363 7.95782 12.0823 7.90381C12.0282 7.84973 11.9386 7.82275 11.8133 7.82275C11.6881 7.82275 11.5984 7.84973 11.5444 7.90381C11.4903 7.95782 11.4633 8.04749 11.4633 8.17273Z" fill-rule="evenodd" fill="#538FFF"/>
	<rect id="画板 1" rx="6.000000" width="27.000000" height="27.000000" transform="translate(0.500000 0.500000)" stroke="#538FFF"/>
</svg>
