<svg width="28.000000" height="28.000000" viewBox="0 0 28 28" fill="none" xmlns="http://www.w3.org/2000/svg" xmlns:xlink="http://www.w3.org/1999/xlink">
	<desc>
			Created with Pixso.
	</desc>
	<defs/>
	<rect id="画板 1" rx="6.000000" width="27.000000" height="27.000000" transform="translate(0.500000 0.500000)" fill="#2AE304" fill-opacity="0.1"/>
	<path id="path" d="M11.526 20C9.57764 20 8 18.4209 8 16.474C8 15.5391 8.37073 14.6434 9.03235 13.9818L10.7089 12.3054C10.8804 12.1338 11.1595 12.1323 11.3325 12.3054C11.5042 12.4769 11.5056 12.7561 11.3325 12.9292L9.65466 14.6041C8.62231 15.6365 8.62231 17.3115 9.65466 18.3439C10.6855 19.3748 12.3635 19.3748 13.3944 18.3439L15.0708 16.6674C15.2424 16.4958 15.5216 16.4958 15.6946 16.6674C15.8662 16.839 15.8662 17.1182 15.6946 17.2911L14.0181 18.9662C13.358 19.6306 12.4609 20.0015 11.526 20Z" fill-rule="nonzero" fill="#2AE304"/>
	<path id="path" d="M8 16.474C8 15.5391 8.37073 14.6434 9.03235 13.9818L10.7089 12.3054C10.8804 12.1338 11.1595 12.1323 11.3325 12.3054C11.5042 12.4769 11.5056 12.7561 11.3325 12.9292L9.65466 14.6041C8.62231 15.6365 8.62231 17.3115 9.65466 18.3439C10.6855 19.3748 12.3635 19.3748 13.3944 18.3439L15.0708 16.6674C15.2424 16.4958 15.5216 16.4958 15.6946 16.6674C15.8662 16.839 15.8662 17.1182 15.6946 17.2911L14.0181 18.9662C13.358 19.6306 12.4609 20.0015 11.526 20C9.57764 20 8 18.4209 8 16.474Z" stroke="#2AE304" stroke-width="0.300000"/>
	<path id="path" d="M17.0148 15.7877C16.7719 15.7877 16.5742 15.5914 16.5742 15.3472C16.5742 15.2294 16.6207 15.1174 16.7036 15.0345L18.38 13.3582C19.4182 12.3315 19.4283 10.658 18.4033 9.61841C17.3782 8.57874 15.7032 8.57007 14.6636 9.59509L12.9639 11.2963C12.7924 11.4679 12.5132 11.4679 12.3401 11.2963C12.1686 11.1248 12.1686 10.8456 12.3401 10.6726L14.0166 8.99609C15.3993 7.65405 17.6036 7.67004 18.9661 9.03247C20.3284 10.3949 20.3444 12.5991 19.0023 13.9818L17.3274 15.6583C17.2445 15.7412 17.1324 15.7877 17.0148 15.7877Z" fill-rule="nonzero" fill="#2AE304"/>
	<path id="path" d="M16.5742 15.3472C16.5742 15.2294 16.6207 15.1174 16.7036 15.0345L18.38 13.3582C19.4182 12.3315 19.4283 10.658 18.4033 9.61841C17.3782 8.57874 15.7032 8.57007 14.6636 9.59509L12.9639 11.2963C12.7924 11.4679 12.5132 11.4679 12.3401 11.2963C12.1686 11.1248 12.1686 10.8456 12.3401 10.6726L14.0166 8.99609C15.3993 7.65405 17.6036 7.67004 18.9661 9.03247C20.3284 10.3949 20.3444 12.5991 19.0023 13.9818L17.3274 15.6583C17.2445 15.7412 17.1324 15.7877 17.0148 15.7877C16.7719 15.7877 16.5742 15.5914 16.5742 15.3472Z" stroke="#2AE304" stroke-width="0.300000"/>
	<path id="path" d="M12.1482 16.2924C11.9054 16.2924 11.7076 16.0946 11.7076 15.8517C11.7076 15.7355 11.7542 15.6234 11.837 15.5405L15.5768 11.8009C15.7527 11.6322 16.0319 11.6381 16.2006 11.814C16.3634 11.9841 16.3634 12.2531 16.2006 12.4232L12.4594 16.1628C12.3765 16.2457 12.2645 16.2924 12.1482 16.2924Z" fill-rule="nonzero" fill="#2AE304"/>
	<path id="path" d="M11.7076 15.8517C11.7076 15.7355 11.7542 15.6234 11.837 15.5405L15.5768 11.8009C15.7527 11.6322 16.0319 11.6381 16.2006 11.814C16.3634 11.9841 16.3634 12.2531 16.2006 12.4232L12.4594 16.1628C12.3765 16.2457 12.2645 16.2924 12.1482 16.2924C11.9054 16.2924 11.7076 16.0946 11.7076 15.8517Z" stroke="#2AE304" stroke-width="0.300000"/>
	<rect id="画板 1" rx="6.000000" width="27.000000" height="27.000000" transform="translate(0.500000 0.500000)" stroke="#2AE304"/>
</svg>
