<svg width="44.000000" height="44.000000" viewBox="0 0 44 44" fill="none" xmlns="http://www.w3.org/2000/svg" xmlns:xlink="http://www.w3.org/1999/xlink">
	<desc>
			Created with Pixso.
	</desc>
	<defs>
		<clipPath id="clip398_17452">
			<rect id="属性 1=stoke" width="24.000000" height="24.000000" transform="translate(10.000000 10.000000)" fill="white" fill-opacity="0"/>
		</clipPath>
	</defs>
	<rect id="画板 1" rx="5.500000" width="43.000000" height="43.000000" transform="translate(0.500000 0.500000)" fill="#47CCFF" fill-opacity="0.100000"/>
	<g clip-path="url(#clip398_17452)">
		<path id="path" d="M30.71 12L27 12L27 13.23L30.69 13.23L30.69 30.76L13.3 30.76L13.3 13.23L16.99 13.23L16.99 12L13.29 12C12.58 12 12 12.55 12 13.22L12 30.77C12 31.44 12.58 32 13.29 32L30.7 32C31.41 32 32 31.44 32 30.77L32 13.22C32 12.55 31.41 12 30.71 12Z" fill="#47CCFF" fill-opacity="1.000000" fill-rule="nonzero"/>
		<path id="path" d="M24.05 15.09L19.86 15.09C18.75 15.09 17.86 14.18 17.86 13.04C17.86 11.91 18.75 11 19.86 11L24.05 11C25.15 11 26.05 11.91 26.05 13.04C26.05 14.17 25.15 15.09 24.05 15.09ZM15.5 18.29L22.02 18.29L22.02 19.58L15.5 19.58L15.5 18.29ZM15.5 22.49L25.25 22.49L25.25 23.79L15.5 23.79L15.5 22.49ZM15.5 26.7L28.5 26.7L28.5 28L15.5 28L15.5 26.7Z" fill="#47CCFF" fill-opacity="1.000000" fill-rule="nonzero"/>
	</g>
	<rect id="画板 1" rx="5.500000" width="43.000000" height="43.000000" transform="translate(0.500000 0.500000)" stroke="#47CCFF" stroke-opacity="1.000000" stroke-width="1.000000"/>
</svg>
