<svg width="28.000000" height="28.000000" viewBox="0 0 28 28" fill="none" xmlns="http://www.w3.org/2000/svg" xmlns:xlink="http://www.w3.org/1999/xlink">
	<desc>
			Created with Pixso.
	</desc>
	<defs>
		<clipPath id="clip888_21927">
			<rect id="stylle=删除-默认" width="16.000000" height="16.000000" transform="translate(6.000000 6.000000)" fill="white"/>
		</clipPath>
	</defs>
	<rect id="画板 1" rx="3.000000" width="27.000000" height="27.000000" transform="translate(0.500000 0.500000)" fill="#FC0C03" fill-opacity="0.1"/>
	<g clip-path="url(#clip888_21927)">
		<path id="vector (Stroke)" d="M11.8333 8.5C11.8333 7.4873 12.6541 6.6665 13.6665 6.6665L14.3333 6.6665C15.3457 6.6665 16.1665 7.4873 16.1665 8.5L16.1665 9.5C16.1665 9.77588 15.9426 10 15.6665 10C15.3904 10 15.1665 9.77588 15.1665 9.5L15.1665 8.5C15.1665 8.03955 14.7935 7.6665 14.3333 7.6665L13.6665 7.6665C13.2063 7.6665 12.8333 8.03955 12.8333 8.5L12.8333 9.5C12.8333 9.77588 12.6094 10 12.3333 10C12.0571 10 11.8333 9.77588 11.8333 9.5L11.8333 8.5Z" fill-rule="evenodd" fill="#FC0C03"/>
		<path id="vector (Stroke)" d="M8.50293 10.9971L19.4968 10.9971L18.6953 19.0801C18.5686 20.3589 17.4927 21.3335 16.2075 21.3335L11.7922 21.3335C10.5068 21.3335 9.43115 20.3589 9.3042 19.0801L8.50293 10.9971ZM9.60693 11.9971L10.2993 18.9814C10.3755 19.749 11.021 20.3335 11.7922 20.3335L16.2075 20.3335C16.9788 20.3335 17.624 19.749 17.7002 18.9814L18.3926 11.9971L9.60693 11.9971Z" fill-rule="evenodd" fill="#FC0C03"/>
		<path id="vector (Stroke)" d="M8.47754 11.5425C7.73145 10.4692 8.49927 9 9.8064 9L18.1931 9C19.5002 9 20.2681 10.4692 19.522 11.5425C19.324 11.8271 18.9993 11.9971 18.6523 11.9971L9.34717 11.9971C9.00024 11.9971 8.67554 11.8271 8.47754 11.5425ZM9.8064 10C9.30688 10 9.01343 10.5615 9.29858 10.9717C9.30957 10.9873 9.32788 10.9971 9.34717 10.9971L18.6523 10.9971C18.6716 10.9971 18.6899 10.9873 18.7009 10.9717C18.9861 10.5615 18.6926 10 18.1931 10L9.8064 10Z" fill-rule="evenodd" fill="#FC0C03"/>
	</g>
	<rect id="画板 1" rx="3.000000" width="27.000000" height="27.000000" transform="translate(0.500000 0.500000)" stroke="#FC0C03"/>
</svg>
