<svg width="56.000000" height="56.000000" viewBox="0 0 56 56" fill="none" xmlns="http://www.w3.org/2000/svg" xmlns:xlink="http://www.w3.org/1999/xlink">
	<desc>
			Created with Pixso.
	</desc>
	<defs>
		<clipPath id="clip3235_208817">
			<rect id="机床设备" width="38.000000" height="38.000000" transform="translate(9.000000 9.000000)" fill="white" fill-opacity="0"/>
		</clipPath>
	</defs>
	<rect id="画板 384" rx="7.500000" width="55.000000" height="55.000000" transform="translate(0.500000 0.500000)" fill="#1A1D2C" fill-opacity="1.000000"/>
	<g clip-path="url(#clip3235_208817)">
		<path id="path" d="M14.51 43.32L14.51 41.96C14.51 41.88 14.52 41.8 14.54 41.72C14.55 41.64 14.57 41.57 14.6 41.49C14.64 41.42 14.67 41.35 14.72 41.28C14.76 41.22 14.81 41.16 14.87 41.1C14.92 41.04 14.99 40.99 15.05 40.95C15.12 40.91 15.19 40.87 15.26 40.84C15.34 40.81 15.41 40.78 15.49 40.77C15.57 40.75 15.65 40.74 15.73 40.74C15.81 40.74 15.88 40.75 15.96 40.77C16.04 40.78 16.12 40.81 16.19 40.84C16.26 40.87 16.33 40.91 16.4 40.95C16.47 40.99 16.53 41.04 16.58 41.1C16.64 41.16 16.69 41.22 16.73 41.28C16.78 41.35 16.82 41.42 16.85 41.49C16.88 41.57 16.9 41.64 16.92 41.72C16.93 41.8 16.94 41.88 16.94 41.96L16.94 43.32C16.94 43.53 16.89 43.72 16.8 43.9C16.71 44.06 16.59 44.19 16.45 44.3C16.3 44.41 16.14 44.48 15.96 44.51C15.87 44.53 15.79 44.54 15.7 44.54C15.61 44.53 15.52 44.52 15.43 44.5C15.34 44.48 15.26 44.45 15.18 44.41C15.1 44.37 15.03 44.32 14.96 44.26C14.89 44.2 14.83 44.14 14.77 44.07C14.71 44 14.67 43.92 14.63 43.84C14.59 43.76 14.56 43.68 14.54 43.59C14.52 43.5 14.51 43.41 14.51 43.32ZM18.77 42.56L17.81 41.6C17.7 41.49 17.61 41.35 17.55 41.21C17.49 41.06 17.46 40.9 17.46 40.74C17.46 40.54 17.5 40.35 17.6 40.17C17.72 39.96 17.88 39.79 18.1 39.67C18.19 39.62 18.3 39.58 18.4 39.56C18.51 39.54 18.62 39.53 18.73 39.53C18.84 39.54 18.95 39.56 19.05 39.59C19.15 39.63 19.25 39.67 19.34 39.74C19.41 39.78 19.47 39.83 19.53 39.89L20.49 40.85C20.62 40.98 20.71 41.13 20.78 41.3C20.84 41.47 20.86 41.64 20.84 41.83C20.83 41.94 20.8 42.06 20.75 42.17C20.64 42.44 20.46 42.64 20.2 42.77C19.99 42.89 19.76 42.94 19.51 42.91C19.23 42.88 18.98 42.77 18.77 42.56ZM10.97 42.56C10.79 42.39 10.68 42.18 10.63 41.94C10.62 41.84 10.61 41.75 10.61 41.65C10.62 41.55 10.63 41.45 10.66 41.35C10.69 41.26 10.73 41.17 10.79 41.08C10.84 41 10.9 40.92 10.97 40.85L11.93 39.89C12.14 39.68 12.38 39.57 12.67 39.54C12.91 39.51 13.14 39.56 13.36 39.67C13.54 39.77 13.68 39.9 13.8 40.07C13.89 40.2 13.95 40.35 13.98 40.51C14.01 40.66 14.01 40.82 13.98 40.98C13.93 41.22 13.82 41.43 13.65 41.6L12.68 42.56C12.57 42.68 12.44 42.76 12.29 42.83C12.14 42.89 11.99 42.92 11.83 42.92C11.62 42.92 11.43 42.87 11.26 42.78C11.15 42.72 11.05 42.65 10.97 42.56ZM25.09 41.7C24.89 41.7 24.7 41.66 24.52 41.56C24.36 41.48 24.23 41.36 24.12 41.21C24.01 41.07 23.94 40.91 23.9 40.73C23.89 40.64 23.88 40.55 23.88 40.46C23.88 40.37 23.89 40.28 23.92 40.2C23.94 40.11 23.97 40.03 24.01 39.95C24.05 39.87 24.1 39.79 24.16 39.72C24.21 39.65 24.28 39.59 24.35 39.54C24.42 39.48 24.49 39.43 24.57 39.4C24.65 39.36 24.74 39.33 24.83 39.31C24.91 39.29 25 39.28 25.09 39.28L42.85 39.28C42.97 39.28 43.08 39.27 43.19 39.25C43.3 39.22 43.41 39.19 43.51 39.15C43.62 39.1 43.72 39.05 43.81 38.99C43.9 38.92 43.99 38.85 44.07 38.77C44.15 38.69 44.22 38.61 44.29 38.51C44.35 38.42 44.4 38.32 44.44 38.22C44.49 38.11 44.52 38 44.54 37.89C44.56 37.78 44.58 37.67 44.58 37.56L44.58 21.3L20.01 21.3L20.01 30.88C20.01 31.04 19.99 31.18 19.93 31.33C19.87 31.47 19.79 31.6 19.69 31.71L17 34.58L17 37.65C17 37.86 16.95 38.05 16.86 38.23C16.77 38.39 16.66 38.52 16.51 38.63C16.37 38.74 16.2 38.81 16.03 38.84C15.94 38.86 15.85 38.87 15.76 38.87C15.67 38.86 15.58 38.85 15.5 38.83C15.41 38.81 15.32 38.78 15.24 38.74C15.16 38.7 15.09 38.65 15.02 38.59C14.95 38.53 14.89 38.47 14.83 38.4C14.78 38.33 14.73 38.25 14.69 38.17C14.65 38.09 14.63 38.01 14.61 37.92C14.59 37.83 14.58 37.74 14.58 37.65L14.58 34.58L11.89 31.71C11.79 31.6 11.71 31.47 11.65 31.33C11.59 31.18 11.57 31.04 11.57 30.88L11.57 12.67C11.57 12.6 11.57 12.53 11.58 12.46C11.6 12.39 11.61 12.32 11.64 12.26C11.66 12.19 11.69 12.13 11.72 12.07C11.76 12.01 11.8 11.95 11.84 11.9C11.89 11.84 11.94 11.79 11.99 11.75C12.04 11.7 12.1 11.66 12.16 11.63C12.22 11.59 12.28 11.56 12.35 11.53C12.41 11.51 12.48 11.49 12.55 11.48C12.62 11.46 12.7 11.45 12.78 11.45L18.82 11.45C18.89 11.45 18.97 11.46 19.05 11.48C19.13 11.49 19.21 11.51 19.28 11.55C19.35 11.58 19.42 11.61 19.49 11.66C19.56 11.7 19.62 11.75 19.67 11.81C19.73 11.86 19.78 11.93 19.83 11.99C19.87 12.06 19.91 12.13 19.94 12.2C19.97 12.28 19.99 12.35 20.01 12.43C20.02 12.51 20.03 12.59 20.03 12.67L20.03 13.18L42.86 13.18C43.15 13.18 43.44 13.21 43.72 13.27C44 13.33 44.27 13.41 44.54 13.53C44.8 13.65 45.05 13.79 45.29 13.96C45.52 14.13 45.73 14.32 45.93 14.54C46.25 14.89 46.5 15.29 46.68 15.74C46.89 16.24 47 16.77 47 17.32L47 37.56C47 37.9 46.95 38.23 46.87 38.56C46.79 38.9 46.66 39.21 46.5 39.51C46.34 39.81 46.15 40.09 45.92 40.34C45.69 40.59 45.43 40.82 45.15 41C44.69 41.31 44.19 41.52 43.66 41.62C43.39 41.68 43.12 41.7 42.85 41.7L25.09 41.7ZM13.99 30.41L15.79 32.34L17.59 30.41L17.59 13.88L13.99 13.88L13.99 30.41ZM20.01 18.87L44.57 18.87L44.57 17.32C44.57 17.21 44.56 17.09 44.54 16.98C44.51 16.87 44.48 16.76 44.44 16.66C44.39 16.56 44.34 16.46 44.28 16.36C44.22 16.27 44.14 16.18 44.06 16.1C43.98 16.02 43.9 15.95 43.8 15.89C43.71 15.83 43.61 15.77 43.51 15.73C43.4 15.68 43.29 15.65 43.18 15.63C43.07 15.61 42.96 15.6 42.85 15.6L20.01 15.6L20.01 18.87ZM19.88 39.01C19.68 39.01 19.49 38.96 19.31 38.87C19.15 38.78 19.02 38.67 18.91 38.52C18.8 38.38 18.73 38.21 18.69 38.03C18.68 37.95 18.67 37.86 18.67 37.77C18.67 37.68 18.68 37.59 18.71 37.5C18.73 37.42 18.76 37.33 18.8 37.25C18.84 37.17 18.89 37.1 18.95 37.03C19 36.96 19.07 36.9 19.14 36.84C19.21 36.79 19.28 36.74 19.36 36.7C19.45 36.66 19.53 36.63 19.62 36.61C19.7 36.59 19.79 36.58 19.88 36.58L21.25 36.58C21.45 36.58 21.64 36.63 21.82 36.73C21.98 36.81 22.12 36.93 22.22 37.08C22.33 37.22 22.4 37.38 22.44 37.56C22.46 37.65 22.46 37.74 22.46 37.83C22.46 37.92 22.45 38.01 22.42 38.09C22.4 38.18 22.37 38.26 22.33 38.34C22.29 38.42 22.24 38.5 22.19 38.57C22.13 38.64 22.06 38.7 21.99 38.75C21.92 38.81 21.85 38.86 21.77 38.9C21.69 38.93 21.6 38.96 21.51 38.98C21.43 39 21.34 39.01 21.25 39.01L19.88 39.01ZM10.21 39.01C10.01 39.01 9.81 38.96 9.64 38.87C9.46 38.77 9.31 38.64 9.2 38.47C9.04 38.23 8.97 37.97 9 37.68C9.01 37.6 9.02 37.53 9.04 37.46C9.06 37.39 9.09 37.32 9.12 37.25C9.16 37.19 9.2 37.12 9.24 37.06C9.29 37 9.34 36.95 9.39 36.9C9.45 36.85 9.51 36.81 9.57 36.77C9.64 36.73 9.7 36.69 9.77 36.67C9.84 36.64 9.91 36.62 9.99 36.61C10.06 36.59 10.13 36.58 10.21 36.58L11.57 36.58C11.86 36.58 12.12 36.68 12.34 36.86C12.57 37.05 12.71 37.28 12.76 37.57C12.8 37.74 12.79 37.92 12.75 38.1C12.7 38.27 12.62 38.43 12.51 38.57C12.4 38.7 12.28 38.8 12.14 38.87C12 38.95 11.85 38.99 11.68 39.01C11.65 39.01 11.61 39.01 11.57 39.01L10.21 39.01ZM36.9 35.28C35.93 35.05 34.99 34.76 34.28 34.53C34.21 34.51 34.16 34.49 34.1 34.46C34.04 34.42 33.99 34.39 33.94 34.35C33.89 34.31 33.85 34.26 33.81 34.21C33.77 34.16 33.73 34.1 33.7 34.04C33.67 33.99 33.65 33.92 33.64 33.86C33.62 33.8 33.61 33.74 33.61 33.67C33.6 33.6 33.61 33.54 33.62 33.48C33.63 33.41 33.64 33.35 33.66 33.29C33.7 33.17 33.75 33.06 33.82 32.96C33.88 32.89 33.94 32.82 34.02 32.77C34.09 32.71 34.17 32.67 34.26 32.64C34.35 32.61 34.44 32.59 34.53 32.59C34.62 32.59 34.71 32.6 34.8 32.62L34.81 32.62L34.28 31.84C33.78 31.1 33.31 30.4 32.82 29.68C32.31 30.13 31.81 30.56 31.33 30.98L31.3 31C31.18 31.13 31.05 31.22 30.89 31.3C30.74 31.37 30.58 31.41 30.41 31.42C30.26 31.41 30.12 31.37 29.99 31.3C29.86 31.24 29.74 31.15 29.64 31.04C29.57 30.97 29.51 30.89 29.46 30.81C28.38 29.32 27.3 27.83 26.22 26.33C26.16 26.26 26.11 26.17 26.07 26.08C26.03 26 26.01 25.9 25.99 25.81C25.97 25.71 25.97 25.61 25.98 25.51C25.99 25.41 26.01 25.32 26.04 25.23C26.08 25.15 26.12 25.08 26.17 25.01C26.22 24.95 26.28 24.89 26.35 24.84C26.42 24.79 26.49 24.75 26.57 24.72C26.64 24.68 26.72 24.66 26.81 24.65C26.86 24.64 26.92 24.64 26.98 24.64C27.12 24.64 27.25 24.68 27.38 24.73C27.5 24.79 27.61 24.87 27.71 24.97C27.77 25.04 27.83 25.11 27.87 25.19C28.3 25.78 28.73 26.38 29.15 26.95C29.57 27.53 30 28.13 30.42 28.72L30.5 28.83C30.53 28.87 30.56 28.91 30.59 28.95C31.19 28.42 31.68 28 32.15 27.6C32.27 27.48 32.41 27.38 32.56 27.31C32.71 27.24 32.87 27.2 33.04 27.18C33.22 27.21 33.39 27.26 33.55 27.36C33.71 27.46 33.84 27.58 33.94 27.73C33.97 27.77 33.99 27.82 34.02 27.86C34.64 28.79 35.28 29.74 35.89 30.65L36.36 31.35C36.38 31.23 36.42 31.12 36.48 31.01C36.56 30.88 36.66 30.77 36.79 30.69C36.91 30.6 37.05 30.55 37.2 30.52C37.26 30.52 37.32 30.51 37.38 30.51C37.51 30.51 37.63 30.54 37.75 30.59C37.87 30.64 37.98 30.71 38.07 30.81C38.17 30.92 38.24 31.04 38.28 31.18C38.33 31.33 38.34 31.47 38.33 31.62C38.29 32.54 38.22 33.46 38.14 34.38C38.14 34.5 38.12 34.62 38.07 34.74C38.02 34.86 37.96 34.96 37.87 35.05C37.78 35.14 37.68 35.2 37.56 35.25C37.45 35.3 37.33 35.32 37.2 35.32C37.1 35.32 37 35.31 36.9 35.28Z" fill="#EB6A02" fill-opacity="1.000000" fill-rule="nonzero"/>
	</g>
	<rect id="画板 384" rx="7.500000" width="55.000000" height="55.000000" transform="translate(0.500000 0.500000)" stroke="#EB6A02" stroke-opacity="1.000000" stroke-width="1.000000"/>
</svg>
