<svg width="44.000000" height="44.000000" viewBox="0 0 44 44" fill="none" xmlns="http://www.w3.org/2000/svg" xmlns:xlink="http://www.w3.org/1999/xlink">
	<desc>
			Created with Pixso.
	</desc>
	<defs>
		<clipPath id="clip398_23865">
			<rect id="属性 1=stroke" width="24.000000" height="24.000000" transform="translate(10.000000 10.000000)" fill="white" fill-opacity="0"/>
		</clipPath>
	</defs>
	<rect id="画板 1" rx="5.500000" width="43.000000" height="43.000000" transform="translate(0.500000 0.500000)" fill="#538FFF" fill-opacity="0.100000"/>
	<g clip-path="url(#clip398_23865)">
		<path id="path" d="M31.57 20.72C31.08 20.09 30.44 19.6 29.71 19.29C29.58 17.57 28.84 15.97 27.61 14.74C26.24 13.37 24.42 12.61 22.48 12.61C20.88 12.61 19.36 13.12 18.09 14.08C17.48 14.55 16.95 15.1 16.52 15.73C16.17 16.22 15.89 16.75 15.68 17.31C14.6 17.57 13.62 18.16 12.88 19.01C12 20 11.52 21.27 11.52 22.59C11.52 24.04 12.09 25.4 13.11 26.42C14.14 27.45 15.5 28.01 16.95 28.01C17.41 28.01 17.79 27.63 17.79 27.17C17.79 26.7 17.41 26.32 16.95 26.32C14.89 26.32 13.21 24.65 13.21 22.59C13.21 21.68 13.54 20.8 14.14 20.12C14.74 19.45 15.55 19.01 16.44 18.88L16.44 18.88C16.45 18.88 16.47 18.88 16.48 18.88C16.48 18.88 16.48 18.88 16.49 18.88C16.5 18.88 16.51 18.87 16.52 18.87C16.52 18.87 16.53 18.87 16.53 18.87C16.54 18.87 16.55 18.87 16.55 18.86C16.56 18.86 16.57 18.86 16.57 18.86C16.58 18.85 16.58 18.85 16.59 18.85C16.59 18.85 16.61 18.85 16.62 18.84C16.62 18.84 16.62 18.84 16.62 18.84C16.7 18.81 16.77 18.77 16.83 18.73L16.83 18.72L16.86 18.7C16.86 18.7 16.87 18.7 16.87 18.7C16.88 18.69 16.88 18.68 16.89 18.68C16.89 18.67 16.9 18.67 16.9 18.66L16.92 18.65L16.94 18.63C16.94 18.63 16.94 18.62 16.94 18.62C16.95 18.61 16.96 18.6 16.97 18.59L16.97 18.59C16.98 18.58 16.98 18.57 16.99 18.56L16.99 18.56C17 18.55 17.01 18.54 17.01 18.53C17.01 18.53 17.01 18.53 17.02 18.53C17.02 18.52 17.03 18.51 17.04 18.5C17.04 18.5 17.04 18.49 17.04 18.49C17.04 18.48 17.05 18.47 17.06 18.47C17.06 18.46 17.06 18.46 17.06 18.45C17.07 18.45 17.07 18.44 17.08 18.43C17.08 18.43 17.08 18.42 17.08 18.41C17.09 18.41 17.09 18.4 17.09 18.4C17.1 18.39 17.1 18.38 17.1 18.37C17.11 18.37 17.11 18.36 17.11 18.36C17.11 18.35 17.12 18.34 17.12 18.33C17.12 18.33 17.12 18.33 17.12 18.32C17.13 18.31 17.13 18.3 17.13 18.28C17.47 17.16 18.17 16.14 19.11 15.42C20.09 14.68 21.25 14.29 22.48 14.29C23.96 14.29 25.36 14.87 26.41 15.92C27.47 16.98 28.04 18.37 28.04 19.86C28.04 20.13 28.17 20.37 28.37 20.53C28.47 20.62 28.59 20.69 28.73 20.73C29.96 21.07 30.83 22.2 30.83 23.49C30.83 25.06 29.54 26.34 27.97 26.34C27.5 26.34 27.13 26.72 27.13 27.19C27.13 27.65 27.5 28.03 27.97 28.03C30.47 28.03 32.51 25.99 32.51 23.49C32.51 22.48 32.19 21.52 31.57 20.72ZM22.64 22.43C22.47 22.26 22.23 22.18 22 22.19C21.77 22.18 21.53 22.26 21.36 22.43L18.74 25.05C18.41 25.38 18.41 25.92 18.74 26.24C18.9 26.41 19.12 26.49 19.34 26.49C19.56 26.49 19.77 26.41 19.93 26.24L21.16 25.02L21.16 30.55C21.16 31.01 21.54 31.39 22 31.39C22.47 31.39 22.85 31.01 22.85 30.55L22.85 25.02L24.07 26.24C24.23 26.41 24.45 26.49 24.67 26.49C24.88 26.49 25.1 26.41 25.26 26.24C25.59 25.91 25.59 25.38 25.26 25.05L22.64 22.43Z" fill="#538FFF" fill-opacity="1.000000" fill-rule="nonzero"/>
	</g>
	<rect id="画板 1" rx="5.500000" width="43.000000" height="43.000000" transform="translate(0.500000 0.500000)" stroke="#538FFF" stroke-opacity="1.000000" stroke-width="1.000000"/>
</svg>
