<svg width="28.000000" height="28.000000" viewBox="0 0 28 28" fill="none" xmlns="http://www.w3.org/2000/svg" xmlns:xlink="http://www.w3.org/1999/xlink">
	<desc>
			Created with Pixso.
	</desc>
	<defs/>
	<rect id="画板 1" rx="6.000000" width="27.000000" height="27.000000" transform="translate(0.500000 0.500000)" fill="#818992" fill-opacity="0.1"/>
	<path id="vector (Stroke)" d="M14 12.5C13.17 12.5 12.5 13.17 12.5 14C12.5 14.83 13.17 15.5 14 15.5C14.83 15.5 15.5 14.83 15.5 14C15.5 13.17 14.83 12.5 14 12.5ZM11.5 14C11.5 12.6177 12.6177 11.5 14 11.5C15.3823 11.5 16.5 12.6177 16.5 14C16.5 15.3823 15.3823 16.5 14 16.5C12.6177 16.5 11.5 15.3823 11.5 14Z" fill-rule="evenodd" fill="#818992"/>
	<path id="vector (Stroke)" d="M7.52185 12.1823C9.12866 9.96179 11.4641 8.64661 14 8.64661C16.5361 8.64661 18.8717 9.96191 20.4784 12.1826C20.8528 12.6986 21.0233 13.3613 21.0233 13.9966C21.0233 14.632 20.8528 15.2949 20.4781 15.8109C18.8715 18.0315 16.536 19.3466 14 19.3466C11.464 19.3466 9.12842 18.0314 7.52161 15.8107C7.14722 15.2947 6.97668 14.6318 6.97668 13.9966C6.97668 13.3612 7.14734 12.6982 7.52185 12.1823ZM14 9.64661C11.8295 9.64661 9.77832 10.7695 8.33179 12.7688L8.3313 12.7694C8.10596 13.0797 7.97668 13.5244 7.97668 13.9966C7.97668 14.4689 8.10596 14.9135 8.3313 15.2238L8.33179 15.2245C9.77832 17.2236 11.8295 18.3466 14 18.3466C16.1707 18.3466 18.2217 17.2236 19.6682 15.2245L19.6687 15.2238C19.894 14.9135 20.0233 14.4689 20.0233 13.9966C20.0233 13.5244 19.894 13.0797 19.6687 12.7694L19.6682 12.7688C18.2217 10.7695 16.1707 9.64661 14 9.64661Z" fill-rule="evenodd" fill="#818992"/>
	<rect id="画板 1" rx="6.000000" width="27.000000" height="27.000000" transform="translate(0.500000 0.500000)" stroke="#818992"/>
</svg>
