<svg width="28.000000" height="28.000000" viewBox="0 0 28 28" fill="none" xmlns="http://www.w3.org/2000/svg" xmlns:xlink="http://www.w3.org/1999/xlink">
	<desc>
			Created with Pixso.
	</desc>
	<defs/>
	<rect id="画板 1" rx="3.000000" width="27.000000" height="27.000000" transform="translate(0.500000 0.500000)" fill="#FCC803" fill-opacity="0.1"/>
	<path id="vector (Stroke)" d="M8.89136 16.7144L8.62866 19.126C8.60547 19.3379 8.78442 19.5166 8.99609 19.4937L11.408 19.231C11.6343 19.2061 11.8457 19.105 12.0068 18.9438L19.3342 11.6162C19.7249 11.2261 19.7249 10.5928 19.3342 10.2021L17.9199 8.78809C17.5295 8.39746 16.8962 8.39746 16.5059 8.78809L9.17822 16.1157C9.01733 16.2764 8.91602 16.4878 8.89136 16.7144ZM18.6272 8.08105L20.0413 9.49512C20.8225 10.2764 20.8225 11.5425 20.0413 12.3237L12.7139 19.6509C12.3916 19.9731 11.9692 20.1758 11.5161 20.2251L9.10425 20.4878C8.25732 20.5801 7.54224 19.8647 7.63452 19.0181L7.89722 16.606C7.94653 16.1533 8.14893 15.7305 8.47119 15.4082L15.7988 8.08105C16.5798 7.2998 17.8462 7.2998 18.6272 8.08105Z" fill-rule="evenodd" fill="#FCC803"/>
	<path id="vector (Stroke)" d="M19.3337 10.2021L17.9197 8.78809C17.5291 8.39746 16.896 8.39746 16.5054 8.78809L15.657 9.63672L18.4854 12.4648L19.3337 11.6162C19.7244 11.2261 19.7244 10.5928 19.3337 10.2021ZM18.4854 13.8794L14.2427 9.63672L15.7983 8.08105C16.5793 7.2998 17.8457 7.2998 18.6267 8.08105L20.041 9.49512C20.822 10.2764 20.822 11.5425 20.041 12.3237L18.4854 13.8794Z" fill-rule="evenodd" fill="#FCC803"/>
	<rect id="画板 1" rx="3.000000" width="27.000000" height="27.000000" transform="translate(0.500000 0.500000)" stroke="#FCC803"/>
</svg>
