<svg width="28.000000" height="28.000000" viewBox="0 0 28 28" fill="none" xmlns="http://www.w3.org/2000/svg" xmlns:xlink="http://www.w3.org/1999/xlink">
	<desc>
			Created with Pixso.
	</desc>
	<defs/>
	<rect id="画板 1" rx="6.000000" width="27.000000" height="27.000000" transform="translate(0.500000 0.500000)" fill="#FCC803" fill-opacity="0.1"/>
	<path id="vector (Stroke)" d="M14 12.5C13.17 12.5 12.5 13.17 12.5 14C12.5 14.83 13.17 15.5 14 15.5C14.83 15.5 15.5 14.83 15.5 14C15.5 13.17 14.83 12.5 14 12.5ZM11.5 14C11.5 12.6177 12.6177 11.5 14 11.5C15.3823 11.5 16.5 12.6177 16.5 14C16.5 15.3823 15.3823 16.5 14 16.5C12.6177 16.5 11.5 15.3823 11.5 14Z" fill-rule="evenodd" fill="#FCC803"/>
	<path id="vector (Stroke)" d="M7.52171 12.1823C9.1285 9.96173 11.464 8.64661 13.9999 8.64661C16.536 8.64661 18.8715 9.96185 20.4783 12.1826C20.8527 12.6986 21.0232 13.3614 21.0232 13.9966C21.0232 14.632 20.8526 15.2949 20.4781 15.811C18.8713 18.0315 16.5358 19.3466 13.9999 19.3466C11.4638 19.3466 9.12827 18.0314 7.52148 15.8107C7.1471 15.2946 6.97656 14.6318 6.97656 13.9966C6.97656 13.3613 7.14717 12.6983 7.52171 12.1823ZM13.9999 9.64661C11.8293 9.64661 9.77819 10.7695 8.33165 12.7687L8.33117 12.7694C8.10588 13.0797 7.97656 13.5244 7.97656 13.9966C7.97656 14.4689 8.10588 14.9135 8.33117 15.2238L8.33165 15.2244C9.77819 17.2237 11.8293 18.3466 13.9999 18.3466C16.1705 18.3466 18.2216 17.2237 19.6681 15.2244L19.6686 15.2238C19.8939 14.9135 20.0232 14.4689 20.0232 13.9966C20.0232 13.5244 19.8939 13.0797 19.6686 12.7694L19.6681 12.7687C18.2216 10.7695 16.1705 9.64661 13.9999 9.64661Z" fill-rule="evenodd" fill="#FCC803"/>
	<rect id="画板 1" rx="6.000000" width="27.000000" height="27.000000" transform="translate(0.500000 0.500000)" stroke="#FCC803"/>
</svg>
