<svg width="56.000000" height="56.000000" viewBox="0 0 56 56" fill="none" xmlns="http://www.w3.org/2000/svg" xmlns:xlink="http://www.w3.org/1999/xlink">
	<desc>
			Created with Pixso.
	</desc>
	<defs/>
	<rect id="画板 263" rx="4.000000" width="55.000000" height="55.000000" transform="translate(0.500000 0.500000)" fill="#1A1D2C" fill-opacity="1.000000"/>
	<rect id="style=编辑-默认" width="40.000000" height="40.000000" transform="translate(8.000000 8.000000)" fill="#FFFFFF" fill-opacity="0"/>
	<path id="vector (Stroke)" d="M15.2278 34.7852L14.571 40.8145C14.5134 41.3447 14.9603 41.791 15.4897 41.7334L21.5193 41.0771C22.0854 41.0156 22.6136 40.7617 23.0164 40.3594L41.3351 22.041C42.3115 21.0645 42.3115 19.4814 41.3351 18.5049L37.7996 14.9697C36.8233 13.9932 35.2404 13.9932 34.264 14.9697L15.9453 33.2881C15.5425 33.6914 15.2894 34.2188 15.2278 34.7852ZM39.5674 13.2021L43.1029 16.7373C45.0555 18.6895 45.0555 21.8555 43.1029 23.8086L24.7841 42.127C23.9786 42.9326 22.9223 43.4385 21.7899 43.5625L15.7604 44.2188C13.6428 44.4492 11.8551 42.6621 12.0858 40.5439L12.7424 34.5146C12.8658 33.3828 13.3721 32.3262 14.1776 31.5205L32.4963 13.2021C34.4489 11.249 37.6147 11.249 39.5674 13.2021Z" fill="#FCC803" fill-opacity="1.000000" fill-rule="evenodd"/>
	<path id="vector (Stroke)" d="M41.335 18.5049L37.7994 14.9697C36.8231 13.9932 35.2402 13.9932 34.2639 14.9697L32.1426 17.0908L39.2137 24.1621L41.335 22.041C42.3113 21.0645 42.3113 19.4814 41.335 18.5049ZM39.2137 27.6973L28.6071 17.0908L32.4962 13.2021C34.4488 11.249 37.6146 11.249 39.5672 13.2021L43.1027 16.7373C45.0554 18.6895 45.0554 21.8555 43.1027 23.8086L39.2137 27.6973Z" fill="#FCC803" fill-opacity="1.000000" fill-rule="evenodd"/>
	<rect id="画板 263" rx="4.000000" width="55.000000" height="55.000000" transform="translate(0.500000 0.500000)" stroke="#FCC803" stroke-opacity="1.000000" stroke-width="1.000000"/>
</svg>
