<svg width="40.000000" height="40.000000" viewBox="0 0 40 40" fill="none" xmlns="http://www.w3.org/2000/svg" xmlns:xlink="http://www.w3.org/1999/xlink">
	<desc>
			Created with Pixso.
	</desc>
	<defs>
		<clipPath id="clip148_44100">
			<rect id="数据看板" width="22.000000" height="22.000000" transform="translate(7.947266 8.693848)" fill="white"/>
		</clipPath>
	</defs>
	<path id="减去顶层" d="M8.62109 31.3807C10.5723 33.3334 13.7168 33.3334 20.002 33.3334C26.2871 33.3334 29.4297 33.3334 31.3828 31.3807C33.334 29.4282 33.334 26.2855 33.334 20.0001C33.334 13.7147 33.334 10.572 31.3828 8.61938C29.4297 6.66675 26.2871 6.66675 20.002 6.66675C13.7168 6.66675 10.5723 6.66675 8.62109 8.61938C6.66797 10.572 6.66797 13.7147 6.66797 20.0001C6.66797 26.2855 6.66797 29.4282 8.62109 31.3807ZM27.6211 18.4242C27.7051 18.3893 27.793 18.3718 27.8848 18.3718C27.9297 18.3718 27.9746 18.3762 28.0176 18.3849C28.0625 18.3937 28.1055 18.4067 28.1465 18.4242C28.2305 18.4591 28.3066 18.5088 28.3711 18.5732C28.4355 18.6377 28.4844 18.712 28.5195 18.7963C28.5371 18.8384 28.5508 18.8813 28.5586 18.9252C28.5664 18.9691 28.5723 19.0138 28.5723 19.0593L28.5723 24.5065C28.5723 24.6418 28.5586 24.776 28.5312 24.9088C28.5059 25.0416 28.4668 25.1707 28.4141 25.2957C28.3633 25.4208 28.2988 25.5397 28.2246 25.6523C28.1484 25.7649 28.0625 25.869 27.9668 25.9648C27.9199 26.0127 27.8691 26.0581 27.8184 26.1008C27.7656 26.1436 27.7109 26.1837 27.6543 26.2213C27.543 26.2966 27.4238 26.3601 27.2988 26.412C27.1738 26.4637 27.0449 26.5029 26.9121 26.5293C26.7793 26.5557 26.6445 26.569 26.5098 26.569L11.3848 26.569C11.248 26.569 11.1152 26.5557 10.9824 26.5293C10.8496 26.5029 10.7207 26.4637 10.5957 26.412C10.4688 26.3601 10.3516 26.2966 10.2383 26.2213C10.125 26.1461 10.0215 26.0605 9.92578 25.9648C9.83008 25.869 9.74414 25.7649 9.66992 25.6523C9.59375 25.5397 9.53125 25.4208 9.47852 25.2957C9.42773 25.1707 9.38672 25.0416 9.36133 24.9088C9.33398 24.776 9.32227 24.6418 9.32227 24.5065L9.32227 12.1315C9.32227 11.996 9.33398 11.8619 9.36133 11.729C9.38672 11.5962 9.42773 11.4673 9.47852 11.3422C9.53125 11.217 9.59375 11.0981 9.66992 10.9856C9.74414 10.8729 9.83008 10.7688 9.92578 10.673C10.0215 10.5773 10.125 10.4918 10.2383 10.4165C10.3516 10.3413 10.4688 10.2777 10.5957 10.226C10.7207 10.1741 10.8496 10.135 10.9824 10.1085C11.1152 10.0822 11.248 10.069 11.3848 10.069L22.7852 10.069C22.877 10.069 22.9629 10.0864 23.0488 10.1212C23.1328 10.1561 23.207 10.2058 23.2715 10.2703C23.3027 10.3025 23.332 10.3372 23.3574 10.3744C23.3809 10.4116 23.4023 10.4512 23.4199 10.4933C23.4551 10.5775 23.4727 10.6653 23.4727 10.7565C23.4727 10.8477 23.4551 10.9353 23.4199 11.0195C23.3848 11.1038 23.3359 11.1781 23.2715 11.2426C23.207 11.307 23.1328 11.3567 23.0488 11.3916C22.9629 11.4265 22.877 11.444 22.7852 11.444L11.3848 11.444C11.293 11.444 11.2051 11.4614 11.1211 11.4962C11.0371 11.5311 10.9629 11.5808 10.8984 11.6453C10.834 11.7097 10.7832 11.7841 10.748 11.8683C10.7148 11.9525 10.6973 12.0403 10.6973 12.1315L10.6973 24.5065C10.6973 24.5977 10.7148 24.6853 10.748 24.7695C10.7832 24.8538 10.834 24.9281 10.8984 24.9926C10.9297 25.0248 10.9648 25.0533 11.002 25.0781C11.0391 25.103 11.0781 25.1241 11.1211 25.1416C11.2051 25.1765 11.293 25.194 11.3848 25.194L26.5098 25.194C26.5996 25.194 26.6875 25.1765 26.7715 25.1416C26.8555 25.1067 26.9316 25.057 26.9961 24.9926C27.0605 24.9281 27.1094 24.8538 27.1445 24.7695C27.1797 24.6853 27.1973 24.5977 27.1973 24.5065L27.1973 19.0593C27.1973 18.9681 27.2148 18.8805 27.248 18.7963C27.2832 18.712 27.334 18.6377 27.3984 18.5732C27.4629 18.5088 27.5371 18.4591 27.6211 18.4242ZM28.9844 12.1067C28.9629 12.0179 28.9258 11.9364 28.873 11.8623C28.8477 11.8252 28.8184 11.7914 28.7852 11.7609L28.7852 11.7607C28.752 11.7302 28.7168 11.7029 28.6777 11.6787C28.6016 11.6305 28.5176 11.5989 28.4277 11.584C28.3379 11.569 28.248 11.5718 28.1582 11.5924L24.5742 12.423C24.4531 12.4508 24.3477 12.5072 24.2578 12.5922C24.168 12.677 24.1055 12.7788 24.0703 12.8976C24.0352 13.0164 24.0312 13.136 24.0625 13.2562C24.0918 13.3766 24.1484 13.4813 24.2344 13.5703L25.0176 14.3795L20.8379 18.1085L18.666 16.053C18.6016 15.9905 18.5254 15.9429 18.4395 15.9103C18.3555 15.8778 18.2676 15.8627 18.1758 15.865C18.0859 15.8673 17.998 15.8868 17.916 15.9237C17.832 15.9606 17.7598 16.0118 17.6973 16.0776L13.041 20.9603C12.8535 20.9214 12.668 20.9211 12.4805 20.9597C12.2949 20.9983 12.123 21.0725 11.9668 21.1821C11.8105 21.2919 11.6836 21.4281 11.584 21.5908C11.4863 21.7535 11.4238 21.9292 11.3965 22.118C11.3711 22.3068 11.3828 22.4928 11.4355 22.6763C11.4863 22.8599 11.5723 23.0255 11.6914 23.1733C11.752 23.2473 11.8184 23.3137 11.8906 23.3726C11.9629 23.4315 12.041 23.4829 12.125 23.5267C12.2949 23.6145 12.4746 23.6649 12.6641 23.678C12.7598 23.6846 12.8535 23.6814 12.9453 23.6688L12.9453 23.6688C13.0391 23.6561 13.1289 23.6338 13.2188 23.6019C13.3984 23.5382 13.5586 23.4413 13.6973 23.3114C13.8359 23.1814 13.9434 23.0289 14.0195 22.8542C14.0957 22.6796 14.1348 22.4969 14.1348 22.3064C14.1348 22.1572 14.1055 22.017 14.0605 21.8829L18.2188 17.5228L20.3496 19.5413C20.4121 19.6005 20.4844 19.6464 20.5645 19.6788C20.6445 19.7113 20.7266 19.7281 20.8125 19.7294C20.8984 19.7307 20.9824 19.7163 21.0625 19.6862C21.1445 19.6561 21.2168 19.6124 21.2812 19.5551L25.9727 15.3695L26.8652 16.2928C26.9512 16.382 27.0527 16.4432 27.1719 16.4769C27.291 16.5105 27.4102 16.5118 27.5312 16.481C27.6504 16.45 27.7539 16.391 27.8418 16.3038C27.8867 16.2603 27.9238 16.2126 27.9531 16.161C27.9844 16.1093 28.0078 16.0536 28.0234 15.9938L28.9785 12.4401C29.0078 12.3295 29.0098 12.2184 28.9844 12.1067ZM10.3535 27.944L27.541 27.944C27.6309 27.944 27.7188 27.9614 27.8027 27.9962C27.8867 28.0311 27.9629 28.0808 28.0273 28.1453C28.0918 28.2097 28.1406 28.2841 28.1758 28.3683C28.2109 28.4525 28.2285 28.5403 28.2285 28.6315C28.2285 28.7227 28.2109 28.8103 28.1758 28.8945C28.1406 28.9788 28.0918 29.0531 28.0273 29.1176C27.9629 29.182 27.8867 29.2317 27.8027 29.2666C27.7617 29.2841 27.7188 29.2971 27.6738 29.3059C27.6309 29.3146 27.5859 29.319 27.541 29.319L10.3535 29.319C10.3066 29.319 10.2617 29.3146 10.2188 29.3058C10.1758 29.2971 10.1328 29.2841 10.0898 29.2666C10.0059 29.2317 9.93164 29.182 9.86719 29.1176C9.80273 29.0531 9.75195 28.9788 9.7168 28.8945C9.68359 28.8103 9.66602 28.7227 9.66602 28.6315C9.66602 28.5403 9.68359 28.4525 9.7168 28.3683C9.75195 28.2841 9.80273 28.2097 9.86719 28.1453C9.93164 28.0808 10.0059 28.0311 10.0898 27.9962C10.1738 27.9614 10.2617 27.944 10.3535 27.944Z" clip-rule="evenodd" fill-rule="evenodd" fill="#41B4CF" fill-opacity="1.000000"/>
</svg>
