<svg width="40.000000" height="40.000000" viewBox="0 0 40 40" fill="none" xmlns="http://www.w3.org/2000/svg" xmlns:xlink="http://www.w3.org/1999/xlink">
	<desc>
			Created with Pixso.
	</desc>
	<defs/>
	<path id="Vector" d="M21.002 9.30042C21.002 9.85352 20.5527 10.3018 20 10.3018C19.4453 10.3018 18.9961 9.85352 18.9961 9.30042L18.9961 6.66675C16.0586 6.88428 13.3848 8.05005 11.2812 9.85876L13.3555 11.9301C13.7461 12.321 13.7461 12.9551 13.3555 13.3462C12.9629 13.7372 12.3281 13.7372 11.9375 13.3462L9.86328 11.2749C8.05078 13.3759 6.88477 16.0461 6.66602 18.9802L9.30273 18.9802C9.85742 18.9802 10.3066 19.4286 10.3066 19.9816C10.3066 20.5347 9.85742 20.983 9.30273 20.983L6.66602 20.983C6.88477 23.9171 8.05078 26.5873 9.86328 28.6882L11.9375 26.6171C12.3281 26.226 12.9629 26.226 13.3555 26.6171C13.7461 27.0081 13.7461 27.6421 13.3555 28.0332L11.2812 30.1044C13.6211 32.1168 16.668 33.3334 20 33.3334C23.3301 33.3334 26.377 32.1168 28.7188 30.1044L26.6445 28.0332C26.252 27.6421 26.252 27.0081 26.6445 26.6171C27.0352 26.226 27.6699 26.226 28.0625 26.6171L30.1367 28.6882C31.9473 26.5873 33.1152 23.9171 33.332 20.983L30.6953 20.983C30.1406 20.983 29.6934 20.5347 29.6934 19.9816C29.6934 19.4286 30.1406 18.9802 30.6953 18.9802L33.332 18.9802C33.1152 16.0461 31.9473 13.3759 30.1367 11.2749L28.0625 13.3462C27.6699 13.7372 27.0352 13.7372 26.6445 13.3462C26.252 12.9551 26.252 12.321 26.6445 11.9301L28.7188 9.85876C26.6133 8.05005 23.9395 6.88428 21.002 6.66675L21.002 9.30042ZM20.0371 25.3594C17.8203 25.3594 16.0254 23.5659 16.0254 21.3538C16.0254 20.5123 16.6055 19.345 17.3242 18.2216C18.4004 16.5415 18.9375 15.7015 20.0371 15.7015C21.1348 15.7015 21.6719 16.5415 22.748 18.2216C23.4668 19.345 24.0469 20.5123 24.0469 21.3538C24.0469 23.5659 22.252 25.3594 20.0371 25.3594Z" fill-rule="evenodd" fill="#41B4CF"/>
</svg>
