<svg width="40.000000" height="40.000000" viewBox="0 0 40 40" fill="none" xmlns="http://www.w3.org/2000/svg" xmlns:xlink="http://www.w3.org/1999/xlink">
	<desc>
			Created with Pixso.
	</desc>
	<defs/>
	<path id="Vector" d="M8.61914 31.3807C10.5703 33.3334 13.7148 33.3334 20 33.3334C26.2852 33.3334 29.4277 33.3334 31.3809 31.3807C33.332 29.4282 33.332 26.2855 33.332 20.0001C33.332 13.7147 33.332 10.572 31.3809 8.61938C29.4277 6.66675 26.2852 6.66675 20 6.66675C13.7148 6.66675 10.5703 6.66675 8.61914 8.61938C6.66602 10.572 6.66602 13.7147 6.66602 20.0001C6.66602 26.2855 6.66602 29.4282 8.61914 31.3807ZM14.666 9.66675C14.1133 9.66675 13.666 10.1145 13.666 10.6667L13.666 12.0001C13.666 12.5524 14.1133 13.0001 14.666 13.0001C15.2188 13.0001 15.666 12.5524 15.666 12.0001L15.666 10.6667C15.666 10.1145 15.2188 9.66675 14.666 9.66675ZM24.332 17.3334C24.332 17.8857 24.7812 18.3334 25.332 18.3334C25.8848 18.3334 26.332 17.8857 26.332 17.3334L26.332 10.6667C26.332 10.1145 25.8848 9.66675 25.332 9.66675C24.7812 9.66675 24.332 10.1145 24.332 10.6667L24.332 17.3334ZM18.332 17.3334C18.332 15.3083 16.6914 13.6667 14.666 13.6667C12.6406 13.6667 11 15.3083 11 17.3334C11 19.3585 12.6406 21.0001 14.666 21.0001C16.6914 21.0001 18.332 19.3584 18.332 17.3334ZM16.332 17.3334C16.332 16.413 15.5859 15.6667 14.666 15.6667C13.7461 15.6667 13 16.413 13 17.3334C13 18.2539 13.7461 19.0001 14.666 19.0001C15.5859 19.0001 16.332 18.2539 16.332 17.3334ZM25.332 26.3334C27.3574 26.3334 29 24.6918 29 22.6667C29 20.6417 27.3574 19.0001 25.332 19.0001C23.3086 19.0001 21.666 20.6417 21.666 22.6667C21.666 24.6918 23.3086 26.3334 25.332 26.3334ZM25.332 24.3334C26.2539 24.3334 27 23.5873 27 22.6667C27 21.7462 26.2539 21.0001 25.332 21.0001C24.4121 21.0001 23.666 21.7462 23.666 22.6667C23.666 23.5873 24.4121 24.3334 25.332 24.3334ZM14.666 21.6667C14.1133 21.6667 13.666 22.1145 13.666 22.6667L13.666 29.3334C13.666 29.8857 14.1133 30.3334 14.666 30.3334C15.2188 30.3334 15.666 29.8857 15.666 29.3334L15.666 22.6667C15.666 22.1145 15.2188 21.6667 14.666 21.6667ZM24.332 29.3334C24.332 29.8857 24.7812 30.3334 25.332 30.3334C25.8848 30.3334 26.332 29.8857 26.332 29.3334L26.332 28.0001C26.332 27.4478 25.8848 27.0001 25.332 27.0001C24.7812 27.0001 24.332 27.4478 24.332 28.0001L24.332 29.3334Z" fill-rule="evenodd" fill="#41B4CF"/>
</svg>
