<svg width="40.000000" height="40.000000" viewBox="0 0 40 40" fill="none" xmlns="http://www.w3.org/2000/svg" xmlns:xlink="http://www.w3.org/1999/xlink">
	<desc>
			Created with Pixso.
	</desc>
	<defs/>
	<path id="Vector" d="M8.61914 8.61926C6.66602 10.5719 6.66602 13.7146 6.66602 20C6.66602 26.2854 6.66602 29.4281 8.61914 31.3806C10.5703 33.3333 13.7148 33.3333 20 33.3333C26.2852 33.3333 29.4277 33.3333 31.3809 31.3806C33.332 29.4281 33.332 26.2854 33.332 20C33.332 13.7146 33.332 10.5719 31.3809 8.61926C29.4277 6.66663 26.2852 6.66663 20 6.66663C13.7148 6.66663 10.5703 6.66663 8.61914 8.61926ZM27.332 11C28.9902 11 30.332 12.3431 30.332 14L30.332 23L30.666 23C31.2188 23 31.666 23.4476 31.666 24C31.666 24.5522 31.2188 25 30.666 25L27.541 25C26.3711 25 26.0625 25.0177 25.7988 25.1268C25.5352 25.236 25.3066 25.4407 24.4785 26.2692L24.1719 26.5754L24.0723 26.6753C23.4961 27.2522 23.041 27.7079 22.4609 27.9817C22.3535 28.0327 22.2441 28.0784 22.1309 28.1187C21.5273 28.3346 20.8848 28.3341 20.0684 28.3334L19.9277 28.3333L19.7773 28.3334C18.916 28.3341 18.2363 28.3347 17.6035 28.0956C17.4863 28.051 17.3711 28.0005 17.2598 27.9441C16.6543 27.6412 16.1953 27.1399 15.6113 26.5051L15.5098 26.395L15.4629 26.3436C14.6797 25.491 14.4609 25.2786 14.207 25.1589C14.1797 25.1462 14.1523 25.1343 14.125 25.123C13.8652 25.0172 13.5605 25 12.4004 25L9.33203 25C8.78125 25 8.33203 24.5522 8.33203 24C8.33203 23.4476 8.78125 23 9.33203 23L9.66602 23L9.66602 14C9.66602 12.3431 11.0098 11 12.666 11L27.332 11ZM11.666 14C11.666 13.4476 12.1133 13 12.666 13L27.332 13C27.8848 13 28.332 13.4476 28.332 14L28.332 15.1707C28.0195 15.0601 27.6836 15 27.332 15L12.666 15C12.3145 15 11.9785 15.0601 11.666 15.1707L11.666 14ZM27.332 17C27.8848 17 28.332 17.4476 28.332 18L28.332 19.1707C28.0195 19.0601 27.6836 19 27.332 19L12.666 19C12.3145 19 11.9785 19.0601 11.666 19.1707L11.666 18C11.666 17.4476 12.1133 17 12.666 17L27.332 17ZM27.332 21C27.8848 21 28.332 21.4476 28.332 22L28.332 23L27.541 23L27.3809 22.9999C26.4492 22.999 25.7129 22.9983 25.0332 23.2791C24.3555 23.5599 23.8359 24.0817 23.1777 24.741L23.0645 24.855L22.7578 25.1613C22.0332 25.8855 21.832 26.067 21.6074 26.1735C21.5586 26.1967 21.5078 26.2174 21.457 26.2357C21.2227 26.3197 20.9512 26.3333 19.9277 26.3333C18.8438 26.3333 18.5586 26.3181 18.3125 26.2252C18.2598 26.205 18.207 26.182 18.1562 26.1564C17.9219 26.0387 17.7168 25.8385 16.9824 25.041L16.9355 24.9896L16.8281 24.8719C16.2051 24.1938 15.7129 23.6575 15.0586 23.3496C15 23.3218 14.9395 23.2955 14.8789 23.2709C14.209 22.9983 13.4824 22.999 12.5605 22.9999L12.4004 23L11.666 23L11.666 22C11.666 21.4476 12.1133 21 12.666 21L27.332 21Z" fill-rule="evenodd" fill="#41B4CF"/>
</svg>
