<svg width="40.000000" height="40.000000" viewBox="0 0 40 40" fill="none" xmlns="http://www.w3.org/2000/svg" xmlns:xlink="http://www.w3.org/1999/xlink">
	<desc>
			Created with Pixso.
	</desc>
	<defs>
		<clipPath id="clip2656_291830">
			<rect id="名下应用" width="22.000000" height="22.000000" transform="translate(9.000305 9.000122)" fill="white" fill-opacity="0"/>
		</clipPath>
	</defs>
	<rect id="画板 1353" width="40.000000" height="40.000000" fill="#FFFFFF" fill-opacity="0"/>
	<path id="减去顶层" d="M8.61926 31.3807C10.5719 33.3333 13.7145 33.3333 19.9999 33.3333C26.2853 33.3333 29.428 33.3333 31.3807 31.3807C33.3333 29.4281 33.3333 26.2854 33.3333 20C33.3333 13.7146 33.3333 10.5719 31.3807 8.61928C31.2586 8.49718 31.1318 8.38273 30.9999 8.27542L30.9999 8.00011L30.6271 8.00011C28.6329 6.66666 25.535 6.66666 19.9999 6.66666C13.7145 6.66666 10.5718 6.66666 8.61926 8.61928C6.66663 10.5719 6.66663 13.7146 6.66663 20C6.66663 26.2854 6.66663 29.4281 8.61926 31.3807ZM19.5485 9.38359C19.4001 9.42064 19.2584 9.4751 19.1235 9.54698L11.2161 13.7568C10.6063 14.0821 10.226 14.7138 10.226 15.4053L10.226 24.3844C10.2264 24.5505 10.2485 24.7137 10.2924 24.8739C10.3363 25.0341 10.4005 25.1858 10.4849 25.3289C10.5693 25.472 10.671 25.6015 10.7899 25.7175C10.9089 25.8334 11.041 25.9317 11.1862 26.0124L19.0905 30.425C19.6562 30.7393 20.3445 30.7393 20.9102 30.425L28.8145 26.0124C29.4069 25.684 29.7731 25.0585 29.7731 24.3828L29.7731 15.4053C29.7731 14.7154 29.3928 14.0821 28.7846 13.7584L20.8772 9.54698C20.7422 9.4751 20.6006 9.42064 20.4522 9.38359C20.3038 9.34655 20.1533 9.32803 20.0003 9.32803C19.8474 9.32803 19.6968 9.34655 19.5485 9.38359ZM12.0489 15.3173L19.9532 11.1058C19.9836 11.0898 20.0155 11.0898 20.0459 11.1058L27.9533 15.3173C27.9883 15.3362 28.0056 15.3655 28.0052 15.4053L28.0052 24.3813C28.0052 24.4199 27.9885 24.4487 27.9549 24.4677L20.0475 28.8787C20.0192 28.8944 19.9814 28.8944 19.9532 28.8787L12.0458 24.4693C12.0159 24.452 11.9955 24.419 11.9955 24.3828L11.9955 15.4053C11.9954 15.3651 12.0132 15.3358 12.0489 15.3173ZM25.9963 16.7961C25.9796 16.7479 25.9583 16.7018 25.9325 16.6577C25.9064 16.6132 25.8747 16.5716 25.8405 16.533C25.8062 16.4945 25.7686 16.4596 25.7274 16.4284C25.6863 16.3973 25.6426 16.3704 25.5962 16.3479C25.5497 16.3253 25.5016 16.3075 25.4517 16.2945C25.4018 16.2814 25.3511 16.2733 25.2996 16.2703C25.2481 16.2672 25.1968 16.2692 25.1458 16.2762C25.0946 16.2832 25.0447 16.2952 24.996 16.312C24.9472 16.3289 24.9006 16.3504 24.856 16.3764L19.9642 19.2364L15.0928 16.3764L15.0817 16.3701C15.0372 16.3463 14.9908 16.327 14.9424 16.3122C14.8942 16.2973 14.8449 16.2872 14.7947 16.2819C14.7444 16.2766 14.6942 16.2761 14.6438 16.2804C14.5934 16.2848 14.544 16.2939 14.4954 16.3078C14.4468 16.3217 14.4001 16.3402 14.355 16.3631C14.31 16.386 14.2676 16.413 14.2278 16.4442C14.188 16.4753 14.1516 16.5099 14.1184 16.548C14.0853 16.5862 14.0561 16.6272 14.0309 16.6709C14.0057 16.7147 13.9849 16.7605 13.9684 16.8083C13.9521 16.8561 13.9404 16.905 13.9334 16.955C13.9265 17.0051 13.9244 17.0553 13.9271 17.1058C13.9298 17.1562 13.9374 17.2059 13.9497 17.2549C13.962 17.3039 13.9789 17.3513 14.0004 17.397C14.0219 17.4428 14.0475 17.486 14.0773 17.5268C14.1071 17.5676 14.1406 17.6052 14.1776 17.6395C14.2147 17.6739 14.2547 17.7044 14.2976 17.731L19.2162 20.6161L19.2162 26.1758C19.2166 26.2274 19.222 26.2785 19.2325 26.329C19.243 26.3795 19.2583 26.4285 19.2784 26.476C19.2985 26.5235 19.3231 26.5686 19.3521 26.6113C19.3811 26.654 19.414 26.6934 19.4507 26.7296C19.4875 26.7658 19.5275 26.798 19.5706 26.8263C19.6137 26.8547 19.6592 26.8785 19.707 26.8979C19.7548 26.9172 19.8041 26.9317 19.8548 26.9414C19.9055 26.951 19.9566 26.9557 20.0082 26.9553C20.0598 26.9548 20.1108 26.9494 20.1613 26.9389C20.2119 26.9285 20.2609 26.9132 20.3084 26.893C20.3559 26.8729 20.401 26.8484 20.4437 26.8194C20.4863 26.7903 20.5258 26.7575 20.562 26.7207C20.5981 26.6839 20.6304 26.644 20.6587 26.6008Q20.6799 26.5685 20.6978 26.5344Q20.7157 26.5003 20.7302 26.4644C20.7496 26.4166 20.7641 26.3673 20.7737 26.3167C20.7834 26.266 20.788 26.2149 20.7876 26.1633L20.786 20.5784L25.6512 17.7326L25.6622 17.7263C25.7058 17.6998 25.7465 17.6693 25.7842 17.6349C25.8219 17.6004 25.856 17.5627 25.8863 17.5216C25.9166 17.4806 25.9427 17.437 25.9646 17.3908C25.9865 17.3447 26.0036 17.2968 26.0161 17.2473C26.0286 17.1978 26.0363 17.1476 26.039 17.0966C26.0417 17.0456 26.0395 16.9948 26.0323 16.9443C26.0251 16.8937 26.0132 16.8443 25.9963 16.7961Z" clip-rule="evenodd" fill="#41B4CF" fill-opacity="1.000000" fill-rule="evenodd"/>
</svg>
