<svg width="39.233337" height="40.000000" viewBox="0 0 39.2333 40" fill="none" xmlns="http://www.w3.org/2000/svg" xmlns:xlink="http://www.w3.org/1999/xlink">
	<desc>
			Created with Pixso.
	</desc>
	<defs>
		<clipPath id="clip311_3416">
			<rect id="收起" width="39.233334" height="40.000000" transform="matrix(-1 0 0 1 39.2333 0)" fill="white" fill-opacity="0"/>
		</clipPath>
	</defs>
	<g clip-path="url(#clip311_3416)">
		<path id="path" d="M9.87 19.43L13.74 16.73C14.04 16.5 14.45 16.56 14.68 16.85C14.77 16.96 14.81 17.1 14.81 17.25L14.81 22.73C14.81 23.27 14.21 23.6 13.74 23.27L9.86 20.56C9.53 20.23 9.53 19.69 9.87 19.43ZM10.41 13L28.81 13C29.25 13 29.61 12.64 29.61 12.19C29.61 11.75 29.25 11.39 28.81 11.39L10.41 11.39C9.97 11.39 9.61 11.75 9.61 12.19C9.61 12.64 9.96 13 10.41 13ZM10.41 28.6L28.81 28.6C29.25 28.6 29.61 28.23 29.61 27.79C29.61 27.35 29.25 27 28.81 27L10.41 27C9.97 27 9.61 27.35 9.61 27.79C9.61 28.23 9.96 28.6 10.41 28.6ZM17.21 18.19L28.81 18.19C29.25 18.19 29.61 17.83 29.61 17.39C29.61 16.95 29.25 16.6 28.81 16.6L17.21 16.6C16.77 16.6 16.41 16.95 16.41 17.39C16.41 17.83 16.76 18.19 17.21 18.19ZM17.2 23.39L28.81 23.39C29.25 23.39 29.61 23.04 29.61 22.6C29.61 22.15 29.25 21.79 28.81 21.79L17.2 21.79C16.76 21.79 16.4 22.15 16.4 22.6L16.4 22.6C16.41 23.04 16.76 23.39 17.2 23.39Z" fill="#FFFFFF" fill-opacity="1.000000" fill-rule="nonzero"/>
	</g>
</svg>
