<svg width="40.156250" height="40.155762" viewBox="0 0 40.1562 40.1558" fill="none" xmlns="http://www.w3.org/2000/svg" xmlns:xlink="http://www.w3.org/1999/xlink">
	<desc>
			Created with Pixso.
	</desc>
	<defs>
		<clipPath id="clip148_44108">
			<rect id="Bold / Map &amp; Location / Radar" width="40.000000" height="40.000000" transform="translate(0.000000 0.156128) rotate(-0.223663)" fill="white"/>
		</clipPath>
	</defs>
	<g clip-path="url(#clip148_44108)">
		<path id="Vector" d="M33.4121 20.0259C33.4414 27.3896 27.4941 33.3824 20.1309 33.4111C12.7676 33.4399 6.77344 27.4938 6.74609 20.13C6.7168 12.7662 12.6621 6.77344 20.0273 6.74475C27.3906 6.71594 33.3828 12.6621 33.4121 20.0259ZM21.8633 13.3114C20.8574 13.0458 19.8457 13.0137 18.8848 13.1804C18.3418 13.2749 17.8242 12.9104 17.7285 12.3662C17.6348 11.8221 18 11.3044 18.543 11.2098C19.7812 10.995 21.082 11.037 22.373 11.3774C27.1777 12.6449 30.0469 17.5677 28.7793 22.3728C27.5117 27.178 22.5879 30.0458 17.7832 28.7783C12.9785 27.511 10.1113 22.5881 11.3789 17.7831C11.6289 16.8322 12.0234 15.9554 12.5332 15.1713C13.1348 14.2479 14.3398 14.1869 15.0898 14.7899L20.7051 19.2982C21.1348 19.6439 21.2051 20.2734 20.8574 20.704C20.5117 21.1346 19.8828 21.2035 19.4531 20.8577L14.0508 16.5199C13.7324 17.0605 13.4805 17.6542 13.3125 18.2931C12.3262 22.0302 14.5566 25.8588 18.293 26.8445C22.0312 27.8302 25.8594 25.5999 26.8457 21.8628C27.8301 18.1257 25.5996 14.2971 21.8633 13.3114Z" fill-rule="evenodd" fill="#41B4CF"/>
	</g>
</svg>
