<svg width="40.000000" height="40.000000" viewBox="0 0 40 40" fill="none" xmlns="http://www.w3.org/2000/svg" xmlns:xlink="http://www.w3.org/1999/xlink">
	<desc>
			Created with Pixso.
	</desc>
	<defs>
		<clipPath id="clip106_31795">
			<rect id="AI / stroke /chip" width="24.000000" height="24.000000" transform="translate(7.999939 8.000244)" fill="white"/>
		</clipPath>
	</defs>
	<path id="减去顶层" d="M8.61926 8.61914C6.66663 10.5718 6.66663 13.7144 6.66663 19.9998C6.66663 26.2852 6.66663 29.428 8.61926 31.3806C10.5719 33.3333 13.7145 33.3333 19.9999 33.3333C26.2853 33.3333 29.428 33.3333 31.3807 31.3806C33.3333 29.428 33.3333 26.2852 33.3333 19.9998C33.3333 13.7144 33.3333 10.5718 31.3807 8.61914C29.428 6.6665 26.2853 6.6665 19.9999 6.6665C13.7145 6.6665 10.5719 6.6665 8.61926 8.61914ZM13.3318 10C11.4909 10 9.99847 11.4924 9.99847 13.3335C9.99847 15.1743 11.4909 16.6667 13.3318 16.6667C14.0112 16.6667 14.6431 16.4634 15.1701 16.1145L18.0305 18.9749C18.0095 19.0913 17.9985 19.2109 17.9985 19.3335L17.9985 21.7239L15.5468 24.1758C14.9579 23.6516 14.1821 23.3335 13.3318 23.3335C11.4909 23.3335 9.99847 24.8257 9.99847 26.6667C9.99847 28.5078 11.4909 30 13.3318 30C15.1728 30 16.6652 28.5078 16.6652 26.6667C16.6652 26.155 16.5499 25.6704 16.3439 25.2371C16.3888 25.21 16.4312 25.177 16.4699 25.1382L18.9413 22.6667L21.0557 22.6667L23.5271 25.1382C23.5659 25.177 23.6082 25.21 23.6531 25.2371C23.4471 25.6704 23.3318 26.155 23.3318 26.6667C23.3318 28.5078 24.8242 30 26.6652 30C28.5061 30 29.9985 28.5078 29.9985 26.6667C29.9985 24.8257 28.5061 23.3335 26.6652 23.3335C25.8149 23.3335 25.0391 23.6516 24.4503 24.1758L21.9985 21.7239L21.9985 19.3335C21.9985 19.2109 21.9875 19.0913 21.9664 18.9749L24.8269 16.1145C25.3539 16.4634 25.9858 16.6667 26.6652 16.6667C28.5061 16.6667 29.9985 15.1743 29.9985 13.3335C29.9985 11.4924 28.5061 10 26.6652 10C24.8242 10 23.3318 11.4924 23.3318 13.3335C23.3318 14.0127 23.5351 14.6448 23.8841 15.1716L21.2679 17.7878C20.9226 17.5039 20.4805 17.3335 19.9985 17.3335C19.5165 17.3335 19.0744 17.5039 18.7291 17.7878L16.1129 15.1716C16.4619 14.6448 16.6652 14.0127 16.6652 13.3335C16.6652 11.4924 15.1728 10 13.3318 10ZM11.3318 13.3335C11.3318 12.2288 12.2272 11.3335 13.3318 11.3335C14.4364 11.3335 15.3318 12.2288 15.3318 13.3335C15.3318 14.438 14.4364 15.3335 13.3318 15.3335C12.2272 15.3335 11.3318 14.438 11.3318 13.3335ZM24.6652 13.3335C24.6652 12.2288 25.5606 11.3335 26.6652 11.3335C27.7697 11.3335 28.6652 12.2288 28.6652 13.3335C28.6652 14.438 27.7697 15.3335 26.6652 15.3335C25.5606 15.3335 24.6652 14.438 24.6652 13.3335ZM19.3318 19.3335C19.3318 18.9653 19.6303 18.6667 19.9985 18.6667C20.3667 18.6667 20.6652 18.9653 20.6652 19.3335L20.6652 21.3335L19.3318 21.3335L19.3318 19.3335ZM11.3318 26.6667C11.3318 25.5623 12.2272 24.6667 13.3318 24.6667C14.4364 24.6667 15.3318 25.5623 15.3318 26.6667C15.3318 27.7712 14.4364 28.6667 13.3318 28.6667C12.2272 28.6667 11.3318 27.7712 11.3318 26.6667ZM26.6652 24.6667C25.5606 24.6667 24.6652 25.5623 24.6652 26.6667C24.6652 27.7712 25.5606 28.6667 26.6652 28.6667C27.7697 28.6667 28.6652 27.7712 28.6652 26.6667C28.6652 25.5623 27.7697 24.6667 26.6652 24.6667Z" clip-rule="evenodd" fill-rule="evenodd" fill="#41B4CF" fill-opacity="1.000000"/>
</svg>
