<svg width="51.000000" height="40.000000" viewBox="0 0 51 40" fill="none" xmlns="http://www.w3.org/2000/svg" xmlns:xlink="http://www.w3.org/1999/xlink">
	<desc>
			Created with Pixso.
	</desc>
	<defs/>
	<rect id="画板 216" rx="12.000000" width="51.000000" height="40.000000" fill="#FFFFFF" fill-opacity="0.2"/>
	<path id="path" d="M28.6641 15.3906L18.1562 15.3906L21.2812 12.2656C21.5938 11.9531 21.5938 11.4844 21.2812 11.1719C20.9688 10.8594 20.5 10.8594 20.1875 11.1719L15.7344 15.5859C15.5781 15.7422 15.5 15.9375 15.5 16.1328C15.5 16.3281 15.5781 16.5234 15.7344 16.6797L20.1484 21.0938C20.4609 21.4062 20.9297 21.4062 21.2422 21.0938C21.5547 20.7812 21.5547 20.3125 21.2422 20L18.1953 16.9531L28.6641 16.9531C31.5938 16.9531 33.9375 19.2969 33.9375 22.2266C33.9375 25.1562 31.5938 27.5 28.6641 27.5L20.6562 27.5C20.2266 27.5 19.875 27.8516 19.875 28.2812C19.875 28.7109 20.2266 29.0625 20.6562 29.0625L28.6641 29.0625C32.4531 29.0625 35.5 26.0156 35.5 22.2266C35.5 18.4375 32.4531 15.3906 28.6641 15.3906Z" fill-rule="nonzero" fill="#FFFFFF"/>
</svg>
