<svg width="27.978027" height="22.639679" viewBox="0 0 27.978 22.6397" fill="none" xmlns="http://www.w3.org/2000/svg" xmlns:xlink="http://www.w3.org/1999/xlink">
	<desc>
			Created with Pixso.
	</desc>
	<defs/>
	<path id="path" d="M27.3638 11.717C27.7539 12.0885 27.958 12.4972 27.9766 12.943C27.9951 13.3889 27.8467 13.7604 27.5308 14.0576C27.1777 14.3734 26.7695 14.522 26.3047 14.5034C25.8403 14.4848 25.4688 14.3548 25.1904 14.1133C25.0977 14.039 24.814 13.779 24.3403 13.3331C23.8667 12.8873 23.3003 12.3532 22.6406 11.731C21.9814 11.1086 21.2754 10.4399 20.5229 9.72473C19.771 9.00958 19.0601 8.33618 18.3916 7.70462C17.7227 7.07303 17.147 6.52502 16.6641 6.06064C16.1812 5.59625 15.8745 5.30832 15.7446 5.19687C15.1499 4.65814 14.5649 4.3981 13.9893 4.41666C13.4131 4.43524 12.8467 4.69531 12.2896 5.19687C12.1035 5.36404 11.7554 5.68448 11.2446 6.15817C10.7334 6.63184 10.144 7.18448 9.4751 7.81607C8.80615 8.44763 8.10059 9.10709 7.35742 9.7944C6.61426 10.4817 5.92725 11.1226 5.29541 11.717C4.66406 12.3115 4.12061 12.8177 3.66553 13.2356C3.21045 13.6536 2.93652 13.8997 2.84326 13.974C2.56494 14.1969 2.19336 14.3177 1.729 14.3362C1.26465 14.3548 0.865234 14.2155 0.530762 13.9183C0.15918 13.5839 -0.0170898 13.1799 0.00146484 12.7062C0.0200195 12.2325 0.177734 11.8563 0.475098 11.5777C0.586426 11.4662 0.930176 11.1412 1.50586 10.6024C2.08203 10.0638 2.76904 9.42288 3.56787 8.67984C4.3667 7.9368 5.22559 7.13803 6.14551 6.28354C7.06494 5.42905 7.91943 4.63028 8.70898 3.88724C9.49805 3.1442 10.1763 2.508 10.7427 1.97858C11.3096 1.44916 11.6392 1.138 11.7319 1.04514C12.438 0.357819 13.1997 0.00952148 14.0171 0.000213623C14.8345 -0.00906372 15.5308 0.264923 16.1064 0.822205C16.2183 0.9151 16.4502 1.13336 16.8032 1.47702C17.1562 1.82068 17.5879 2.23862 18.0991 2.7309C18.6099 3.22314 19.1812 3.77579 19.8125 4.38879C20.4443 5.0018 21.085 5.61945 21.7354 6.24176C22.3853 6.86404 23.0215 7.48169 23.644 8.0947C24.2661 8.7077 24.8374 9.26035 25.3574 9.75262C25.8774 10.2449 26.314 10.6675 26.667 11.0204L27.3638 11.717ZM12.2896 7.67676C12.7539 7.24951 13.311 7.02194 13.9609 6.99408C14.6113 6.96622 15.1963 7.19376 15.7168 7.67676C15.7725 7.73248 15.9395 7.89038 16.2183 8.15042L17.2769 9.12567C17.6855 9.51578 18.1455 9.9523 18.6562 10.4353C19.167 10.9182 19.6919 11.4012 20.2305 11.8842C21.4751 13.0359 22.8682 14.3269 24.4102 15.7573L24.4102 21.0515C24.4102 21.4601 24.2568 21.8223 23.9502 22.1381C23.644 22.4539 23.2305 22.6211 22.7104 22.6397L17.4443 22.6397L17.4443 18.3208C17.4443 17.7078 17.1562 17.4012 16.5806 17.4012L11.2583 17.4012C10.9424 17.4012 10.7241 17.4941 10.6035 17.6799C10.4829 17.8657 10.4224 18.0793 10.4224 18.3208C10.4224 18.4322 10.418 18.7155 10.4087 19.1706C10.3994 19.6257 10.3945 20.1133 10.3945 20.6335L10.3945 22.6397L5.29541 22.6397C4.75684 22.6397 4.32959 22.519 4.01367 22.2775C3.69775 22.0359 3.54004 21.6923 3.54004 21.2465L3.54004 15.7016C5.06348 14.3083 6.44727 13.0452 7.69189 11.912C8.21191 11.4291 8.73193 10.9507 9.25195 10.4771C9.77246 10.0034 10.2461 9.5715 10.6733 9.1814C11.1006 8.79129 11.458 8.46158 11.7461 8.19223C12.0337 7.92288 12.2148 7.75104 12.2896 7.67676Z" fill-rule="nonzero" fill="#FFFFFF"/>
</svg>
