<svg width="17.195801" height="29.040283" viewBox="0 0 17.1958 29.0403" fill="none" xmlns="http://www.w3.org/2000/svg" xmlns:xlink="http://www.w3.org/1999/xlink">
	<desc>
			Created with Pixso.
	</desc>
	<defs/>
	<path id="path" d="M10.2461 20.8223L10.2461 1C10.2461 0.447754 9.79834 0 9.24609 0L7.97363 0C7.42139 0 6.97363 0.447754 6.97363 1L6.97363 20.6584C6.97363 21.5493 5.89648 21.9956 5.2666 21.3657L2.63281 18.7319C2.23242 18.3318 1.58057 18.343 1.19434 18.7566L0.269043 19.7483C-0.0986328 20.1421 -0.0878906 20.7566 0.292969 21.1377L7.90283 28.7476C8.29346 29.1379 8.92627 29.1379 9.31689 28.7476L16.9028 21.1616C17.2935 20.7712 17.2935 20.1379 16.9028 19.7476L16.0259 18.8708C15.6357 18.4802 15.0024 18.4802 14.6118 18.8708L11.9531 21.5293C11.3232 22.1592 10.2461 21.7131 10.2461 20.8223Z" fill-rule="nonzero" fill="#FFFFFF"/>
</svg>
