<svg width="33.000000" height="42.000000" viewBox="0 0 33 42" fill="none" xmlns="http://www.w3.org/2000/svg" xmlns:xlink="http://www.w3.org/1999/xlink">
	<desc>
			Created with Pixso.
	</desc>
	<defs/>
	<path id="形状" d="M1 0L31 0C31.8297 0 32.5 0.670311 32.5 1.5L32.5 40.5C32.5 41.3297 31.8297 42 31 42L1 42C0.170288 42 -0.5 41.3297 -0.5 40.5L-0.5 1.5C-0.5 0.670311 0.170288 0 1 0ZM22.1687 26.25L29.125 26.25L29.125 3.375L2.875 3.375L2.875 26.25L9.82654 26.25L10.0703 27.4078C10.6375 30.2109 13.1312 32.25 16 32.25C18.8688 32.25 21.3625 30.2109 21.925 27.4078L22.1687 26.25ZM7 12.9844L25 12.9844C25.2063 12.9844 25.375 12.8156 25.375 12.6094L25.375 10.3594C25.375 10.1531 25.2063 9.98438 25 9.98438L7 9.98438C6.7937 9.98438 6.625 10.1531 6.625 10.3594L6.625 12.6094C6.625 12.8156 6.7937 12.9844 7 12.9844ZM25 20.4844L7 20.4844C6.7937 20.4844 6.625 20.3156 6.625 20.1094L6.625 17.8594C6.625 17.6531 6.7937 17.4844 7 17.4844L25 17.4844C25.2063 17.4844 25.375 17.6531 25.375 17.8594L25.375 20.1094C25.375 20.3156 25.2063 20.4844 25 20.4844ZM2.875 29.2031L2.875 38.625L29.125 38.625L29.125 29.2031L24.5359 29.2031C23.9922 30.7406 23.0359 32.1234 21.7656 33.1734C20.1484 34.5141 18.1 35.25 16 35.25C13.9 35.25 11.8516 34.5094 10.2344 33.1734C8.96411 32.1234 8.00781 30.7406 7.46411 29.2031L2.875 29.2031Z" clip-rule="evenodd" fill="#FFFFFF" fill-opacity="1.000000" fill-rule="evenodd"/>
</svg>
