<svg width="52.966797" height="55.921387" viewBox="0 0 52.9668 55.9214" fill="none" xmlns="http://www.w3.org/2000/svg" xmlns:xlink="http://www.w3.org/1999/xlink">
	<desc>
			Created with Pixso.
	</desc>
	<defs/>
	<path id="Vector" d="M26.4941 20.3467C24.625 20.3467 22.875 21.0718 21.5488 22.397C20.2305 23.7217 19.5 25.4717 19.5 27.3408C19.5 29.2095 20.2305 30.9595 21.5488 32.2842C22.875 33.603 24.625 34.3345 26.4941 34.3345C28.3613 34.3345 30.1113 33.603 31.4375 32.2842C32.7559 30.9595 33.4863 29.2095 33.4863 27.3408C33.4863 25.4717 32.7559 23.7217 31.4375 22.397C30.7891 21.7446 30.0195 21.2275 29.1699 20.876C28.3223 20.5239 27.4121 20.3442 26.4941 20.3467ZM52.2617 35.0654L48.1738 31.5718C48.3691 30.3843 48.4688 29.1719 48.4688 27.9658C48.4688 26.7593 48.3691 25.5405 48.1738 24.3594L52.2617 20.8657C52.5703 20.6011 52.791 20.249 52.8965 19.8564C53 19.4634 52.9805 19.0479 52.8438 18.6655L52.7871 18.5029C51.6621 15.3574 49.9766 12.4414 47.8125 9.89697L47.6992 9.76562C47.4375 9.45654 47.0859 9.23438 46.6953 9.12842C46.3027 9.02246 45.8887 9.0376 45.5059 9.17188L40.4316 10.978C38.5566 9.44043 36.4688 8.22803 34.2051 7.38428L33.2246 2.07812C33.1504 1.67822 32.957 1.31055 32.668 1.02393C32.3809 0.736816 32.0117 0.544434 31.6113 0.47168L31.4434 0.44043C28.1934 -0.146973 24.7676 -0.146973 21.5176 0.44043L21.3496 0.47168C20.9492 0.544434 20.5801 0.736816 20.293 1.02393C20.0039 1.31055 19.8105 1.67822 19.7363 2.07812L18.75 7.40918C16.5078 8.25977 14.4199 9.46924 12.5684 10.9907L7.45508 9.17188C7.07227 9.03662 6.6582 9.021 6.26562 9.12695C5.875 9.23291 5.52344 9.45557 5.26172 9.76562L5.15039 9.89697C2.98828 12.4443 1.30273 15.3594 0.173828 18.5029L0.119141 18.6655C-0.162109 19.4468 0.0683594 20.3218 0.699219 20.8657L4.83789 24.397C4.64258 25.5718 4.54883 26.772 4.54883 27.9595C4.54883 29.1592 4.64258 30.3594 4.83789 31.522L0.712891 35.0532C0.402344 35.3174 0.181641 35.6694 0.078125 36.0625C-0.0253906 36.4556 -0.0078125 36.8706 0.130859 37.2529L0.1875 37.4155C1.31836 40.5596 2.98633 43.4658 5.16211 46.022L5.27539 46.1533C5.53711 46.4624 5.88672 46.6846 6.2793 46.7905C6.66992 46.8965 7.08594 46.8813 7.46875 46.7471L12.5801 44.9282C14.4434 46.4595 16.5176 47.6719 18.7617 48.5093L19.75 53.8408C19.8242 54.2402 20.0176 54.6079 20.3047 54.895C20.5938 55.1821 20.9629 55.3745 21.3613 55.4468L21.5312 55.478C24.8125 56.0688 28.1738 56.0688 31.4551 55.478L31.625 55.4468C32.0254 55.3745 32.3926 55.1821 32.6816 54.895C32.9688 54.6079 33.1621 54.2402 33.2363 53.8408L34.2188 48.5342C36.4805 47.6846 38.5684 46.478 40.4434 44.9404L45.5176 46.7471C45.9004 46.8823 46.3164 46.8979 46.707 46.792C47.0996 46.686 47.4492 46.4629 47.7129 46.1533L47.8242 46.022C50 43.4531 51.668 40.5596 52.7988 37.4155L52.8555 37.2529C53.125 36.478 52.8926 35.6094 52.2617 35.0654ZM26.4941 38.3281C20.4238 38.3281 15.5059 33.4092 15.5059 27.3408C15.5059 21.272 20.4238 16.353 26.4941 16.353C32.5625 16.353 37.4805 21.272 37.4805 27.3408C37.4805 33.4092 32.5625 38.3281 26.4941 38.3281Z" fill-rule="evenodd" fill="#FFFFFF"/>
</svg>
