<svg width="24.000000" height="24.000000" viewBox="0 0 24 24" fill="none" xmlns="http://www.w3.org/2000/svg" xmlns:xlink="http://www.w3.org/1999/xlink">
	<desc>
			Created with Pixso.
	</desc>
	<defs>
		<clipPath id="clip11_39579">
			<rect id="style=关闭2-默认" width="24.000000" height="24.000000" fill="white"/>
		</clipPath>
	</defs>
	<g clip-path="url(#clip11_39579)">
		<path id="vector (Stroke)" d="M21.25 12C21.25 6.89136 17.1084 2.75 12 2.75C6.8916 2.75 2.75 6.89136 2.75 12C2.75 17.1086 6.8916 21.25 12 21.25C17.1084 21.25 21.25 17.1086 21.25 12ZM12 1.25C17.937 1.25 22.75 6.06299 22.75 12C22.75 17.937 17.937 22.75 12 22.75C6.06299 22.75 1.25 17.937 1.25 12C1.25 6.06299 6.06299 1.25 12 1.25Z" fill-rule="evenodd" fill="#FFFFFF"/>
		<path id="vector (Stroke)" d="M15.5303 8.46973C15.8232 8.76257 15.8232 9.23743 15.5303 9.53027L9.53027 15.5303C9.2373 15.8231 8.7627 15.8231 8.46973 15.5303C8.17676 15.2374 8.17676 14.7625 8.46973 14.4696L14.4697 8.46973C14.7627 8.17676 15.2373 8.17676 15.5303 8.46973Z" fill-rule="evenodd" fill="#FFFFFF"/>
		<path id="vector (Stroke)" d="M15.5303 15.5303C15.2373 15.8232 14.7627 15.8232 14.4697 15.5303L8.46973 9.53027C8.17676 9.23743 8.17676 8.76257 8.46973 8.46973C8.7627 8.17676 9.2373 8.17676 9.53027 8.46973L15.5303 14.4697C15.8232 14.7626 15.8232 15.2374 15.5303 15.5303Z" fill-rule="evenodd" fill="#FFFFFF"/>
	</g>
</svg>
