<svg width="24.000000" height="24.000000" viewBox="0 0 24 24" fill="none" xmlns="http://www.w3.org/2000/svg" xmlns:xlink="http://www.w3.org/1999/xlink">
	<desc>
			Created with Pixso.
	</desc>
	<defs/>
	<path id="vector (Stroke)" d="M12 2.75C13.2427 2.75 14.25 3.75732 14.25 5C14.25 6.24268 13.2427 7.25 12 7.25C10.7573 7.25 9.75 6.24268 9.75 5C9.75 3.75732 10.7573 2.75 12 2.75ZM12.75 5C12.75 4.58594 12.4141 4.25 12 4.25C11.5859 4.25 11.25 4.58594 11.25 5C11.25 5.41406 11.5859 5.75 12 5.75C12.4141 5.75 12.75 5.41406 12.75 5Z" fill-rule="evenodd" fill="#FFFFFF"/>
	<path id="vector (Stroke)" d="M12 9.75C13.2427 9.75 14.25 10.7573 14.25 12C14.25 13.2427 13.2427 14.25 12 14.25C10.7573 14.25 9.75 13.2427 9.75 12C9.75 10.7573 10.7573 9.75 12 9.75ZM12.75 12C12.75 11.5859 12.4141 11.25 12 11.25C11.5859 11.25 11.25 11.5859 11.25 12C11.25 12.4141 11.5859 12.75 12 12.75C12.4141 12.75 12.75 12.4141 12.75 12Z" fill-rule="evenodd" fill="#FFFFFF"/>
	<path id="vector (Stroke)" d="M12 16.75C13.2427 16.75 14.25 17.7573 14.25 19C14.25 20.2427 13.2427 21.25 12 21.25C10.7573 21.25 9.75 20.2427 9.75 19C9.75 17.7573 10.7573 16.75 12 16.75ZM12.75 19C12.75 18.5859 12.4141 18.25 12 18.25C11.5859 18.25 11.25 18.5859 11.25 19C11.25 19.4141 11.5859 19.75 12 19.75C12.4141 19.75 12.75 19.4141 12.75 19Z" fill-rule="evenodd" fill="#FFFFFF"/>
</svg>
