<svg width="28.000000" height="28.000000" viewBox="0 0 28 28" fill="none" xmlns="http://www.w3.org/2000/svg" xmlns:xlink="http://www.w3.org/1999/xlink">
	<desc>
			Created with Pixso.
	</desc>
	<defs/>
	<path id="vector (Stroke)" d="M14 3.2085C15.4497 3.2085 16.625 4.38379 16.625 5.8335C16.625 7.2832 15.4497 8.4585 14 8.4585C12.5503 8.4585 11.375 7.2832 11.375 5.8335C11.375 4.38379 12.5503 3.2085 14 3.2085Z" fill-rule="evenodd" fill="#41B4CF"/>
	<path id="vector (Stroke)" d="M14 11.375C15.4497 11.375 16.625 12.5503 16.625 14C16.625 15.4497 15.4497 16.625 14 16.625C12.5503 16.625 11.375 15.4497 11.375 14C11.375 12.5503 12.5503 11.375 14 11.375Z" fill-rule="evenodd" fill="#41B4CF"/>
	<path id="vector (Stroke)" d="M14 19.5415C15.4497 19.5415 16.625 20.7168 16.625 22.1665C16.625 23.6162 15.4497 24.7915 14 24.7915C12.5503 24.7915 11.375 23.6162 11.375 22.1665C11.375 20.7168 12.5503 19.5415 14 19.5415Z" fill-rule="evenodd" fill="#41B4CF"/>
</svg>
