<svg width="24.000000" height="24.000000" viewBox="0 0 24 24" fill="none" xmlns="http://www.w3.org/2000/svg" xmlns:xlink="http://www.w3.org/1999/xlink">
	<desc>
			Created with Pixso.
	</desc>
	<defs/>
	<path id="vector (Stroke)" d="M4.33691 16.0713L3.94287 19.6895C3.9082 20.0068 4.17627 20.2749 4.49365 20.2402L8.11182 19.8467C8.45117 19.8096 8.76807 19.6577 9.00977 19.416L20.001 8.4248C20.5869 7.83887 20.5869 6.88916 20.001 6.30322L17.8799 4.18213C17.2939 3.59619 16.3442 3.59619 15.7583 4.18213L4.76709 15.1733C4.52539 15.415 4.37354 15.7319 4.33691 16.0713ZM18.9404 3.12158L21.062 5.24268C22.2334 6.41406 22.2334 8.31396 21.062 9.48535L10.0703 20.4766C9.5874 20.96 8.95361 21.2637 8.27393 21.3374L4.65625 21.7314C3.38574 21.8701 2.31299 20.7974 2.45166 19.5269L2.8457 15.9092C2.91943 15.2295 3.22314 14.5957 3.70654 14.1128L14.6978 3.12158C15.8696 1.94971 17.769 1.94971 18.9404 3.12158Z" fill-rule="evenodd" fill="#FFFFFF"/>
	<path id="vector (Stroke)" d="M20.001 6.30322L17.8799 4.18213C17.2939 3.59619 16.3442 3.59619 15.7583 4.18213L14.4854 5.45459L18.728 9.69727L20.001 8.4248C20.5869 7.83887 20.5869 6.88916 20.001 6.30322ZM18.728 11.8188L12.3643 5.45459L14.6978 3.12158C15.8691 1.94971 17.7686 1.94971 18.9404 3.12158L21.0615 5.24268C22.2334 6.41406 22.2334 8.31396 21.0615 9.48535L18.728 11.8188Z" fill-rule="evenodd" fill="#FFFFFF"/>
</svg>
