<svg width="21.500000" height="21.500000" viewBox="0 0 21.5 21.5" fill="none" xmlns="http://www.w3.org/2000/svg" xmlns:xlink="http://www.w3.org/1999/xlink">
	<desc>
			Created with Pixso.
	</desc>
	<defs/>
	<path id="vector (Stroke)" d="M0 6.75C0 3.02209 3.02197 0 6.75 0L14.75 0C18.478 0 21.5 3.02209 21.5 6.75L21.5 14.75C21.5 18.4779 18.478 21.5 14.75 21.5L6.75 21.5C3.02197 21.5 0 18.4779 0 14.75L0 6.75ZM6.75 1.5C3.85059 1.5 1.5 3.85046 1.5 6.75L1.5 14.75C1.5 17.6495 3.85059 20 6.75 20L14.75 20C17.6494 20 20 17.6495 20 14.75L20 6.75C20 3.85046 17.6494 1.5 14.75 1.5L6.75 1.5Z" fill-rule="evenodd" fill="#FFFFFF"/>
	<path id="vector (Stroke)" d="M7.21973 7.21973C7.51245 6.92676 7.98755 6.92676 8.28027 7.21973L14.2803 13.2197C14.5732 13.5126 14.5732 13.9874 14.2803 14.2803C13.9873 14.5732 13.5125 14.5732 13.2197 14.2803L7.21973 8.28027C6.92676 7.98743 6.92676 7.51257 7.21973 7.21973Z" fill-rule="evenodd" fill="#FFFFFF"/>
	<path id="vector (Stroke)" d="M14.2803 7.21973C14.5732 7.51257 14.5732 7.98743 14.2803 8.28027L8.28027 14.2803C7.98755 14.5731 7.51245 14.5731 7.21973 14.2803C6.92676 13.9874 6.92676 13.5125 7.21973 13.2196L13.2197 7.21973C13.5125 6.92676 13.9875 6.92676 14.2803 7.21973Z" fill-rule="evenodd" fill="#FFFFFF"/>
</svg>
