<svg width="24.000000" height="24.000000" viewBox="0 0 24 24" fill="none" xmlns="http://www.w3.org/2000/svg" xmlns:xlink="http://www.w3.org/1999/xlink">
	<desc>
			Created with Pixso.
	</desc>
	<defs>
		<clipPath id="clip238_8526">
			<rect id="检查" width="24.000000" height="24.000000" fill="white" fill-opacity="0"/>
		</clipPath>
	</defs>
	<g clip-path="url(#clip238_8526)">
		<path id="path" d="M11.11 2.5C15.72 2.5 19.45 6.23 19.45 10.83C19.45 12.86 18.72 14.71 17.52 16.15L20.77 19.39C21.35 19.97 21.35 20.91 20.79 21.49L20.77 21.51L16.46 17.22C15.01 18.43 13.15 19.16 11.11 19.16C6.51 19.16 2.78 15.43 2.78 10.83C2.78 6.23 6.51 2.5 11.11 2.5ZM11.11 4C7.34 4 4.28 7.06 4.28 10.83C4.28 14.6 7.34 17.66 11.11 17.66C14.89 17.66 17.95 14.6 17.95 10.83C17.95 7.06 14.89 4 11.11 4ZM10.06 8.47L12.53 10.94L13.93 9.53C14.51 8.95 15.45 8.95 16.04 9.51L16.06 9.53L13.06 12.53C12.76 12.82 12.29 12.82 12 12.53L9.53 10.06L8.12 11.47C7.54 12.05 6.6 12.06 6.01 11.49L6 11.47L9 8.47C9.29 8.18 9.76 8.18 10.06 8.47Z" fill="#FFFFFF" fill-opacity="1.000000" fill-rule="nonzero"/>
	</g>
</svg>
