<svg width="48.000000" height="48.000000" viewBox="0 0 48 48" fill="none" xmlns="http://www.w3.org/2000/svg" xmlns:xlink="http://www.w3.org/1999/xlink">
	<desc>
			Created with Pixso.
	</desc>
	<defs/>
	<g opacity="0.000000">
		<rect id="矩形" width="48.000000" height="48.000000" fill="#1677FF"/>
	</g>
	<path id="形状" d="M9 3L39 3C39.8301 3 40.5 3.67041 40.5 4.5L40.5 43.5C40.5 44.3296 39.8301 45 39 45L9 45C8.16992 45 7.5 44.3296 7.5 43.5L7.5 4.5C7.5 3.67041 8.16992 3 9 3ZM30.1689 29.25L37.125 29.25L37.125 6.375L10.875 6.375L10.875 29.25L17.8262 29.25L18.0703 30.4077C18.6377 33.2109 21.1309 35.25 24 35.25C26.8691 35.25 29.3623 33.2109 29.9248 30.4077L30.1689 29.25ZM15 15.9844L33 15.9844C33.2061 15.9844 33.375 15.8154 33.375 15.6094L33.375 13.3594C33.375 13.1533 33.2061 12.9844 33 12.9844L15 12.9844C14.7939 12.9844 14.625 13.1533 14.625 13.3594L14.625 15.6094C14.625 15.8154 14.7939 15.9844 15 15.9844ZM33 23.4844L15 23.4844C14.7939 23.4844 14.625 23.3154 14.625 23.1094L14.625 20.8594C14.625 20.6533 14.7939 20.4844 15 20.4844L33 20.4844C33.2061 20.4844 33.375 20.6533 33.375 20.8594L33.375 23.1094C33.375 23.3154 33.2061 23.4844 33 23.4844ZM10.875 32.2031L10.875 41.625L37.125 41.625L37.125 32.2031L32.5361 32.2031C31.9922 33.7407 31.0361 35.1235 29.7656 36.1733C28.1484 37.5142 26.0996 38.25 24 38.25C21.9004 38.25 19.8516 37.5093 18.2344 36.1733C16.9639 35.1235 16.0078 33.7407 15.4639 32.2031L10.875 32.2031Z" clip-rule="evenodd" fill-rule="evenodd" fill="#FFFFFF" fill-opacity="1.000000"/>
</svg>
