<svg width="16.000000" height="16.000000" viewBox="0 0 16 16" fill="none" xmlns="http://www.w3.org/2000/svg" xmlns:xlink="http://www.w3.org/1999/xlink">
	<desc>
			Created with Pixso.
	</desc>
	<defs/>
	<path id="path" d="M7.99023 0C9.09961 0 10.1387 0.211548 11.1113 0.634644C12.082 1.05774 12.9316 1.62976 13.6582 2.35083C14.3848 3.0719 14.957 3.91809 15.375 4.8894C15.791 5.86072 16 6.90051 16 8.00891C16 9.11731 15.791 10.1542 15.375 11.1195C14.957 12.085 14.3848 12.9312 13.6582 13.6581C12.9316 14.3851 12.082 14.9572 11.1113 15.3743C10.1387 15.7914 9.09961 16 7.99023 16C6.88281 16 5.8457 15.7914 4.88086 15.3743C3.91602 14.9572 3.06836 14.3851 2.3418 13.6581C1.61523 12.9312 1.04297 12.085 0.625 11.1195C0.208984 10.1542 0 9.11731 0 8.00891C0 6.90051 0.208984 5.86072 0.625 4.8894C1.04297 3.91809 1.61523 3.0719 2.3418 2.35083C3.06836 1.62976 3.91602 1.05774 4.88086 0.634644C5.8457 0.211548 6.88281 0 7.99023 0ZM8.00977 13.4794C8.31836 13.4794 8.57812 13.375 8.78711 13.1665C8.99609 12.9579 9.09961 12.7047 9.09961 12.4067C9.09961 12.0968 8.99609 11.8376 8.78711 11.629C8.57812 11.4205 8.31836 11.3162 8.00977 11.3162C7.69922 11.3162 7.43945 11.4205 7.23047 11.629C7.02344 11.8376 6.91797 12.0968 6.91797 12.4067C6.91797 12.7047 7.02344 12.9579 7.23047 13.1665C7.43945 13.375 7.69922 13.4794 8.00977 13.4794ZM8.91992 9.08154C8.9082 8.89087 9.02734 8.68823 9.27734 8.47375C9.5293 8.25928 9.80859 8.02087 10.1191 7.75867C10.4277 7.49646 10.7148 7.20154 10.9766 6.87378C11.2383 6.54602 11.3809 6.1676 11.4062 5.73853C11.4297 5.2738 11.3809 4.83875 11.2617 4.43347C11.1426 4.02832 10.9473 3.67969 10.6719 3.3877C10.3984 3.0957 10.0449 2.86328 9.60938 2.69055C9.17383 2.5177 8.66406 2.43127 8.08008 2.43127C7.35352 2.43127 6.74805 2.55945 6.26562 2.81567C5.7832 3.0719 5.39258 3.38171 5.0957 3.74524C4.79688 4.10876 4.58789 4.48413 4.46875 4.87146C4.34961 5.25879 4.29688 5.58362 4.30859 5.84583C4.32031 6.15564 4.41797 6.38208 4.60352 6.52515C4.78711 6.66821 4.98828 6.74268 5.20312 6.74866C5.41602 6.75452 5.61328 6.69495 5.79297 6.56982C5.9707 6.4447 6.06055 6.26294 6.06055 6.02454C6.06055 5.88159 6.10547 5.70581 6.19531 5.49719C6.2832 5.2887 6.40625 5.08899 6.56055 4.89832C6.7168 4.70764 6.9043 4.54675 7.12305 4.41565C7.34375 4.28455 7.5918 4.21899 7.86523 4.21899C8.40234 4.21899 8.83203 4.35303 9.15234 4.62122C9.47461 4.8894 9.62305 5.22607 9.59961 5.63123C9.59961 5.83386 9.54102 6.02161 9.42188 6.19446C9.30273 6.36719 9.15039 6.53406 8.96484 6.69495C8.78125 6.85583 8.58398 7.01672 8.375 7.17761C8.16602 7.3385 7.9707 7.50537 7.78516 7.67822C7.60156 7.85107 7.44531 8.0387 7.32031 8.24133C7.19531 8.44397 7.12695 8.66443 7.11523 8.90283L7.13281 9.58215C7.13281 9.76086 7.2168 9.93066 7.38281 10.0917C7.55078 10.2526 7.77148 10.3389 8.04492 10.3508C8.31836 10.3389 8.53711 10.2495 8.69727 10.0826C8.85742 9.91577 8.93164 9.7251 8.91992 9.51062L8.91992 9.08154Z" fill-rule="nonzero" fill="#FFFFFF"/>
</svg>
