<svg width="29.040527" height="17.195557" viewBox="0 0 29.0405 17.1956" fill="none" xmlns="http://www.w3.org/2000/svg" xmlns:xlink="http://www.w3.org/1999/xlink">
	<desc>
			Created with Pixso.
	</desc>
	<defs/>
	<path id="path" d="M8.21826 6.94922L28.0405 6.94922C28.5928 6.94922 29.0405 7.39697 29.0405 7.94922L29.0405 9.22217C29.0405 9.77441 28.5928 10.2222 28.0405 10.2222L8.38184 10.2222C7.49121 10.2222 7.04492 11.2993 7.6748 11.9292L10.3086 14.563C10.7085 14.9629 10.6973 15.615 10.2837 16.001L9.29248 16.9265C8.89844 17.2942 8.28369 17.2837 7.90283 16.9026L0.292969 9.29272C-0.0976562 8.90234 -0.0976562 8.26904 0.292969 7.87866L7.87891 0.292725C8.26953 -0.0976562 8.90234 -0.0976562 9.29297 0.292725L10.1699 1.16943C10.5605 1.56006 10.5605 2.19312 10.1699 2.58374L7.51123 5.24219C6.88135 5.87207 7.32764 6.94922 8.21826 6.94922Z" fill-rule="nonzero" fill="#FFFFFF"/>
</svg>
