<svg width="29.040283" height="17.195312" viewBox="0 0 29.0403 17.1953" fill="none" xmlns="http://www.w3.org/2000/svg" xmlns:xlink="http://www.w3.org/1999/xlink">
	<desc>
			Created with Pixso.
	</desc>
	<defs/>
	<path id="path" d="M8.21814 6.94922L28.0403 6.94922C28.5925 6.94922 29.0403 7.39746 29.0403 7.94922L29.0403 9.22266C29.0403 9.77441 28.5925 10.2227 28.0403 10.2227L8.38171 10.2227C7.49084 10.2227 7.04468 11.2998 7.67468 11.9297L10.3083 14.5635C10.7085 14.9629 10.6973 15.6152 10.2836 16.001L9.29199 16.9268C8.89807 17.2939 8.28369 17.2842 7.90259 16.9023L0.292847 9.29297C-0.0976562 8.90234 -0.0976562 8.26953 0.292847 7.87891L7.87866 0.292969C8.26917 -0.0976562 8.90234 -0.0976562 9.29285 0.292969L10.1696 1.16992C10.5601 1.56055 10.5601 2.19336 10.1696 2.58398L7.51099 5.24219C6.8811 5.87207 7.32727 6.94922 8.21814 6.94922Z" fill-rule="nonzero" fill="#41B4CF"/>
</svg>
