<svg width="24.000000" height="24.000000" viewBox="0 0 24 24" fill="none" xmlns="http://www.w3.org/2000/svg" xmlns:xlink="http://www.w3.org/1999/xlink">
	<desc>
			Created with Pixso.
	</desc>
	<defs/>
	<path id="vector (Stroke)" d="M11.9999 9.75C10.7549 9.75 9.74994 10.7549 9.74994 12C9.74994 13.2451 10.7549 14.25 11.9999 14.25C13.2449 14.25 14.2499 13.2451 14.2499 12C14.2499 10.7549 13.2449 9.75 11.9999 9.75ZM8.24994 12C8.24994 9.92676 9.92651 8.25 11.9999 8.25C14.0734 8.25 15.7499 9.92676 15.7499 12C15.7499 14.0732 14.0734 15.75 11.9999 15.75C9.92651 15.75 8.24994 14.0732 8.24994 12Z" fill-rule="evenodd" fill="#FFFFFF"/>
	<path id="vector (Stroke)" d="M2.28268 9.27441C4.69287 5.94336 8.19608 3.9707 12 3.9707C15.804 3.9707 19.3074 5.94336 21.7176 9.27441C22.2791 10.0488 22.535 11.043 22.535 11.9961C22.535 12.9492 22.2791 13.9434 21.7172 14.7168C19.3071 18.0479 15.8039 20.0205 12 20.0205C8.19586 20.0205 4.69254 18.0479 2.28235 14.7168C1.72076 13.9424 1.46497 12.9482 1.46497 11.9961C1.46497 11.043 1.72089 10.0479 2.28268 9.27441ZM12 5.4707C8.74405 5.4707 5.66742 7.15527 3.49759 10.1543L3.49689 10.1553C3.15894 10.6201 2.96497 11.2871 2.96497 11.9961C2.96497 12.7041 3.15894 13.3711 3.49689 13.8369L3.49759 13.8379C5.66742 16.8359 8.74405 18.5205 12 18.5205C15.2559 18.5205 18.3325 16.8359 20.5023 13.8379L20.5031 13.8369C20.841 13.3711 21.035 12.7041 21.035 11.9961C21.035 11.2871 20.841 10.6201 20.5031 10.1553L20.5023 10.1543C18.3325 7.15527 15.2559 5.4707 12 5.4707Z" fill-rule="evenodd" fill="#FFFFFF"/>
</svg>
