<svg width="32.000000" height="31.333252" viewBox="0 0 32 31.3333" fill="none" xmlns="http://www.w3.org/2000/svg" xmlns:xlink="http://www.w3.org/1999/xlink">
	<desc>
			Created with Pixso.
	</desc>
	<defs>
		<clipPath id="clip3_1238">
			<rect id="icon/放大" width="32.000000" height="31.333334" fill="white"/>
		</clipPath>
	</defs>
	<g clip-path="url(#clip3_1238)">
		<path id="path" d="M26.6667 0L5.33325 0C2.34668 0 0 2.29785 0 5.22217L0 26.1111C0 29.0356 2.34668 31.3333 5.33325 31.3333L26.6667 31.3333C29.6533 31.3333 32 29.0356 32 26.1111L32 5.22217C32 2.29785 29.6533 0 26.6667 0ZM29.8667 26.1111C29.8667 27.7822 28.3733 29.2444 26.6667 29.2444L5.33325 29.2444C3.62671 29.2444 2.1333 27.7822 2.1333 26.1111L2.1333 5.22217C2.1333 3.55103 3.62671 2.08887 5.33325 2.08887L26.6667 2.08887C28.3733 2.08887 29.8667 3.55103 29.8667 5.22217L29.8667 26.1111Z" fill-rule="nonzero" fill="#283444"/>
		<path id="path" d="M12.5867 17.5466L6.3999 23.6045L6.3999 19.8445C6.3999 19.2178 5.97339 18.8 5.33325 18.8C4.69336 18.8 4.2666 19.2178 4.2666 19.8445L4.2666 26.1111C4.2666 26.7378 4.69336 27.1555 5.33325 27.1555L11.7332 27.1555C12.3733 27.1555 12.8 26.7378 12.8 26.1111C12.8 25.4844 12.3733 25.0667 11.7332 25.0667L7.89331 25.0667L14.0798 19.0088C14.5066 18.5911 14.5066 17.9644 14.0798 17.5466C13.6533 17.1289 13.0132 17.1289 12.5867 17.5466ZM26.6665 4.17773L20.2666 4.17773C19.6267 4.17773 19.2 4.59546 19.2 5.22217C19.2 5.84888 19.6267 6.2666 20.2666 6.2666L24.1067 6.2666L17.9199 12.3245C17.4932 12.7422 17.4932 13.3689 17.9199 13.7866C18.3467 14.2043 18.9866 14.2043 19.4133 13.7866L25.5999 7.72876L25.5999 11.4888C25.5999 12.1155 26.0266 12.5332 26.6665 12.5332C27.3066 12.5332 27.7332 12.1155 27.7332 11.4888L27.7332 5.22217C27.7332 4.59546 27.3066 4.17773 26.6665 4.17773Z" fill-rule="nonzero" fill="#283444"/>
	</g>
</svg>
