<svg width="40.000000" height="40.000000" viewBox="0 0 40 40" fill="none" xmlns="http://www.w3.org/2000/svg" xmlns:xlink="http://www.w3.org/1999/xlink">
	<desc>
			Created with Pixso.
	</desc>
	<defs>
		<clipPath id="clip2_7785">
			<rect id="ar / outline /  cube_projected" width="40.000000" height="40.000000" fill="white"/>
		</clipPath>
	</defs>
	<g clip-path="url(#clip2_7785)">
		<path id="Vector" d="M20.3503 5.91016C20.1281 5.80762 19.8719 5.80762 19.6498 5.91016L11.3165 9.76953C11.0219 9.90625 10.8334 10.2012 10.8334 10.5264L10.8334 20.1748C10.8334 20.4727 10.9918 20.7471 11.2492 20.8965L19.5825 25.7207C19.8408 25.8701 20.1593 25.8701 20.4176 25.7207L28.7509 20.8965C29.0082 20.7471 29.1667 20.4727 29.1667 20.1748L29.1667 10.5264C29.1667 10.2012 28.9781 9.90625 28.6836 9.76953L20.3503 5.91016ZM26.4153 10.5557L20.0001 13.7754L13.5847 10.5557L20.0001 7.58496L26.4153 10.5557ZM19.1667 15.2217L12.5001 11.877L12.5001 19.6943L19.1667 23.5547L19.1667 15.2217ZM27.5001 19.6943L20.8334 23.5547L20.8334 15.2217L27.5001 11.877L27.5001 19.6943ZM12.5001 24.166C12.9603 24.166 13.3334 24.5391 13.3334 25L13.3334 30C13.3334 30.46 12.9603 30.833 12.5001 30.833C12.0398 30.833 11.6667 30.46 11.6667 30L11.6667 25C11.6667 24.5391 12.0398 24.166 12.5001 24.166ZM28.3334 25C28.3334 24.5391 27.9603 24.166 27.5001 24.166C27.0398 24.166 26.6667 24.5391 26.6667 25L26.6667 31.666C26.6667 32.127 27.0398 32.5 27.5001 32.5C27.9603 32.5 28.3334 32.127 28.3334 31.666L28.3334 25ZM20.8334 29.166C20.8334 28.7061 20.4603 28.333 20.0001 28.333C19.5398 28.333 19.1667 28.7061 19.1667 29.166L19.1667 34.166C19.1667 34.627 19.5398 35 20.0001 35C20.4603 35 20.8334 34.627 20.8334 34.166L20.8334 29.166Z" fill-rule="evenodd" fill="#FFFFFF"/>
	</g>
</svg>
