<svg width="22.031494" height="22.172852" viewBox="0 0 22.0315 22.1729" fill="none" xmlns="http://www.w3.org/2000/svg" xmlns:xlink="http://www.w3.org/1999/xlink">
	<desc>
			Created with Pixso.
	</desc>
	<defs/>
	<path id="path" d="M12.7478 10.0024C14.3337 9.28027 15.3428 7.71631 15.3428 5.97998C15.3428 3.52441 13.4724 1.7583 11.0115 1.7583C8.55054 1.7583 6.66406 3.54102 6.66406 5.99365C6.66406 7.7876 7.70581 9.26123 9.36279 9.96143C10.0847 10.27 11.553 10.418 12.7478 10.0024ZM8.99097 11.5415C8.90063 11.5117 8.79956 11.4922 8.70923 11.4541C6.51367 10.5298 4.97681 8.3833 4.97681 6.00732C4.97681 2.75342 7.50342 0 11.0034 0C14.5771 0 17.0298 2.74512 17.0298 5.99658C17.0298 8.29883 15.5696 10.4263 13.4697 11.3857C11.8374 12.0967 10.2104 11.9463 8.99097 11.5415ZM2.31372 22.1729C1.52344 22.1699 0.703125 21.8145 0.287354 21.1611C-0.114502 20.5293 -0.0651855 19.6436 0.251953 18.9683C1.35376 16.6167 4.23853 12.6572 11.1892 12.5508C18.3369 12.4194 20.9373 16.6602 21.8506 19.187C22.0911 19.8511 22.1294 20.4556 21.7329 21.1802C21.2654 21.9321 20.4561 22.1152 19.7068 22.1152L17.8938 22.1152C17.4919 22.1152 17.1721 21.7051 17.1721 21.3032C17.1721 20.9014 17.5002 20.5405 17.8994 20.5405L19.7559 20.5405C20.0349 20.5405 20.1797 20.5347 20.333 20.3188C20.4121 20.2065 20.5051 19.958 20.3984 19.6655C19.4443 17.0269 16.874 14.1528 11.1455 14.1528C5.51562 14.1528 3.1311 17.0376 1.89258 19.4385C1.78589 19.6655 1.76392 19.9937 1.90063 20.2041C2.04834 20.4365 2.21509 20.5376 2.50513 20.5376L14.8315 20.5376C15.2334 20.5376 15.5889 20.937 15.5889 21.3389C15.5889 21.7407 15.2607 22.1699 14.8589 22.1699L2.31372 22.1729Z" fill="#FFFFFF" fill-opacity="1.000000" fill-rule="nonzero"/>
</svg>
