<svg width="24.000000" height="24.000000" viewBox="0 0 24 24" fill="none" xmlns="http://www.w3.org/2000/svg" xmlns:xlink="http://www.w3.org/1999/xlink">
	<desc>
			Created with Pixso.
	</desc>
	<defs>
		<clipPath id="clip96_52263">
			<rect id="stylle=删除-默认" width="24.000000" height="24.000000" fill="white"/>
		</clipPath>
	</defs>
	<g clip-path="url(#clip96_52263)">
		<path id="vector (Stroke)" d="M8.75 3.75C8.75 2.2312 9.98145 1 11.5 1L12.5 1C14.0186 1 15.25 2.2312 15.25 3.75L15.25 5.25C15.25 5.66418 14.9141 6 14.5 6C14.0859 6 13.75 5.66418 13.75 5.25L13.75 3.75C13.75 3.05969 13.1904 2.5 12.5 2.5L11.5 2.5C10.8096 2.5 10.25 3.05969 10.25 3.75L10.25 5.25C10.25 5.66418 9.91406 6 9.5 6C9.08594 6 8.75 5.66418 8.75 5.25L8.75 3.75Z" fill-rule="evenodd" fill="#FFFFFF"/>
		<path id="vector (Stroke)" d="M3.75488 7.49536L20.2456 7.49536L19.0435 19.6199C18.8535 21.5383 17.2397 22.9999 15.312 22.9999L8.68848 22.9999C6.76074 22.9999 5.14697 21.5383 4.95703 19.6199L3.75488 7.49536ZM5.41113 8.99536L6.44971 19.4719C6.56396 20.6229 7.53223 21.4999 8.68848 21.4999L15.312 21.4999C16.4683 21.4999 17.4365 20.6229 17.5508 19.4719L18.5894 8.99536L5.41113 8.99536Z" fill-rule="evenodd" fill="#FFFFFF"/>
		<path id="vector (Stroke)" d="M3.71631 8.3136C2.59717 6.70386 3.74902 4.5 5.70996 4.5L18.29 4.5C20.2505 4.5 21.4023 6.70386 20.2832 8.3136C19.9863 8.74072 19.499 8.99548 18.9785 8.99548L5.021 8.99548C4.50098 8.99548 4.01367 8.74072 3.71631 8.3136ZM5.70996 6C4.96045 6 4.52051 6.84216 4.94824 7.45728C4.96484 7.4812 4.9917 7.49548 5.021 7.49548L18.9785 7.49548C19.0078 7.49548 19.0352 7.4812 19.0518 7.45728C19.4795 6.84216 19.0391 6 18.29 6L5.70996 6Z" fill-rule="evenodd" fill="#FFFFFF"/>
	</g>
</svg>
