<svg width="28.876953" height="17.171387" viewBox="0 0 28.877 17.1714" fill="none" xmlns="http://www.w3.org/2000/svg" xmlns:xlink="http://www.w3.org/1999/xlink">
	<desc>
			Created with Pixso.
	</desc>
	<defs/>
	<path id="path" d="M20.6587 10.2222L1 10.2222C0.447754 10.2222 0 9.77441 0 9.22217L0 7.94922C0 7.39697 0.447754 6.94922 1 6.94922L20.6587 6.94922C21.5493 6.94922 21.9956 5.87207 21.3657 5.24219L18.707 2.58374C18.3169 2.19312 18.3169 1.56006 18.707 1.16943L19.584 0.292725C19.9746 -0.0976562 20.6074 -0.0976562 20.998 0.292725L28.584 7.87866C28.9746 8.26904 28.9746 8.90234 28.584 9.29272L20.998 16.8787C20.6074 17.269 19.9746 17.269 19.584 16.8787L18.707 16.002C18.3169 15.6113 18.3169 14.9783 18.707 14.5876L21.3657 11.9292C21.9956 11.2993 21.5493 10.2222 20.6587 10.2222Z" fill-rule="nonzero" fill="#FFFFFF"/>
</svg>
