<svg width="28.876709" height="17.171875" viewBox="0 0 28.8767 17.1719" fill="none" xmlns="http://www.w3.org/2000/svg" xmlns:xlink="http://www.w3.org/1999/xlink">
	<desc>
			Created with Pixso.
	</desc>
	<defs/>
	<path id="path" d="M20.6584 10.2227L1 10.2227C0.447754 10.2227 0 9.77441 0 9.22266L0 7.94922C0 7.39746 0.447754 6.94922 1 6.94922L20.6584 6.94922C21.5494 6.94922 21.9956 5.87207 21.3656 5.24219L18.707 2.58398C18.3165 2.19336 18.3165 1.56055 18.707 1.16992L19.5837 0.292969C19.9744 -0.0976562 20.6074 -0.0976562 20.998 0.292969L28.5837 7.87891C28.9744 8.26953 28.9744 8.90234 28.5837 9.29297L20.998 16.8789C20.6074 17.2695 19.9744 17.2695 19.5837 16.8789L18.707 16.002C18.3165 15.6113 18.3165 14.9785 18.707 14.5879L21.3656 11.9297C21.9956 11.2998 21.5494 10.2227 20.6584 10.2227Z" fill-rule="nonzero" fill="#41B4CF"/>
</svg>
