<svg width="56.000000" height="56.000000" viewBox="0 0 56 56" fill="none" xmlns="http://www.w3.org/2000/svg" xmlns:xlink="http://www.w3.org/1999/xlink">
	<desc>
			Created with Pixso.
	</desc>
	<defs/>
	<path id="Vector" d="M28 0C12.5371 0 0 12.5376 0 28C0 43.4624 12.5371 56 28 56C43.4629 56 56 43.4624 56 28C56 12.5376 43.4629 0 28 0ZM18.5938 32.2627C18.5938 34 17.1875 35.4126 15.4492 35.4126C14.6191 35.4126 13.8184 35.0811 13.2246 34.4873C12.6367 33.8936 12.3066 33.0938 12.3066 32.2627C12.3066 30.5249 13.7129 29.1123 15.4492 29.1123L18.5938 29.1123L18.5938 32.2627ZM26.9688 40.6626C26.9688 42.3999 25.5625 43.8125 23.8242 43.8125C22.0879 43.8125 20.6816 42.3999 20.6816 40.6626L20.6816 32.2627C20.6816 30.5249 22.0879 29.1123 23.8242 29.1123C24.6562 29.1123 25.457 29.4438 26.0508 30.0376C26.6445 30.6313 26.9688 31.4312 26.9688 32.2627L26.9688 40.6626ZM23.832 27.0127L15.457 27.0127C13.7188 27.0127 12.3125 25.6001 12.3125 23.8623C12.3125 22.125 13.7188 20.7124 15.457 20.7124L23.832 20.7124C25.5684 20.7124 26.9746 22.125 26.9746 23.8623C26.9688 25.6064 25.5625 27.0127 23.832 27.0127ZM23.832 18.6123C23 18.6123 22.1992 18.2812 21.6055 17.6875C21.0117 17.0938 20.6875 16.2998 20.6875 15.4624C20.6875 13.7251 22.0938 12.3125 23.832 12.3125C25.5684 12.3125 26.9746 13.7251 26.9746 15.4624L26.9746 18.6123L23.832 18.6123ZM29.0625 15.4624C29.0625 13.7251 30.4688 12.3125 32.207 12.3125C33.9434 12.3125 35.3496 13.7251 35.3496 15.4624L35.3496 23.8623C35.3496 25.6001 33.9434 27.0127 32.207 27.0127C30.4688 27.0127 29.0625 25.6001 29.0625 23.8623L29.0625 15.4624ZM32.207 43.8125C30.4688 43.8125 29.0625 42.3999 29.0625 40.6626L29.0625 37.5127L32.207 37.5127C33.9434 37.5127 35.3496 38.9248 35.3496 40.6626C35.3496 42.3999 33.9434 43.8125 32.207 43.8125ZM40.582 35.4126L32.207 35.4126C31.375 35.4126 30.5742 35.0811 29.9805 34.4873C29.3867 33.8936 29.0625 33.1001 29.0625 32.2627C29.0625 30.5249 30.4688 29.1123 32.207 29.1123L40.582 29.1123C42.3184 29.1123 43.7246 30.5249 43.7246 32.2627C43.7246 34 42.3184 35.4126 40.582 35.4126ZM40.582 27.0127L37.4375 27.0127L37.4375 23.8623C37.4375 22.125 38.8438 20.7124 40.582 20.7124C42.3184 20.7124 43.7246 22.125 43.7246 23.8623C43.7246 25.6001 42.3184 27.0127 40.582 27.0127Z" fill-rule="evenodd" fill="#FFFFFF"/>
</svg>
