<svg width="24.000000" height="24.000000" viewBox="0 0 24 24" fill="none" xmlns="http://www.w3.org/2000/svg" xmlns:xlink="http://www.w3.org/1999/xlink">
	<desc>
			Created with Pixso.
	</desc>
	<defs/>
	<path id="vector (Stroke)" d="M16.7465 16.7466C17.0393 16.4536 17.5142 16.4536 17.807 16.7466L21.7677 20.707C22.0605 21 22.0605 21.4751 21.7677 21.7681C21.4749 22.0605 21 22.0605 20.707 21.7681L16.7465 17.8071C16.4535 17.5142 16.4535 17.0396 16.7465 16.7466Z" fill-rule="evenodd" fill="#FFFFFF"/>
	<path id="vector (Stroke)" d="M11.0529 18.606C15.2242 18.606 18.6058 15.2241 18.6058 11.0527C18.6058 6.88135 15.2242 3.5 11.0529 3.5C6.88159 3.5 3.5 6.88135 3.5 11.0527C3.5 15.2241 6.88159 18.606 11.0529 18.606ZM11.0529 20.106C16.0527 20.106 20.1058 16.0527 20.1058 11.0527C20.1058 6.05322 16.0527 2 11.0529 2C6.0531 2 2 6.05322 2 11.0527C2 16.0527 6.0531 20.106 11.0529 20.106Z" fill-rule="evenodd" fill="#FFFFFF"/>
</svg>
