<svg width="32.000000" height="32.000000" viewBox="0 0 32 32" fill="none" xmlns="http://www.w3.org/2000/svg" xmlns:xlink="http://www.w3.org/1999/xlink">
	<desc>
			Created with Pixso.
	</desc>
	<defs>
		<clipPath id="clip3_1218">
			<rect id="icon/缩小" width="32.000000" height="32.000000" fill="white"/>
		</clipPath>
	</defs>
	<g clip-path="url(#clip3_1218)">
		<path id="path" d="M26.6667 0L5.33325 0C2.34668 0 0 2.34668 0 5.33325L0 26.6667C0 29.6533 2.34668 32 5.33325 32L26.6667 32C29.6533 32 32 29.6533 32 26.6667L32 5.33325C32 2.34668 29.6533 0 26.6667 0ZM29.8667 26.6667C29.8667 28.3733 28.3733 29.8667 26.6667 29.8667L5.33325 29.8667C3.62671 29.8667 2.1333 28.3733 2.1333 26.6667L2.1333 5.33325C2.1333 3.62671 3.62671 2.1333 5.33325 2.1333L26.6667 2.1333C28.3733 2.1333 29.8667 3.62671 29.8667 5.33325L29.8667 26.6667Z" fill-rule="nonzero" fill="#283444"/>
		<path id="path" d="M25.3867 5.12012L19.2 11.3066L19.2 7.4668C19.2 6.82666 18.7734 6.40015 18.1333 6.40015C17.4934 6.40015 17.0667 6.82666 17.0667 7.4668L17.0667 13.8667C17.0667 14.5068 17.4934 14.9333 18.1333 14.9333L24.5334 14.9333C25.1733 14.9333 25.6001 14.5068 25.6001 13.8667C25.6001 13.2268 25.1733 12.8 24.5334 12.8L20.6934 12.8L26.8801 6.61328C27.3066 6.18677 27.3066 5.54663 26.8801 5.12012C26.4534 4.69336 25.8135 4.69336 25.3867 5.12012ZM13.8667 17.0667L7.4668 17.0667C6.82666 17.0667 6.40015 17.4934 6.40015 18.1333C6.40015 18.7734 6.82666 19.2 7.4668 19.2L11.3066 19.2L5.12012 25.3867C4.69336 25.8135 4.69336 26.4534 5.12012 26.8801C5.54663 27.3066 6.18677 27.3066 6.61328 26.8801L12.8 20.6934L12.8 24.5334C12.8 25.1733 13.2268 25.6001 13.8667 25.6001C14.5068 25.6001 14.9333 25.1733 14.9333 24.5334L14.9333 18.1333C14.9333 17.4934 14.5068 17.0667 13.8667 17.0667Z" fill-rule="nonzero" fill="#283444"/>
	</g>
</svg>
