<svg width="61.000000" height="61.000000" viewBox="0 0 61 61" fill="none" xmlns="http://www.w3.org/2000/svg" xmlns:xlink="http://www.w3.org/1999/xlink">
	<desc>
			Created with Pixso.
	</desc>
	<defs>
		<clipPath id="clip2163_160697">
			<rect id="style=stroke" width="18.000000" height="18.000000" transform="translate(11.000000 21.500000)" fill="white" fill-opacity="0"/>
		</clipPath>
		<clipPath id="clip2163_160704">
			<rect id="icon/导出" width="24.000000" height="24.000000" transform="translate(18.500000 18.500000)" fill="white" fill-opacity="0"/>
		</clipPath>
	</defs>
	<rect id="Buttons" rx="3.000000" width="60.000000" height="60.000000" transform="translate(0.500000 0.500000)" fill="#41B4CF" fill-opacity="0"/>
	<g clip-path="url(#clip2163_160704)">
		<path id="path" d="M40.4507 41.8214L20.3306 41.8214C19.6745 41.8214 19.1407 41.2964 19.1407 40.651L19.1407 32.1938C19.1407 31.7107 19.5281 31.3191 20.0061 31.3191C20.4841 31.3191 20.8715 31.7107 20.8715 32.1938L20.8715 40.0718L39.9098 40.0718L39.9098 32.2185C39.9098 31.7354 40.2972 31.3438 40.7752 31.3438C41.2532 31.3438 41.6407 31.7354 41.6407 32.2185L41.6407 40.6509C41.6407 41.2964 41.1069 41.8214 40.4507 41.8214Z" fill="#41B4CF" fill-opacity="1.000000" fill-rule="nonzero"/>
		<path id="path" d="M30.3879 19.2124C29.91 19.2124 29.5225 19.6041 29.5225 20.0872L29.5225 34.08C29.5225 34.5631 29.91 34.9547 30.3879 34.9547C30.8659 34.9547 31.2534 34.5631 31.2534 34.08L31.2534 20.0872C31.2534 19.6041 30.8659 19.2124 30.3879 19.2124Z" fill="#41B4CF" fill-opacity="1.000000" fill-rule="nonzero"/>
		<path id="path" d="M24.6679 29.3192C24.4495 29.3192 24.2311 29.4022 24.0626 29.5688C23.7211 29.9067 23.7151 30.4606 24.0494 30.8059L29.7694 36.7137C30.1038 37.0591 30.6517 37.0651 30.9933 36.7272C31.3349 36.3892 31.3408 35.8353 31.0065 35.49L25.2865 29.5822C25.117 29.4071 24.8925 29.3192 24.6679 29.3192Z" fill="#41B4CF" fill-opacity="1.000000" fill-rule="nonzero"/>
		<path id="path" d="M36.1486 29.3192C35.924 29.3192 35.6995 29.4071 35.53 29.5822L29.81 35.49C29.4757 35.8353 29.4816 36.3892 29.8232 36.7272C30.1648 37.0651 30.7128 37.0591 31.0471 36.7137L36.767 30.8059C37.1014 30.4606 37.0955 29.9067 36.7538 29.5688C36.5854 29.4022 36.3669 29.3192 36.1486 29.3192Z" fill="#41B4CF" fill-opacity="1.000000" fill-rule="nonzero"/>
	</g>
	<rect id="Buttons" rx="3.000000" width="60.000000" height="60.000000" transform="translate(0.500000 0.500000)" stroke="#41B4CF" stroke-opacity="1.000000" stroke-width="1.000000"/>
</svg>
