<svg width="18.000000" height="18.000000" viewBox="0 0 18 18" fill="none" xmlns="http://www.w3.org/2000/svg" xmlns:xlink="http://www.w3.org/1999/xlink">
	<desc>
			Created with Pixso.
	</desc>
	<defs>
		<clipPath id="clip3308_210258">
			<rect id="开关" width="18.000000" height="18.000000" fill="white" fill-opacity="0"/>
		</clipPath>
	</defs>
	<g clip-path="url(#clip3308_210258)">
		<path id="path" d="M8.1 0L9.9 0L9.9 9L8.1 9L8.1 0Z" fill="#FFFFFF" fill-opacity="1.000000" fill-rule="nonzero"/>
		<path id="path" d="M11.7 0.41L11.7 2.33C11.82 2.38 11.95 2.43 12.07 2.49C12.2 2.55 12.32 2.61 12.44 2.68C12.56 2.75 12.68 2.82 12.8 2.89C12.92 2.96 13.03 3.04 13.14 3.12C13.26 3.2 13.37 3.28 13.48 3.36C13.58 3.45 13.69 3.54 13.79 3.63C13.89 3.72 14 3.82 14.09 3.91C14.19 4.01 14.28 4.11 14.38 4.22C14.47 4.32 14.56 4.42 14.64 4.53C14.73 4.64 14.81 4.75 14.89 4.86C14.97 4.98 15.04 5.09 15.12 5.21C15.19 5.33 15.26 5.45 15.32 5.57C15.39 5.69 15.45 5.81 15.51 5.94C15.57 6.06 15.62 6.19 15.68 6.32C15.73 6.44 15.78 6.57 15.82 6.7C15.86 6.83 15.9 6.97 15.94 7.1C15.98 7.23 16.01 7.37 16.04 7.5C16.07 7.64 16.09 7.77 16.11 7.91C16.13 8.04 16.15 8.18 16.16 8.32C16.18 8.45 16.19 8.59 16.19 8.73C16.2 8.87 16.2 9.01 16.19 9.14C16.19 9.28 16.18 9.42 16.17 9.56C16.16 9.69 16.15 9.83 16.13 9.97C16.11 10.1 16.09 10.24 16.06 10.38C16.04 10.51 16.01 10.65 15.97 10.78C15.94 10.91 15.9 11.05 15.86 11.18C15.82 11.31 15.77 11.44 15.72 11.57C15.67 11.7 15.62 11.82 15.56 11.95C15.51 12.08 15.45 12.2 15.38 12.32C15.32 12.44 15.25 12.56 15.18 12.68C15.11 12.8 15.04 12.92 14.96 13.03C14.88 13.15 14.8 13.26 14.72 13.37C14.64 13.48 14.55 13.58 14.46 13.69C14.37 13.79 14.28 13.9 14.18 14C14.09 14.09 13.99 14.19 13.89 14.29C13.79 14.38 13.68 14.47 13.57 14.56C13.47 14.64 13.36 14.73 13.25 14.81C13.14 14.89 13.02 14.97 12.91 15.04C12.79 15.12 12.67 15.19 12.55 15.26C12.43 15.33 12.31 15.39 12.19 15.45C12.07 15.51 11.94 15.57 11.81 15.63C11.69 15.68 11.56 15.73 11.43 15.78C11.3 15.82 11.17 15.87 11.04 15.91C10.9 15.95 10.77 15.98 10.64 16.01C10.5 16.04 10.37 16.07 10.23 16.09C10.09 16.12 9.96 16.14 9.82 16.15C9.68 16.17 9.55 16.18 9.41 16.19C9.27 16.2 9.13 16.2 9 16.2C8.86 16.2 8.72 16.2 8.58 16.19C8.44 16.18 8.31 16.17 8.17 16.15C8.03 16.14 7.9 16.12 7.76 16.09C7.63 16.07 7.49 16.04 7.36 16.01C7.22 15.98 7.09 15.95 6.96 15.91C6.82 15.87 6.69 15.82 6.56 15.78C6.43 15.73 6.31 15.68 6.18 15.63C6.05 15.57 5.93 15.51 5.8 15.45C5.68 15.39 5.56 15.33 5.44 15.26C5.32 15.19 5.2 15.12 5.08 15.04C4.97 14.97 4.85 14.89 4.74 14.81C4.63 14.73 4.52 14.64 4.42 14.56C4.31 14.47 4.21 14.38 4.11 14.29C4 14.19 3.91 14.09 3.81 14C3.71 13.9 3.62 13.79 3.53 13.69C3.44 13.58 3.36 13.48 3.27 13.37C3.19 13.26 3.11 13.15 3.03 13.03C2.95 12.92 2.88 12.8 2.81 12.68C2.74 12.56 2.67 12.44 2.61 12.32C2.54 12.2 2.48 12.08 2.43 11.95C2.37 11.82 2.32 11.7 2.27 11.57C2.22 11.44 2.17 11.31 2.13 11.18C2.09 11.05 2.05 10.91 2.02 10.78C1.98 10.65 1.95 10.51 1.93 10.38C1.9 10.24 1.88 10.1 1.86 9.97C1.84 9.83 1.83 9.69 1.82 9.56C1.81 9.42 1.8 9.28 1.8 9.14C1.79 9.01 1.8 8.87 1.8 8.73C1.81 8.59 1.82 8.45 1.83 8.32C1.84 8.18 1.86 8.04 1.88 7.91C1.9 7.77 1.92 7.64 1.95 7.5C1.98 7.37 2.02 7.23 2.05 7.1C2.09 6.97 2.13 6.83 2.17 6.7C2.22 6.57 2.26 6.44 2.32 6.32C2.37 6.19 2.42 6.06 2.48 5.94C2.54 5.81 2.6 5.69 2.67 5.57C2.73 5.45 2.8 5.33 2.87 5.21C2.95 5.09 3.02 4.98 3.1 4.86C3.18 4.75 3.26 4.64 3.35 4.53C3.44 4.42 3.52 4.32 3.62 4.22C3.71 4.11 3.8 4.01 3.9 3.91C4 3.82 4.1 3.72 4.2 3.63C4.3 3.54 4.41 3.45 4.52 3.36C4.62 3.28 4.73 3.2 4.85 3.12C4.96 3.04 5.07 2.96 5.19 2.89C5.31 2.82 5.43 2.75 5.55 2.68C5.67 2.61 5.79 2.55 5.92 2.49C6.04 2.43 6.17 2.38 6.3 2.33L6.3 0.41C6.13 0.46 5.96 0.52 5.79 0.58C5.63 0.65 5.46 0.71 5.3 0.79C5.14 0.86 4.98 0.94 4.82 1.02C4.67 1.1 4.51 1.19 4.36 1.28C4.21 1.37 4.06 1.47 3.91 1.57C3.77 1.67 3.62 1.77 3.48 1.88C3.34 1.99 3.21 2.1 3.07 2.22C2.94 2.34 2.81 2.46 2.68 2.58C2.56 2.7 2.43 2.83 2.31 2.96C2.2 3.1 2.08 3.23 1.97 3.37C1.86 3.51 1.75 3.65 1.65 3.79C1.55 3.94 1.45 4.09 1.36 4.24C1.26 4.39 1.17 4.54 1.09 4.7C1 4.85 0.92 5.01 0.85 5.17C0.77 5.33 0.7 5.5 0.64 5.66C0.57 5.82 0.51 5.99 0.45 6.16C0.4 6.33 0.35 6.5 0.3 6.67C0.26 6.84 0.21 7.01 0.18 7.19C0.14 7.36 0.11 7.54 0.09 7.71C0.06 7.89 0.04 8.06 0.03 8.24C0.01 8.42 0 8.59 0 8.77C-0.01 8.95 0 9.12 0 9.3C0.01 9.48 0.02 9.66 0.03 9.83C0.05 10.01 0.07 10.19 0.1 10.36C0.13 10.54 0.16 10.71 0.2 10.88C0.23 11.06 0.28 11.23 0.32 11.4C0.37 11.57 0.42 11.74 0.48 11.91C0.54 12.08 0.6 12.24 0.67 12.41C0.73 12.57 0.81 12.73 0.88 12.89C0.96 13.05 1.04 13.21 1.13 13.36C1.21 13.52 1.3 13.67 1.4 13.82C1.49 13.97 1.59 14.12 1.7 14.26C1.8 14.41 1.91 14.55 2.02 14.68C2.13 14.82 2.25 14.96 2.37 15.09C2.49 15.22 2.61 15.34 2.74 15.47C2.87 15.59 3 15.71 3.13 15.82C3.27 15.94 3.41 16.05 3.55 16.16C3.69 16.27 3.83 16.37 3.98 16.47C4.13 16.57 4.28 16.66 4.43 16.75C4.58 16.84 4.74 16.93 4.9 17.01C5.06 17.09 5.22 17.16 5.38 17.24C5.54 17.31 5.7 17.37 5.87 17.43C6.04 17.5 6.2 17.55 6.37 17.6C6.54 17.66 6.72 17.7 6.89 17.74C7.06 17.79 7.23 17.82 7.41 17.85C7.58 17.88 7.76 17.91 7.93 17.93C8.11 17.95 8.29 17.97 8.46 17.98C8.64 17.99 8.82 18 9 18C9.17 18 9.35 17.99 9.53 17.98C9.7 17.97 9.88 17.95 10.06 17.93C10.23 17.91 10.41 17.88 10.58 17.85C10.76 17.82 10.93 17.79 11.1 17.74C11.28 17.7 11.45 17.66 11.62 17.6C11.79 17.55 11.95 17.5 12.12 17.43C12.29 17.37 12.45 17.31 12.61 17.24C12.78 17.16 12.94 17.09 13.09 17.01C13.25 16.93 13.41 16.84 13.56 16.75C13.71 16.66 13.86 16.57 14.01 16.47C14.16 16.37 14.3 16.27 14.44 16.16C14.58 16.05 14.72 15.94 14.86 15.82C14.99 15.71 15.12 15.59 15.25 15.47C15.38 15.34 15.5 15.22 15.62 15.09C15.74 14.96 15.86 14.82 15.97 14.68C16.08 14.55 16.19 14.41 16.29 14.26C16.4 14.12 16.5 13.97 16.59 13.82C16.69 13.67 16.78 13.52 16.86 13.36C16.95 13.21 17.03 13.05 17.11 12.89C17.18 12.73 17.26 12.57 17.32 12.41C17.39 12.24 17.45 12.08 17.51 11.91C17.57 11.74 17.62 11.57 17.67 11.4C17.72 11.23 17.76 11.06 17.8 10.88C17.83 10.71 17.86 10.54 17.89 10.36C17.92 10.19 17.94 10.01 17.96 9.83C17.97 9.66 17.98 9.48 17.99 9.3C18 9.12 18 8.95 17.99 8.77C17.99 8.59 17.98 8.42 17.96 8.24C17.95 8.06 17.93 7.89 17.9 7.71C17.88 7.54 17.85 7.36 17.81 7.19C17.78 7.01 17.74 6.84 17.69 6.67C17.64 6.5 17.59 6.33 17.54 6.16C17.48 5.99 17.42 5.82 17.36 5.66C17.29 5.5 17.22 5.33 17.14 5.17C17.07 5.01 16.99 4.85 16.9 4.7C16.82 4.54 16.73 4.39 16.64 4.24C16.54 4.09 16.44 3.94 16.34 3.79C16.24 3.65 16.13 3.51 16.02 3.37C15.91 3.23 15.8 3.1 15.68 2.96C15.56 2.83 15.44 2.7 15.31 2.58C15.18 2.46 15.05 2.34 14.92 2.22C14.79 2.1 14.65 1.99 14.51 1.88C14.37 1.77 14.23 1.67 14.08 1.57C13.93 1.47 13.78 1.37 13.63 1.28C13.48 1.19 13.32 1.1 13.17 1.02C13.01 0.94 12.85 0.86 12.69 0.79C12.53 0.71 12.36 0.65 12.2 0.58C12.03 0.52 11.86 0.46 11.7 0.41Z" fill="#FFFFFF" fill-opacity="1.000000" fill-rule="nonzero"/>
	</g>
</svg>
