<svg width="17.195801" height="29.040283" viewBox="0 0 17.1958 29.0403" fill="none" xmlns="http://www.w3.org/2000/svg" xmlns:xlink="http://www.w3.org/1999/xlink">
	<desc>
			Created with Pixso.
	</desc>
	<defs/>
	<path id="path" d="M10.2461 8.21802L10.2461 28.0403C10.2461 28.5925 9.79834 29.0403 9.24609 29.0403L7.97363 29.0403C7.42139 29.0403 6.97363 28.5925 6.97363 28.0403L6.97363 8.38184C6.97363 7.49097 5.89648 7.04468 5.2666 7.67456L2.63281 10.3083C2.23242 10.7085 1.58057 10.6973 1.19434 10.2837L0.269043 9.29199C-0.0986328 8.89819 -0.0878906 8.28369 0.292969 7.90259L7.90283 0.292969C8.29346 -0.0976562 8.92627 -0.0976562 9.31689 0.292969L16.9028 7.87866C17.2935 8.26904 17.2935 8.90234 16.9028 9.29272L16.0259 10.1694C15.6357 10.5601 15.0024 10.5601 14.6118 10.1694L11.9531 7.51099C11.3232 6.8811 10.2461 7.32715 10.2461 8.21802Z" fill-rule="nonzero" fill="#FFFFFF"/>
</svg>
