<svg width="24.000000" height="24.000000" viewBox="0 0 24 24" fill="none" xmlns="http://www.w3.org/2000/svg" xmlns:xlink="http://www.w3.org/1999/xlink">
	<desc>
			Created with Pixso.
	</desc>
	<defs>
		<clipPath id="clip106_31946">
			<rect id="视频监控" width="24.000000" height="24.000000" fill="white"/>
		</clipPath>
	</defs>
	<g clip-path="url(#clip106_31946)">
		<path id="path" d="M17.0399 10.9199C17.0399 8.16016 14.7599 6 12 6C9.23996 6 6.95996 8.27979 6.95996 10.9199C6.95996 13.6802 9.23996 15.96 12 15.96C14.7599 15.96 17.0399 13.6802 17.0399 10.9199ZM8.51996 10.9199C8.51996 9 10.08 7.43994 12 7.43994C13.92 7.43994 15.4799 9 15.4799 10.9199C15.4799 12.8398 13.92 14.3999 12 14.3999C10.08 14.3999 8.51996 12.8398 8.51996 10.9199Z" fill-rule="nonzero" fill="#FFFFFF"/>
		<path id="path" d="M18.48 22.2002L16.68 22.2002L15.36 18.8403C19.08 17.52 21.6 13.9204 21.6 9.84033C21.6 4.56006 17.28 0.240234 12 0.240234C6.72003 0.240234 2.40002 4.56006 2.40002 9.84033C2.40002 13.9204 4.92001 17.4004 8.52002 18.7202L7.20001 22.0801L5.88004 22.0801C5.52002 22.0801 5.16003 22.4404 5.16003 22.8003C5.16003 23.1602 5.52002 23.52 5.88004 23.52L18.48 23.52C18.84 23.52 19.2 23.1602 19.2 22.8003C19.2 22.5601 18.84 22.2002 18.48 22.2002ZM3.84003 9.84033C3.84003 5.40039 7.44003 1.68018 12 1.68018C16.56 1.68018 20.16 5.28027 20.16 9.84033C20.16 14.4004 16.56 18 12 18C7.44003 18 3.84003 14.4004 3.84003 9.84033ZM8.76001 22.2002L9.84003 19.3203L9.84003 19.2002C10.56 19.3203 11.16 19.4404 11.88 19.4404C12.48 19.4404 13.2 19.3203 13.8 19.2002L13.8 19.3203L14.88 22.2002L8.76001 22.2002Z" fill-rule="nonzero" fill="#FFFFFF"/>
	</g>
</svg>
