<svg width="24.000000" height="24.000000" viewBox="0 0 24 24" fill="none" xmlns="http://www.w3.org/2000/svg" xmlns:xlink="http://www.w3.org/1999/xlink">
	<desc>
			Created with Pixso.
	</desc>
	<defs>
		<clipPath id="clip106_31956">
			<rect id="警报" width="24.000000" height="24.000000" fill="white"/>
		</clipPath>
	</defs>
	<g clip-path="url(#clip106_31956)">
		<path id="path" d="M11.9999 5.02979C12.0478 5.02979 12.0953 5.02539 12.1423 5.01562C12.1893 5.00635 12.2349 4.99268 12.2792 4.97412C12.3234 4.95605 12.3655 4.93359 12.4053 4.90674C12.4452 4.88037 12.4821 4.8501 12.5159 4.81592C12.5498 4.78223 12.5801 4.74512 12.6067 4.70557C12.6333 4.66553 12.6558 4.62354 12.6741 4.5791C12.6925 4.53467 12.7064 4.48926 12.7157 4.44238C12.725 4.39502 12.7297 4.34766 12.7297 4.2998L12.7297 0.72998C12.7297 0.682129 12.725 0.634766 12.7157 0.587891C12.7064 0.540527 12.6925 0.495117 12.6741 0.450684C12.6558 0.40625 12.6333 0.364258 12.6067 0.324707C12.5801 0.284668 12.5498 0.247559 12.5159 0.213867C12.4821 0.180176 12.4452 0.149902 12.4053 0.123047C12.3655 0.0961914 12.3234 0.0737305 12.2792 0.0556641C12.2349 0.0371094 12.1893 0.0234375 12.1423 0.0141602C12.0953 0.00488281 12.0478 0 11.9999 0C11.952 0 11.9045 0.00488281 11.8575 0.0141602C11.8105 0.0234375 11.7648 0.0371094 11.7206 0.0556641C11.6763 0.0737305 11.6343 0.0961914 11.5944 0.123047C11.5546 0.149902 11.5177 0.180176 11.4838 0.213867C11.45 0.247559 11.4197 0.284668 11.3931 0.324707C11.3664 0.364258 11.3439 0.40625 11.3256 0.450684C11.3073 0.495117 11.2934 0.540527 11.2841 0.587891C11.2747 0.634766 11.27 0.682129 11.27 0.72998L11.27 4.2998C11.27 4.34766 11.2747 4.39502 11.2841 4.44238C11.2934 4.48926 11.3073 4.53467 11.3256 4.5791C11.3439 4.62354 11.3664 4.66553 11.3931 4.70557C11.4197 4.74512 11.45 4.78223 11.4838 4.81592C11.5177 4.8501 11.5546 4.88037 11.5944 4.90674C11.6343 4.93359 11.6763 4.95605 11.7206 4.97412C11.7648 4.99268 11.8105 5.00635 11.8575 5.01562C11.9045 5.02539 11.952 5.02979 11.9999 5.02979ZM15.4922 5.96484C15.5338 5.98877 15.5772 6.00879 15.6226 6.02393C15.6679 6.03955 15.7144 6.05029 15.7619 6.05664C15.8094 6.06299 15.8571 6.06445 15.9048 6.06104C15.9526 6.05811 15.9997 6.05029 16.046 6.03809C16.0923 6.02539 16.1369 6.00879 16.1799 5.9873C16.2228 5.96631 16.2634 5.94092 16.3014 5.91211C16.3394 5.88281 16.3742 5.8501 16.4058 5.81396C16.4374 5.77832 16.4651 5.73926 16.4891 5.69775L18.2732 2.60742C18.2971 2.56592 18.3168 2.52246 18.3322 2.47705C18.3476 2.43164 18.3585 2.38525 18.3647 2.3374C18.371 2.29004 18.3725 2.24219 18.3694 2.19434C18.3662 2.14648 18.3585 2.09961 18.3461 2.05322C18.3337 2.00684 18.3168 1.9624 18.2957 1.91943C18.2745 1.87646 18.2493 1.83594 18.2201 1.79785C18.1909 1.75977 18.1583 1.7251 18.1223 1.69336C18.0862 1.66162 18.0475 1.63379 18.006 1.60986C17.9645 1.58594 17.921 1.56641 17.8756 1.55078C17.8303 1.53564 17.7838 1.52441 17.7363 1.51855C17.6888 1.51221 17.6411 1.51074 17.5933 1.51367C17.5455 1.51709 17.4984 1.52441 17.4521 1.53711C17.4058 1.54932 17.3612 1.56641 17.3182 1.5874C17.2752 1.60889 17.2347 1.63379 17.1967 1.66309C17.1587 1.69238 17.1239 1.7251 17.0923 1.76074C17.0607 1.79688 17.0329 1.83594 17.0089 1.87744L15.2249 4.96777C15.201 5.00928 15.1813 5.05273 15.1659 5.09814C15.1505 5.14355 15.1397 5.18994 15.1334 5.2373C15.1272 5.28516 15.1257 5.33252 15.1288 5.38037C15.132 5.42822 15.1397 5.47559 15.1521 5.52148C15.1646 5.56787 15.1813 5.61279 15.2025 5.65576C15.2238 5.69873 15.249 5.73926 15.2781 5.77734C15.3073 5.81543 15.3399 5.8501 15.3759 5.88184C15.412 5.91309 15.4507 5.94092 15.4922 5.96484ZM22.4021 6.0083C22.3782 5.9668 22.3503 5.92773 22.3188 5.89209C22.2872 5.85596 22.2524 5.82324 22.2144 5.79395C22.1763 5.76514 22.1359 5.73975 22.0929 5.71875C22.0499 5.69727 22.0052 5.68066 21.959 5.66797C21.9127 5.65576 21.8657 5.64795 21.8178 5.64502C21.77 5.6416 21.7224 5.64307 21.6749 5.64941C21.6273 5.65576 21.5809 5.6665 21.5355 5.68213C21.4902 5.69727 21.4467 5.71729 21.4052 5.74121L18.3162 7.52588C18.2747 7.5498 18.2359 7.57764 18.1998 7.60938C18.1638 7.64062 18.1312 7.67578 18.1021 7.71387C18.0729 7.75195 18.0477 7.79248 18.0265 7.83545C18.0052 7.87842 17.9885 7.92285 17.9761 7.96924C17.9636 8.01562 17.9559 8.0625 17.9528 8.11035C17.9496 8.1582 17.9512 8.20605 17.9574 8.25342C17.9637 8.30127 17.9745 8.34766 17.9899 8.39307C18.0053 8.43848 18.025 8.48193 18.049 8.52344C18.0729 8.56494 18.1007 8.60352 18.1323 8.63965C18.1639 8.67578 18.1987 8.7085 18.2367 8.7373C18.2747 8.7666 18.3152 8.79199 18.3582 8.81299C18.4012 8.83447 18.4459 8.85107 18.4921 8.86377C18.5384 8.87598 18.5854 8.88379 18.6333 8.88672C18.6811 8.89014 18.7288 8.88867 18.7763 8.88232C18.8238 8.87598 18.8702 8.86523 18.9156 8.84961C18.9611 8.83447 19.0045 8.81445 19.046 8.79053L22.1351 7.00586C22.1766 6.98193 22.2153 6.9541 22.2514 6.92236C22.2874 6.89062 22.32 6.85596 22.3492 6.81787C22.3784 6.77979 22.4036 6.73926 22.4247 6.69629C22.446 6.65332 22.4628 6.60889 22.4752 6.5625C22.4875 6.51611 22.4953 6.46875 22.4984 6.4209C22.5016 6.37305 22.5 6.32568 22.4937 6.27783C22.4875 6.23047 22.4766 6.18408 22.4612 6.13867C22.4458 6.09326 22.4261 6.0498 22.4021 6.0083ZM7.51062 5.69775C7.53455 5.73926 7.56238 5.77832 7.59393 5.81396C7.62555 5.8501 7.66034 5.88281 7.69836 5.91211C7.73639 5.94141 7.77692 5.96631 7.81989 5.98779C7.86285 6.00879 7.90747 6.02539 7.9538 6.03809C8.00006 6.05029 8.04712 6.05811 8.09497 6.06152C8.14276 6.06445 8.19043 6.06299 8.23798 6.05664C8.28546 6.05029 8.33191 6.03955 8.37732 6.02441C8.42267 6.00879 8.46613 5.98926 8.50763 5.96533C8.54913 5.94092 8.58789 5.91357 8.62396 5.88184C8.65997 5.8501 8.69257 5.81543 8.72174 5.77734C8.75092 5.73926 8.77612 5.69873 8.7973 5.65576C8.81854 5.61279 8.83533 5.56787 8.84772 5.52197C8.86011 5.47559 8.86792 5.42822 8.87103 5.38037C8.87421 5.33252 8.87262 5.28516 8.86639 5.2373C8.86011 5.18994 8.8493 5.14355 8.83386 5.09814C8.81848 5.05273 8.79883 5.00928 8.77484 4.96777L6.99078 1.87744C6.96686 1.83594 6.93909 1.79688 6.90747 1.76074C6.87585 1.7251 6.84106 1.69238 6.80304 1.66309C6.76501 1.63379 6.72455 1.60889 6.68152 1.5874C6.63855 1.56641 6.59393 1.54932 6.54761 1.53711C6.50134 1.52441 6.45428 1.51709 6.40643 1.51367C6.35864 1.51074 6.31097 1.51221 6.26343 1.51855C6.21594 1.52441 6.16949 1.53564 6.12408 1.55078C6.07874 1.56641 6.03528 1.58594 5.99377 1.60986C5.95227 1.63379 5.91351 1.66162 5.87744 1.69336C5.84143 1.7251 5.80884 1.75977 5.77966 1.79785C5.75049 1.83594 5.72528 1.87646 5.7041 1.91943C5.68292 1.9624 5.66608 2.00684 5.65369 2.05322C5.6413 2.09961 5.63348 2.14648 5.63037 2.19434C5.62726 2.24219 5.62878 2.29004 5.63507 2.3374C5.6413 2.38525 5.65216 2.43164 5.66754 2.47705C5.68292 2.52246 5.70264 2.56592 5.72656 2.60742L7.51062 5.69775ZM4.95404 8.79004C4.99554 8.81396 5.039 8.8335 5.08435 8.84912C5.12976 8.86426 5.17621 8.875 5.22369 8.88135C5.27124 8.8877 5.31891 8.88916 5.3667 8.88623C5.41455 8.88281 5.46161 8.875 5.50787 8.86279C5.5542 8.8501 5.59882 8.8335 5.64178 8.8125C5.68481 8.79102 5.72528 8.76611 5.76331 8.73682C5.80133 8.70752 5.83612 8.6748 5.86774 8.63867C5.89935 8.60303 5.92712 8.56396 5.95105 8.52246C5.97504 8.48096 5.99469 8.4375 6.01013 8.39209C6.02551 8.34668 6.03638 8.30029 6.0426 8.25293C6.04883 8.20508 6.05042 8.15771 6.0473 8.10986C6.04413 8.06201 6.03638 8.01465 6.02399 7.96826C6.01154 7.92188 5.99475 7.87744 5.97357 7.83447C5.95233 7.7915 5.92719 7.75098 5.89801 7.71289C5.86884 7.6748 5.83618 7.64014 5.80017 7.6084C5.76416 7.57666 5.7254 7.54883 5.6839 7.5249L2.59479 5.74023C2.55328 5.71631 2.50983 5.69678 2.46448 5.68115C2.41907 5.66602 2.37262 5.65479 2.32513 5.64893C2.27759 5.64258 2.22992 5.64111 2.18213 5.64404C2.13428 5.64697 2.08722 5.65479 2.04095 5.66748C1.99463 5.67969 1.95001 5.69678 1.90704 5.71777C1.86407 5.73877 1.82355 5.76416 1.78552 5.79346C1.7475 5.82275 1.71271 5.85498 1.68109 5.89111C1.64954 5.92725 1.6217 5.96582 1.59778 6.00781C1.57379 6.04932 1.55414 6.09277 1.5387 6.13818C1.52332 6.18359 1.51251 6.22998 1.50623 6.27734C1.5 6.32471 1.49841 6.37256 1.50159 6.42041C1.5047 6.46826 1.51245 6.51514 1.5249 6.56152C1.53729 6.60791 1.55408 6.65283 1.57526 6.6958C1.5965 6.73877 1.62164 6.7793 1.65082 6.81738C1.68005 6.85498 1.71265 6.89014 1.74866 6.92188C1.78467 6.95312 1.82349 6.98096 1.86499 7.00488L4.95404 8.79004ZM19.5347 18.5376L18.298 18.5376L18.298 13.1519C18.299 12.7383 18.2593 12.3286 18.179 11.9233C18.0986 11.5176 17.9792 11.1235 17.8208 10.7417C17.6624 10.3599 17.468 9.99707 17.2376 9.65381C17.0073 9.31006 16.7454 8.99268 16.4521 8.70117C15.2595 7.5083 13.6812 6.85107 12.0053 6.85107C11.5916 6.85059 11.1819 6.89062 10.7761 6.97119C10.3704 7.05176 9.97644 7.17188 9.59442 7.33057C9.2124 7.48926 8.84967 7.68408 8.50623 7.91455C8.16278 8.14551 7.84534 8.40771 7.55383 8.70117C6.36127 9.89453 5.70172 11.4751 5.70172 13.1519L5.70172 18.5376L4.46503 18.5376C2.96161 18.5376 1.73846 19.7646 1.73846 21.2686C1.73846 22.7729 2.96161 24 4.46503 24L19.5347 24C21.0381 24 22.2613 22.7729 22.2613 21.2686C22.2613 19.7646 21.0381 18.5376 19.5347 18.5376ZM7.16138 13.1519C7.16138 11.8652 7.6698 10.6514 8.58673 9.73389C8.81049 9.5083 9.0542 9.30664 9.31793 9.12939C9.5816 8.95215 9.86017 8.80225 10.1535 8.68018C10.4469 8.55811 10.7494 8.46631 11.061 8.40381C11.3726 8.3418 11.6873 8.31104 12.005 8.31152C13.2911 8.31152 14.5021 8.81641 15.419 9.73389C15.6444 9.95752 15.8456 10.2012 16.0227 10.4648C16.1998 10.7285 16.3492 11.0073 16.471 11.3008C16.5928 11.5942 16.6847 11.8965 16.7465 12.208C16.8083 12.5195 16.8389 12.8345 16.8384 13.1519L16.8384 18.5376L7.16138 18.5376L7.16138 13.1519ZM19.5347 22.5396L4.46503 22.5396C4.38165 22.5396 4.29901 22.5317 4.21722 22.5151C4.13538 22.499 4.05597 22.4751 3.97888 22.4429C3.90179 22.4111 3.82861 22.3721 3.75922 22.3257C3.68988 22.2793 3.62567 22.2266 3.56671 22.1675C3.50775 22.1084 3.45508 22.0444 3.40869 21.9746C3.36237 21.9053 3.32324 21.832 3.29132 21.7549C3.2594 21.6782 3.23529 21.5986 3.21899 21.5166C3.20276 21.4351 3.19464 21.3521 3.19464 21.2686C3.19464 21.1851 3.20276 21.1025 3.21899 21.021C3.23529 20.939 3.2594 20.8594 3.29132 20.7822C3.32324 20.7051 3.36237 20.6318 3.40869 20.5625C3.45508 20.4932 3.50775 20.4292 3.56671 20.3701C3.62567 20.311 3.68988 20.2583 3.75922 20.2119C3.82861 20.1655 3.90179 20.1265 3.97888 20.0947C4.05597 20.0625 4.13538 20.0386 4.21722 20.022C4.29901 20.0059 4.38165 19.9976 4.46503 19.9976L19.5347 19.9976C19.6181 19.9976 19.7007 20.0059 19.7825 20.022C19.8644 20.0386 19.9438 20.0625 20.0209 20.0947C20.098 20.1265 20.1711 20.1655 20.2405 20.2119C20.3099 20.2583 20.374 20.311 20.433 20.3701C20.492 20.4292 20.5447 20.4932 20.591 20.5625C20.6374 20.6318 20.6765 20.7051 20.7084 20.7822C20.7404 20.8594 20.7645 20.939 20.7807 21.021C20.797 21.1025 20.8051 21.1851 20.8051 21.2686C20.8051 21.3521 20.797 21.4351 20.7807 21.5166C20.7645 21.5986 20.7404 21.6782 20.7084 21.7549C20.6765 21.832 20.6374 21.9053 20.591 21.9746C20.5447 22.0444 20.492 22.1084 20.433 22.1675C20.374 22.2266 20.3099 22.2793 20.2405 22.3257C20.1711 22.3721 20.098 22.4111 20.0209 22.4429C19.9438 22.4751 19.8644 22.499 19.7825 22.5151C19.7007 22.5317 19.6181 22.5396 19.5347 22.5396Z" fill-rule="nonzero" fill="#FFFFFF"/>
	</g>
</svg>
