<svg width="30.424316" height="33.998291" viewBox="0 0 30.4243 33.9983" fill="none" xmlns="http://www.w3.org/2000/svg" xmlns:xlink="http://www.w3.org/1999/xlink">
	<desc>
			Created with Pixso.
	</desc>
	<defs/>
	<path id="path" d="M27.31 17L28.33 17C28.59 17 28.84 17 29.09 16.91C30.2 16.61 30.63 15.47 30.33 13.43C30.2 12.49 29.52 11.9 28.5 11.9L18.6 11.9L18.6 11.09C18.6 8.92 18.48 6.76 18.6 4.59C18.69 2.51 17.8 0.6 16.05 0.09C15.54 -0.04 14.78 -0.04 14.35 0.09C13.42 0.43 12.19 1.32 11.93 2.64C11.85 3.06 11.81 3.45 11.81 3.83L11.81 11.9L1.99 11.9C0.63 11.9 0 12.54 0 13.94L0 14.19C0 16.61 0.25 16.87 2.67 17C2.76 17 2.88 17.04 3.01 17.04C2.07 21.89 1.14 26.69 0.12 31.49C-0.13 32.68 0.12 33.57 1.14 33.99L29.18 33.99C30.15 33.57 30.45 32.72 30.24 31.57C29.22 26.73 28.29 21.93 27.31 17ZM15.12 1.79C16.18 1.79 16.86 2.55 16.86 3.83C16.86 6.29 16.9 8.71 16.9 11.18L16.9 11.9L13.46 11.9L13.46 3.83C13.46 2.6 14.1 1.83 15.12 1.79ZM1.61 15.3L1.61 13.6L28.8 13.6L28.8 15.3L1.61 15.3ZM8.28 32.29C8.58 30.17 8.87 27.87 9.17 25.66C9.21 25.28 9.26 24.94 9.3 24.6C9.34 24.09 9.17 23.66 8.66 23.58C8.07 23.5 7.72 23.79 7.64 24.35C7.43 25.75 7.26 27.11 7.05 28.51C6.92 29.74 6.75 31.02 6.58 32.29L1.65 32.29C2.76 27.19 3.86 22.09 5.01 17L25.27 17C26.38 22.09 27.48 27.19 28.63 32.29L8.28 32.29Z" fill="#818992" fill-opacity="1.000000" fill-rule="nonzero"/>
</svg>
