<svg width="52.000000" height="52.000000" viewBox="0 0 52 52" fill="none" xmlns="http://www.w3.org/2000/svg" xmlns:xlink="http://www.w3.org/1999/xlink">
	<desc>
			Created with Pixso.
	</desc>
	<defs>
		<clipPath id="clip117_202632">
			<rect id="stylle=删除-默认" width="52.000000" height="52.000000" fill="white" fill-opacity="0"/>
		</clipPath>
	</defs>
	<g clip-path="url(#clip117_202632)">
		<path id="vector (Stroke)" d="M18.95 8.12C18.95 4.83 21.62 2.16 24.91 2.16L27.08 2.16C30.37 2.16 33.04 4.83 33.04 8.12L33.04 11.37C33.04 12.27 32.31 13 31.41 13C30.51 13 29.79 12.27 29.79 11.37L29.79 8.12C29.79 6.62 28.57 5.41 27.08 5.41L24.91 5.41C23.42 5.41 22.2 6.62 22.2 8.12L22.2 11.37C22.2 12.27 21.48 13 20.58 13C19.68 13 18.95 12.27 18.95 11.37L18.95 8.12Z" fill="#41B4CF" fill-opacity="1.000000" fill-rule="evenodd"/>
		<path id="vector (Stroke)" d="M8.13 16.24L43.86 16.24L41.26 42.51C40.84 46.66 37.35 49.83 33.17 49.83L18.82 49.83C14.64 49.83 11.15 46.66 10.73 42.51L8.13 16.24ZM11.72 19.49L13.97 42.18C14.22 44.68 16.31 46.58 18.82 46.58L33.17 46.58C35.68 46.58 37.77 44.68 38.02 42.18L40.27 19.49L11.72 19.49Z" fill="#41B4CF" fill-opacity="1.000000" fill-rule="evenodd"/>
		<path id="vector (Stroke)" d="M8.05 18.01C5.62 14.52 8.12 9.75 12.37 9.75L39.62 9.75C43.87 9.75 46.37 14.52 43.94 18.01C43.3 18.93 42.24 19.49 41.12 19.49L10.87 19.49C9.75 19.49 8.69 18.93 8.05 18.01ZM12.37 13C10.74 13 9.79 14.82 10.72 16.15C10.75 16.2 10.81 16.24 10.87 16.24L41.12 16.24C41.18 16.24 41.24 16.2 41.27 16.15C42.2 14.82 41.25 13 39.62 13L12.37 13Z" fill="#41B4CF" fill-opacity="1.000000" fill-rule="evenodd"/>
	</g>
</svg>
