<svg width="52.000000" height="52.000000" viewBox="0 0 52 52" fill="none" xmlns="http://www.w3.org/2000/svg" xmlns:xlink="http://www.w3.org/1999/xlink">
	<desc>
			Created with Pixso.
	</desc>
	<defs>
		<clipPath id="clip117_202629">
			<rect id="KHCFDC_保存" width="52.000000" height="52.000000" fill="white" fill-opacity="0"/>
		</clipPath>
	</defs>
	<g clip-path="url(#clip117_202629)">
		<path id="path" d="M36.67 7.42L36.67 21.35C36.67 23.02 35.56 24.14 33.89 24.14L17.17 24.14C15.5 24.14 14.39 23.02 14.39 21.35L14.39 7.42L11.6 7.42C9.93 7.42 8.82 8.54 8.82 10.21L8.82 40.85C8.82 42.52 9.93 43.64 11.6 43.64L39.46 43.64C41.13 43.64 42.24 42.52 42.24 40.85L42.24 10.21C42.24 8.54 41.13 7.42 39.46 7.42L36.67 7.42ZM11.6 4.64L39.46 4.64C42.52 4.64 45.03 7.15 45.03 10.21L45.03 40.85C45.03 43.92 42.52 46.42 39.46 46.42L11.6 46.42C8.54 46.42 6.03 43.92 6.03 40.85L6.03 10.21C6.03 7.15 8.54 4.64 11.6 4.64ZM17.17 7.42L17.17 21.35L33.89 21.35L33.89 7.42L17.17 7.42Z" fill="#41B4CF" fill-opacity="1.000000" fill-rule="nonzero"/>
		<path id="path" d="M30.64 10.21C31.47 10.21 32.03 10.77 32.03 11.6L32.03 17.17C32.03 18.01 31.47 18.57 30.64 18.57C29.8 18.57 29.25 18.01 29.25 17.17L29.25 11.6C29.25 10.77 29.8 10.21 30.64 10.21Z" fill="#41B4CF" fill-opacity="1.000000" fill-rule="nonzero"/>
	</g>
</svg>
