<svg width="52.000000" height="52.000000" viewBox="0 0 52 52" fill="none" xmlns="http://www.w3.org/2000/svg" xmlns:xlink="http://www.w3.org/1999/xlink">
	<desc>
			Created with Pixso.
	</desc>
	<defs>
		<clipPath id="clip361_55234">
			<rect id="开始" width="52.000008" height="52.000000" fill="white" fill-opacity="0"/>
		</clipPath>
	</defs>
	<g clip-path="url(#clip361_55234)">
		<path id="path" d="M7.61 44.38C7.99 44.76 8.37 45.12 8.77 45.47C9.17 45.82 9.58 46.16 10 46.48C10.41 46.81 10.84 47.12 11.28 47.42C11.72 47.72 12.17 48.01 12.62 48.28C13.08 48.55 13.54 48.81 14.01 49.05C14.48 49.29 14.96 49.52 15.44 49.74C15.93 49.95 16.42 50.15 16.92 50.33C17.42 50.52 17.92 50.69 18.43 50.84C18.93 50.99 19.45 51.13 19.96 51.25C20.48 51.37 21 51.48 21.52 51.57C22.04 51.66 22.57 51.73 23.1 51.79C23.62 51.85 24.15 51.89 24.68 51.91C25.21 51.94 25.74 51.94 26.27 51.94C26.8 51.93 27.33 51.91 27.86 51.87C28.39 51.82 28.92 51.77 29.44 51.7C29.97 51.62 30.49 51.53 31.01 51.43C31.53 51.33 32.04 51.2 32.56 51.07C33.07 50.93 33.58 50.78 34.08 50.61C34.58 50.44 35.08 50.26 35.57 50.06C36.06 49.87 36.55 49.65 37.03 49.42C37.51 49.2 37.98 48.95 38.44 48.7C38.91 48.44 39.36 48.17 39.81 47.88C40.26 47.6 40.7 47.3 41.12 46.99C41.55 46.68 41.97 46.35 42.38 46.01C42.79 45.68 43.19 45.33 43.58 44.96C43.96 44.6 44.34 44.23 44.7 43.84C45.07 43.46 45.42 43.06 45.76 42.66C46.1 42.25 46.43 41.83 46.74 41.41C47.06 40.98 47.36 40.54 47.65 40.1C47.93 39.65 48.21 39.2 48.47 38.74C48.73 38.27 48.97 37.8 49.2 37.33C49.44 36.85 49.65 36.36 49.85 35.87C50.05 35.38 50.24 34.89 50.41 34.39C50.58 33.88 50.74 33.38 50.88 32.86C51.02 32.35 51.14 31.84 51.25 31.32C51.36 30.8 51.45 30.28 51.52 29.75C51.6 29.23 51.66 28.7 51.7 28.17C51.75 27.64 51.77 27.11 51.79 26.58C51.8 26.05 51.79 25.52 51.77 24.99C51.75 24.46 51.71 23.94 51.66 23.41C51.6 22.88 51.53 22.36 51.45 21.83C51.36 21.31 51.26 20.79 51.14 20.27C51.02 19.75 50.89 19.24 50.74 18.73C50.59 18.22 50.42 17.72 50.24 17.22C50.06 16.72 49.87 16.23 49.65 15.74C49.44 15.26 49.22 14.78 48.98 14.31C48.74 13.83 48.48 13.37 48.21 12.91C47.94 12.45 47.66 12.01 47.37 11.57C47.07 11.13 46.76 10.7 46.44 10.28C46.11 9.85 45.78 9.44 45.43 9.04C45.08 8.64 44.72 8.26 44.35 7.88C43.98 7.5 43.59 7.13 43.2 6.78C42.81 6.42 42.4 6.08 41.98 5.75C41.57 5.42 41.14 5.11 40.71 4.8C40.27 4.5 39.83 4.21 39.38 3.93C38.92 3.66 38.46 3.4 37.99 3.15C37.53 2.9 37.05 2.67 36.57 2.45C36.08 2.23 35.59 2.03 35.1 1.84C34.6 1.65 34.1 1.48 33.6 1.32C33.09 1.16 32.58 1.02 32.06 0.89C31.55 0.77 31.03 0.66 30.51 0.56C29.99 0.47 29.46 0.39 28.94 0.33C28.41 0.26 27.88 0.22 27.35 0.19C26.82 0.16 26.29 0.15 25.76 0.15C25.23 0.15 24.7 0.17 24.17 0.21C23.64 0.24 23.12 0.29 22.59 0.36C22.06 0.43 21.54 0.51 21.02 0.61C20.5 0.71 19.98 0.83 19.47 0.96C18.95 1.09 18.45 1.24 17.94 1.4C17.44 1.56 16.94 1.74 16.44 1.93C15.95 2.13 15.46 2.34 14.98 2.56C14.5 2.78 14.03 3.02 13.56 3.27C13.09 3.53 12.64 3.79 12.19 4.07C11.74 4.36 11.3 4.65 10.86 4.96C10.43 5.27 10.01 5.59 9.6 5.92C9.19 6.25 8.78 6.6 8.39 6.96C8 7.32 7.62 7.69 7.25 8.07C6.89 8.45 6.53 8.84 6.19 9.25C5.84 9.65 5.51 10.06 5.19 10.49C4.87 10.91 4.57 11.35 4.28 11.79C3.98 12.23 3.71 12.68 3.44 13.14C3.18 13.6 2.93 14.07 2.69 14.54C2.46 15.02 2.24 15.5 2.03 15.99C1.82 16.48 1.63 16.97 1.46 17.47C1.28 17.97 1.12 18.48 0.98 18.99C0.83 19.5 0.71 20.01 0.59 20.53C0.48 21.05 0.38 21.57 0.3 22.1C0.22 22.62 0.16 23.15 0.11 23.67C0.06 24.2 0.03 24.73 0.01 25.26C0 25.79 0 26.32 0.01 26.85C0.03 27.38 0.06 27.91 0.11 28.44C0.16 28.97 0.22 29.49 0.31 30.02C0.39 30.54 0.48 31.06 0.6 31.58C0.71 32.1 0.84 32.61 0.99 33.12C1.13 33.63 1.29 34.14 1.47 34.64C1.64 35.14 1.83 35.63 2.04 36.12C2.69 37.66 3.49 39.13 4.43 40.52C5.36 41.91 6.43 43.2 7.61 44.38Z" fill="#538FFF" fill-opacity="1.000000" fill-rule="nonzero"/>
		<path id="path" d="M21.81 34.93C22.24 35.17 22.71 35.29 23.2 35.29C23.8 35.28 24.36 35.11 24.87 34.78L33.8 28.89C34.04 28.73 34.26 28.54 34.46 28.32C34.66 28.11 34.82 27.87 34.96 27.61C35.1 27.36 35.2 27.09 35.27 26.8C35.34 26.52 35.37 26.23 35.36 25.94C35.37 25.66 35.34 25.38 35.27 25.1C35.21 24.83 35.11 24.56 34.97 24.31C34.84 24.06 34.68 23.83 34.49 23.62C34.3 23.41 34.09 23.23 33.85 23.07L24.83 17.19C24.61 17.04 24.37 16.92 24.11 16.84C23.86 16.75 23.59 16.7 23.32 16.69C23.05 16.67 22.79 16.7 22.52 16.76C22.26 16.82 22.01 16.91 21.77 17.04C21.51 17.2 21.27 17.39 21.05 17.61C20.84 17.83 20.65 18.07 20.51 18.34C20.36 18.61 20.25 18.9 20.17 19.19C20.1 19.49 20.07 19.8 20.08 20.1L20.08 31.87C20.07 32.18 20.1 32.48 20.18 32.78C20.26 33.08 20.37 33.37 20.52 33.64C20.67 33.91 20.86 34.15 21.08 34.37C21.3 34.59 21.54 34.78 21.81 34.93Z" fill="#FFFFFF" fill-opacity="1.000000" fill-rule="nonzero"/>
	</g>
</svg>
