<svg width="56.000000" height="56.000000" viewBox="0 0 56 56" fill="none" xmlns="http://www.w3.org/2000/svg" xmlns:xlink="http://www.w3.org/1999/xlink">
	<desc>
			Created with Pixso.
	</desc>
	<defs>
		<clipPath id="clip117_202624">
			<rect id="切换" width="56.000000" height="56.000000" fill="white" fill-opacity="0"/>
		</clipPath>
	</defs>
	<g clip-path="url(#clip117_202624)">
		<path id="path" d="M10.58 23.21L45.4 23.21C46.15 23.21 46.82 22.77 47.11 22.07C47.17 21.91 47.22 21.74 47.24 21.56C47.26 21.38 47.25 21.2 47.21 21.02C47.18 20.85 47.12 20.68 47.04 20.52C46.95 20.36 46.85 20.22 46.72 20.09L35.73 9.1C35.64 9.01 35.55 8.94 35.45 8.87C35.35 8.8 35.25 8.74 35.14 8.7C35.03 8.65 34.91 8.62 34.8 8.59C34.68 8.57 34.56 8.56 34.44 8.56C34.32 8.56 34.2 8.57 34.08 8.59C33.96 8.62 33.85 8.65 33.74 8.7C33.63 8.74 33.52 8.8 33.42 8.87C33.32 8.94 33.23 9.01 33.15 9.1C33.06 9.18 32.99 9.27 32.92 9.37C32.85 9.47 32.79 9.58 32.75 9.69C32.7 9.8 32.67 9.91 32.64 10.03C32.62 10.15 32.61 10.27 32.61 10.39C32.61 10.51 32.62 10.63 32.64 10.75C32.67 10.86 32.7 10.98 32.75 11.09C32.79 11.2 32.85 11.3 32.92 11.4C32.99 11.5 33.06 11.59 33.15 11.68L41.02 19.55L10.6 19.55C9.6 19.55 8.77 20.37 8.77 21.38C8.77 21.5 8.78 21.62 8.8 21.73C8.82 21.85 8.85 21.97 8.9 22.08C8.94 22.19 9 22.3 9.06 22.4C9.13 22.5 9.2 22.59 9.29 22.67C9.37 22.76 9.46 22.84 9.56 22.9C9.66 22.97 9.77 23.03 9.88 23.07C9.99 23.12 10.1 23.15 10.22 23.18C10.34 23.2 10.46 23.21 10.58 23.21ZM45.4 34.59L10.58 34.59C9.83 34.59 9.16 35.02 8.87 35.72C8.78 35.94 8.74 36.18 8.75 36.42C8.75 36.88 8.93 37.37 9.29 37.71L18.45 46.89C18.53 46.98 18.62 47.05 18.72 47.12C18.82 47.19 18.92 47.25 19.04 47.29C19.15 47.34 19.26 47.37 19.38 47.4C19.5 47.42 19.61 47.43 19.74 47.43C19.86 47.43 19.97 47.42 20.09 47.4C20.21 47.37 20.32 47.34 20.43 47.29C20.55 47.25 20.65 47.19 20.75 47.12C20.85 47.05 20.94 46.98 21.02 46.89C21.11 46.81 21.19 46.72 21.25 46.62C21.32 46.52 21.38 46.41 21.43 46.3C21.47 46.19 21.51 46.08 21.53 45.96C21.55 45.84 21.57 45.72 21.57 45.6C21.57 45.48 21.55 45.36 21.53 45.25C21.51 45.13 21.47 45.01 21.43 44.9C21.38 44.79 21.32 44.69 21.25 44.59C21.19 44.49 21.11 44.4 21.02 44.31L14.99 38.28L45.4 38.28C46.41 38.28 47.23 37.45 47.23 36.44C47.23 35.44 46.41 34.59 45.4 34.59Z" fill="#41B4CF" fill-opacity="1.000000" fill-rule="nonzero"/>
	</g>
</svg>
