<svg width="89.832672" height="32.000000" viewBox="0 0 89.8327 32" fill="none" xmlns="http://www.w3.org/2000/svg" xmlns:xlink="http://www.w3.org/1999/xlink">
	<desc>
			Created with Pixso.
	</desc>
	<defs/>
	<path id="矢量 18" d="M65.87 18L4.57e-5 18" stroke="#A6143C" stroke-opacity="1.000000" stroke-width="3.000000"/>
	<ellipse id="椭圆 3" cx="73.862366" cy="16.000000" rx="15.970280" ry="15.999999" fill="#A6143C" fill-opacity="1.000000"/>
	<path id="X" d="M71.21 22.61L69.46 22.61L73.31 15.79L69.72 9.4L71.55 9.4L73.35 12.79C73.69 13.4 73.96 13.96 74.4 14.71L74.47 14.71C74.83 13.96 75.08 13.4 75.4 12.79L77.17 9.4L78.91 9.4L75.31 15.88L79.16 22.61L77.33 22.61L75.38 19.05C75.04 18.38 74.68 17.72 74.25 16.93L74.18 16.93C73.8 17.72 73.46 18.38 73.12 19.05L71.21 22.61Z" fill="#FFFFFF" fill-opacity="1.000000" fill-rule="evenodd"/>
</svg>
